if (_typeface_js && _typeface_js.loadFace) _typeface_js.loadFace({"glyphs":{"0":{"ha":513,"x_min":42,"x_max":478,"o":"m 286 583 q 321 588 306 588 q 442 504 399 588 q 478 344 478 435 q 393 115 464 218 q 190 -8 308 -8 q 156 -1 174 -8 q 122 17 139 6 q 60 95 79 50 q 42 197 42 140 q 68 336 42 261 q 128 461 90 401 q 196 538 160 508 q 286 583 238 571 m 343 114 q 408 251 386 182 q 429 392 429 321 q 422 458 429 425 q 403 518 415 490 q 324 565 379 565 q 307 564 313 565 q 150 417 206 546 q 96 199 115 335 q 94 168 94 189 q 118 60 94 106 q 197 4 147 4 q 224 8 208 4 q 288 45 260 18 q 343 114 315 72 z "},"1":{"ha":256,"x_min":14,"x_max":228,"o":"m 201 581 l 228 581 l 63 0 l 14 0 l 144 469 l 71 372 l 57 379 q 132 478 92 421 q 201 581 160 515 z "},"2":{"ha":461,"x_min":14,"x_max":435,"o":"m 310 578 q 399 522 363 568 q 435 421 435 475 q 424 367 435 396 q 286 182 383 268 q 110 49 249 149 l 369 49 l 354 3 l 14 3 q 74 47 51 31 q 182 136 140 99 q 255 200 218 167 q 318 274 292 233 q 363 359 344 315 q 381 439 381 403 q 335 540 381 499 q 276 564 310 564 q 186 525 232 564 q 124 447 147 492 l 101 388 q 58 404 78 392 q 147 530 86 479 q 281 581 207 581 q 310 578 290 581 z "},"3":{"ha":461,"x_min":10,"x_max":458,"o":"m 354 583 q 430 551 401 583 q 458 474 458 518 q 451 435 458 450 q 382 349 432 385 q 283 296 347 324 q 388 260 340 296 q 435 172 435 225 q 433 157 435 163 q 328 26 419 67 q 138 -6 256 -6 q 56 10 99 -6 q 10 28 32 18 l 24 71 q 109 30 65 44 q 196 15 153 15 q 274 30 240 15 q 341 83 308 44 q 374 183 374 122 q 357 245 374 219 q 315 275 340 271 q 260 281 290 279 q 213 282 229 282 q 319 342 265 311 q 385 404 358 371 q 417 483 417 446 q 383 550 417 521 q 329 567 361 567 q 224 519 281 567 q 146 435 185 488 l 118 456 q 222 548 160 513 q 354 583 285 583 z "},"4":{"ha":461,"x_min":18,"x_max":440,"o":"m 383 496 l 440 513 l 335 154 l 425 151 l 411 106 l 318 103 l 278 -17 l 221 -29 l 261 106 l 18 106 l 332 581 l 397 583 l 78 157 l 281 157 l 383 496 z "},"5":{"ha":461,"x_min":4,"x_max":465,"o":"m 238 575 l 465 575 l 453 532 l 240 526 l 183 333 l 322 347 q 413 314 381 353 q 444 218 444 275 q 433 160 444 189 q 317 36 400 78 q 142 0 243 0 q 4 17 69 0 l 18 57 q 147 18 82 18 q 306 71 225 18 q 376 144 346 97 q 406 236 406 192 q 371 307 406 282 q 330 327 349 324 q 274 331 311 331 q 207 317 239 331 q 154 285 189 308 l 151 290 l 238 575 z "},"6":{"ha":451,"x_min":24,"x_max":417,"o":"m 167 11 q 313 97 250 11 q 369 258 369 176 q 360 299 371 279 q 329 334 350 318 q 288 350 308 350 q 189 288 242 350 q 147 228 169 265 l 139 233 q 211 326 167 289 q 313 369 263 369 q 368 353 342 369 q 406 313 394 338 q 417 258 417 288 q 394 160 417 213 q 342 76 371 108 q 276 22 313 43 q 216 -1 239 1 q 181 -4 193 -4 q 71 46 118 -4 q 24 154 24 96 q 29 191 24 169 q 42 242 35 213 q 63 296 50 272 q 158 436 96 358 q 251 536 199 486 q 344 618 282 565 l 353 608 q 304 560 322 578 q 221 464 251 506 q 189 418 204 440 q 158 369 168 388 q 126 303 139 333 q 100 231 114 272 q 86 146 86 190 q 105 50 86 89 q 167 11 124 11 z "},"7":{"ha":385,"x_min":15,"x_max":358,"o":"m 40 575 l 358 575 l 69 3 l 24 3 l 311 524 l 15 524 l 40 575 z "},"8":{"ha":465,"x_min":33,"x_max":447,"o":"m 314 586 q 410 540 372 586 q 447 439 447 494 q 419 358 447 393 q 369 322 399 333 q 308 310 340 310 q 373 247 350 285 q 396 165 396 208 q 376 83 396 125 q 313 17 357 40 q 213 -6 268 -6 q 99 26 146 -6 q 35 128 46 63 q 33 151 33 136 q 38 185 33 165 q 96 269 49 236 q 192 310 131 294 q 147 369 163 336 q 132 440 132 403 q 174 543 132 499 q 233 578 200 569 q 314 586 267 586 m 303 319 q 335 328 329 326 q 368 344 354 333 q 407 435 407 375 q 383 519 407 481 q 319 567 358 557 q 297 569 306 569 q 208 529 249 569 q 168 439 168 489 q 171 418 168 432 q 213 346 179 376 q 282 315 246 315 q 303 319 292 315 m 108 40 q 201 8 146 8 q 308 44 261 8 q 354 131 354 79 q 307 231 354 188 q 208 288 271 263 q 111 228 154 276 q 68 125 68 179 q 108 40 68 76 z "},"9":{"ha":451,"x_min":25,"x_max":410,"o":"m 94 -40 q 279 183 211 71 q 367 456 367 326 q 355 524 367 501 q 324 555 343 547 q 286 563 304 563 q 142 481 214 563 q 69 317 69 399 q 94 244 69 274 q 142 224 114 224 q 213 247 172 224 q 274 290 238 263 l 282 282 q 214 232 254 250 q 135 214 174 214 q 56 247 86 214 q 25 333 25 281 q 101 505 25 422 q 263 588 176 588 q 296 583 279 588 q 385 521 356 568 q 410 417 410 479 q 394 312 410 364 q 350 217 378 260 q 285 131 317 169 q 208 46 253 93 l 103 -43 l 94 -40 z "}," ":{"ha":382,"x_min":0,"x_max":0,"o":""},"!":{"ha":433,"x_min":7,"x_max":351,"o":"m 276 911 l 351 944 q 97 217 207 569 l 81 217 q 276 911 174 582 m 38 71 q 62 66 51 72 q 83 46 72 60 q 85 31 85 40 q 64 -6 85 6 q 46 -8 58 -8 q 18 4 29 -8 q 7 32 7 17 q 38 71 7 61 z "},"\"":{"ha":425,"x_min":69,"x_max":326,"o":"m 306 974 l 326 933 l 240 668 l 219 668 l 251 939 l 251 961 l 275 974 l 306 974 m 156 974 l 175 933 l 89 668 l 69 668 l 101 939 l 101 961 l 122 974 l 156 974 z "},"#":{"ha":788,"x_min":56,"x_max":725,"o":"m 549 629 l 725 629 l 707 575 l 535 575 l 476 336 l 663 336 l 650 282 l 468 282 l 397 -3 l 361 -3 l 432 282 l 250 282 l 183 -3 l 147 -3 l 215 282 l 56 282 l 74 336 l 232 336 l 289 575 l 115 575 l 129 629 l 300 629 l 369 922 l 406 922 l 335 629 l 517 629 l 585 922 l 619 922 l 549 629 m 446 333 l 503 572 l 324 572 l 264 333 l 446 333 z "},"$":{"ha":675,"x_min":57,"x_max":586,"o":"m 489 575 l 586 546 l 568 510 l 483 546 l 410 299 q 466 256 447 285 q 485 192 485 226 q 476 134 485 161 q 449 82 467 107 q 395 29 426 47 q 321 0 364 11 l 288 -122 l 269 -122 l 304 -3 l 233 -3 l 199 -122 l 182 -122 l 218 -3 q 138 18 178 3 q 57 57 99 33 l 85 89 q 152 44 115 64 q 225 14 189 25 l 293 268 q 201 363 201 276 q 225 447 201 400 q 286 521 244 486 q 378 569 328 556 l 410 678 l 426 678 l 396 575 l 472 575 l 503 678 l 518 678 l 489 575 m 307 315 l 375 543 q 281 477 322 526 q 240 379 240 428 q 246 349 240 365 q 269 322 251 333 q 307 315 286 311 m 394 304 l 464 543 l 392 543 l 326 310 l 394 304 m 315 14 l 381 247 l 313 263 l 239 8 l 315 14 m 335 17 q 422 67 383 28 q 461 149 461 106 q 415 222 461 192 l 396 236 l 335 17 z "},"%":{"ha":792,"x_min":56,"x_max":689,"o":"m 506 600 q 550 608 524 611 l 172 -119 l 140 -119 l 492 558 q 368 528 431 528 q 308 535 343 528 q 318 460 318 504 q 276 296 318 368 q 154 214 229 214 q 79 256 103 214 q 56 358 56 297 q 69 444 56 408 q 86 486 82 479 q 115 524 97 506 q 167 563 142 550 q 222 576 192 576 q 238 575 232 575 q 390 554 314 564 q 450 565 422 554 q 506 600 478 575 m 604 353 q 671 314 649 353 q 689 225 689 282 q 687 187 689 207 q 679 144 685 167 q 615 38 664 82 q 514 -6 567 -6 q 488 -3 496 -6 q 438 32 457 6 q 415 89 419 58 q 411 131 411 119 q 466 285 411 218 q 604 353 521 353 m 246 315 q 273 393 263 353 q 283 472 283 433 q 281 510 283 497 q 235 553 271 549 q 167 522 199 558 q 118 444 149 501 q 94 391 103 415 q 85 342 85 367 q 90 304 85 332 q 105 259 99 274 q 129 233 111 244 q 154 226 143 226 q 208 256 182 226 q 246 315 228 276 m 554 14 q 631 89 604 35 q 658 207 658 143 q 649 274 658 244 q 628 317 640 303 q 601 331 615 331 q 562 327 575 331 q 536 310 549 324 q 472 207 490 254 q 454 103 454 160 q 477 35 454 63 q 531 8 500 8 q 554 14 538 8 z "},"&":{"ha":1001,"x_min":33,"x_max":969,"o":"m 840 415 q 919 460 885 428 q 954 531 954 493 q 946 564 954 547 q 901 604 931 593 q 829 615 871 615 l 846 651 q 939 606 904 651 q 969 510 969 565 q 935 427 969 449 q 883 395 901 406 q 834 376 864 385 q 753 363 804 367 q 729 361 744 363 q 742 293 742 325 q 668 144 742 215 q 508 38 613 92 q 380 -12 450 7 q 249 -31 310 -31 q 125 -4 175 -31 q 56 83 75 22 q 39 145 44 119 q 33 199 33 171 q 46 264 33 232 q 115 365 69 325 q 283 464 131 379 l 283 483 q 201 500 210 497 q 150 542 157 515 q 143 593 143 569 q 181 704 143 650 q 272 800 208 743 q 386 863 321 842 q 506 888 426 875 q 569 869 543 893 q 610 806 596 846 q 614 783 614 794 q 550 678 614 739 q 490 624 519 650 l 451 654 q 499 686 483 674 q 560 764 549 726 q 565 801 565 786 q 553 851 565 831 q 517 871 540 871 q 317 807 414 871 q 192 638 211 738 q 189 608 189 618 q 208 546 189 581 q 276 499 224 519 q 325 483 293 493 q 333 475 331 481 q 338 461 335 469 q 319 427 336 443 q 281 399 303 411 q 206 358 243 378 q 149 307 168 336 q 110 238 125 272 q 96 172 96 204 q 104 126 96 149 q 131 81 113 104 q 173 49 149 58 q 278 28 197 39 q 340 24 314 24 q 414 32 372 24 q 615 143 522 56 q 707 299 707 231 q 679 361 707 340 q 610 382 651 382 q 508 352 554 382 q 468 282 463 322 q 481 238 471 261 q 519 185 492 215 l 476 174 q 450 268 450 219 q 525 388 450 358 q 576 403 551 397 q 621 414 600 410 q 654 418 642 418 q 674 418 667 418 q 732 413 693 418 q 785 408 771 408 q 840 415 815 408 z "},"'":{"ha":342,"x_min":118,"x_max":226,"o":"m 204 981 q 224 940 226 968 q 176 771 215 876 q 138 675 164 736 l 118 675 l 150 946 q 150 968 150 957 q 168 981 154 976 q 190 985 182 985 q 204 981 197 985 z "},"(":{"ha":561,"x_min":58,"x_max":450,"o":"m 444 979 l 450 965 q 178 371 267 697 q 94 -282 94 65 l 85 -282 q 65 -135 72 -206 q 58 6 58 -64 q 69 181 58 94 q 108 368 81 268 q 194 601 142 493 q 308 796 240 696 q 444 979 339 842 z "},")":{"ha":506,"x_min":19,"x_max":400,"o":"m 372 979 q 393 840 386 904 q 400 701 400 776 q 400 624 400 663 q 394 572 396 589 q 353 333 385 456 q 221 -4 307 153 q 33 -282 156 -124 l 19 -279 q 58 -218 44 -240 q 128 -103 106 -143 q 311 341 251 125 q 371 775 371 557 q 358 979 371 875 l 372 979 z "},"*":{"ha":425,"x_min":74,"x_max":357,"o":"m 338 775 l 357 726 l 221 725 l 290 629 q 264 596 288 614 l 208 717 l 132 610 q 115 627 124 618 q 103 646 107 636 l 201 726 l 74 764 l 106 800 l 207 747 l 207 856 l 260 867 l 224 738 l 338 775 z "},"+":{"ha":846,"x_min":100,"x_max":726,"o":"m 726 432 l 726 382 l 442 382 l 442 25 l 390 25 l 390 382 l 100 382 l 100 432 l 390 432 l 390 779 l 444 779 l 444 432 l 726 432 z "},",":{"ha":258,"x_min":-8,"x_max":128,"o":"m 100 71 q 122 54 114 67 q 128 21 128 39 q 81 -82 128 -25 q -3 -162 58 -110 l -8 -154 q 97 -11 58 -92 q 68 -8 88 -15 q 50 28 50 4 q 60 59 50 46 q 88 72 71 72 q 100 71 96 72 z "},"-":{"ha":325,"x_min":64,"x_max":211,"o":"m 72 168 l 211 168 l 203 128 l 64 128 l 72 168 z "},".":{"ha":283,"x_min":68,"x_max":143,"o":"m 96 68 q 139 54 124 74 q 143 35 143 43 q 131 0 143 19 q 108 -7 119 -7 q 74 18 85 -7 q 71 46 68 31 q 96 68 75 63 z "},"/":{"ha":340,"x_min":31,"x_max":304,"o":"m 272 581 l 304 581 l 60 -8 q 46 -11 51 -11 q 31 -8 42 -11 l 272 581 z "},":":{"ha":250,"x_min":29,"x_max":151,"o":"m 117 290 q 141 281 131 296 q 151 246 151 267 q 125 211 151 211 q 90 249 90 211 q 117 290 90 279 m 103 51 q 111 28 111 40 q 100 -6 111 13 q 76 -14 88 -14 q 43 -8 65 -14 q 29 24 29 6 q 40 51 29 38 q 72 65 50 65 q 103 51 89 65 z "},";":{"ha":292,"x_min":-6,"x_max":182,"o":"m 153 290 q 167 285 161 288 q 176 279 172 283 q 182 254 182 268 q 174 222 182 239 q 149 215 161 215 q 122 222 139 215 q 110 251 110 235 q 133 290 110 275 q 153 290 143 290 m 97 65 q 122 54 106 65 q 132 18 132 39 q 111 -47 132 -11 q 71 -100 96 -74 q 37 -136 57 -117 q -3 -171 17 -156 l -6 -162 l 82 -62 l 100 -14 q 68 -11 90 -17 q 53 24 53 0 q 65 56 53 43 q 97 65 76 69 z "},"<":{"ha":583,"x_min":75,"x_max":454,"o":"m 454 39 l 454 1 l 75 183 l 75 222 l 440 407 l 454 407 l 454 367 l 128 206 l 118 204 l 454 39 z "},"=":{"ha":575,"x_min":82,"x_max":486,"o":"m 486 275 l 486 238 l 82 238 l 82 275 l 486 275 m 486 175 l 486 139 l 82 139 l 82 175 l 486 175 z "},">":{"ha":517,"x_min":68,"x_max":447,"o":"m 447 222 l 447 183 l 68 1 l 68 39 l 401 204 l 68 367 l 68 407 l 75 407 l 447 222 z "},"?":{"ha":508,"x_min":19,"x_max":418,"o":"m 315 811 q 389 774 360 811 q 418 686 418 736 q 415 663 418 679 q 403 615 408 628 q 386 586 397 603 q 217 379 351 535 q 96 179 124 272 l 79 179 q 99 251 90 225 q 156 376 124 329 q 225 465 188 422 q 349 615 319 575 q 376 664 367 640 q 386 710 386 688 q 381 740 386 726 q 338 786 369 768 q 315 792 328 792 q 263 768 293 792 q 229 740 239 749 q 169 667 193 711 q 125 583 146 624 l 90 621 q 146 717 126 690 q 315 811 214 811 m 76 68 q 99 54 89 64 q 101 38 101 49 q 87 6 101 19 q 56 -7 72 -7 q 42 -3 49 -7 q 25 43 19 13 q 33 53 29 50 q 50 65 38 57 q 76 68 68 71 z "},"@":{"ha":1250,"x_min":43,"x_max":1126,"o":"m 1119 588 q 1126 513 1126 539 q 1124 472 1126 492 q 1119 438 1121 451 q 1058 229 1100 310 q 931 99 1011 140 q 876 76 899 83 q 826 68 853 68 q 767 81 797 68 q 720 110 738 94 q 692 154 703 126 q 685 185 686 168 q 682 215 683 201 q 657 175 667 189 q 599 113 626 132 q 526 78 560 85 q 465 71 492 71 q 414 80 438 71 q 367 111 390 89 q 313 194 328 147 q 296 296 304 222 q 294 319 294 303 q 315 433 294 371 q 376 549 336 494 q 442 620 411 594 q 518 663 474 646 q 553 675 536 669 q 611 686 585 686 q 663 676 632 686 q 732 607 694 665 q 763 549 744 588 l 768 556 l 785 608 l 801 668 l 899 668 l 888 613 q 838 471 854 524 q 767 219 782 307 q 763 186 763 199 q 768 162 763 176 q 783 138 774 147 q 809 121 789 132 q 849 110 829 110 q 904 128 872 110 q 963 164 943 153 q 1050 289 1025 203 q 1074 379 1061 333 q 1094 503 1094 450 q 1082 603 1094 546 q 1038 719 1065 672 q 956 818 1010 765 q 844 904 890 881 q 715 942 799 928 q 656 948 674 947 q 628 949 638 949 q 453 922 533 949 q 313 847 372 894 q 143 592 213 769 q 99 368 99 478 q 110 253 99 317 q 151 72 136 108 q 267 -64 182 -3 q 383 -130 329 -110 q 518 -162 436 -150 q 622 -171 575 -171 q 731 -159 679 -171 q 856 -118 783 -147 q 974 -58 900 -101 q 1036 -19 997 -44 l 1050 -35 q 997 -72 1017 -60 q 896 -132 936 -114 q 753 -185 821 -168 q 615 -201 686 -201 q 495 -193 572 -201 q 361 -164 418 -185 q 235 -94 304 -143 q 84 58 125 -19 q 43 268 43 136 q 60 514 43 425 q 163 753 86 653 q 229 842 196 797 q 289 886 249 861 q 447 958 374 936 q 603 981 519 981 q 656 979 628 981 q 713 974 683 978 q 858 940 808 963 q 981 853 907 918 q 1076 737 1046 796 q 1119 588 1106 678 m 669 254 q 700 326 690 285 q 721 404 715 390 q 731 441 726 418 q 735 478 735 464 q 709 577 735 532 q 644 639 683 622 q 619 643 633 643 q 529 611 581 643 q 474 567 486 585 q 440 515 450 529 q 403 435 417 478 q 376 279 376 351 q 388 208 376 238 q 433 141 406 164 q 506 118 460 118 q 521 118 513 118 q 538 121 532 121 q 628 188 589 129 q 669 254 656 232 z "},"A":{"ha":922,"x_min":-429,"x_max":875,"o":"m 849 976 q 869 944 864 961 q 875 900 875 926 q 864 826 875 869 q 849 765 853 782 l 697 293 l 757 293 l 757 279 l 683 268 l 583 -3 l 538 -3 q 467 151 521 63 q 399 244 443 192 q 356 293 383 263 q 256 181 281 206 q 128 79 199 124 q 64 42 93 57 q -3 14 35 28 q -185 -18 -94 -18 q -301 -7 -246 -18 q -429 29 -357 4 l -382 65 q -156 11 -261 11 q 38 54 -62 11 q 140 117 94 79 q 222 196 171 142 q 392 413 301 283 q 547 642 469 526 q 738 885 646 783 l 825 979 q 849 976 833 982 m 624 282 q 743 595 693 436 q 822 922 793 754 l 811 922 q 656 724 733 832 q 513 515 621 676 q 369 307 415 372 q 624 282 494 282 m 546 35 l 621 258 l 404 271 q 479 157 442 221 q 546 35 513 100 z "},"B":{"ha":842,"x_min":-22,"x_max":836,"o":"m 694 976 q 725 979 717 979 q 806 947 776 979 q 836 860 836 914 q 832 822 836 842 q 754 667 815 742 q 618 542 703 604 q 469 447 556 496 l 469 435 q 501 424 489 428 q 604 356 574 394 q 629 308 621 335 q 638 254 638 282 q 606 140 638 194 q 526 57 575 85 q 393 8 468 22 q 311 0 365 3 q 221 -3 257 -3 q 160 -2 185 -3 q 117 0 135 -1 l 165 57 q 238 51 196 54 q 333 49 279 49 q 396 49 364 49 q 431 54 421 53 q 542 114 483 61 q 606 226 606 172 q 589 274 606 250 q 563 299 582 283 q 506 337 544 315 q 428 379 467 358 q 410 413 410 393 q 415 435 410 424 q 465 464 447 453 q 553 524 522 499 q 707 685 657 611 q 769 874 769 776 q 751 922 769 907 q 703 936 733 936 q 644 926 675 936 q 586 903 613 917 q 561 886 574 896 q 533 865 538 868 q 425 775 489 832 q 396 749 414 765 l 368 714 q 272 423 328 565 q 140 144 215 281 q 29 8 94 63 q 12 -6 21 -1 q -8 -8 3 -10 q -22 25 -22 6 q -19 99 -22 69 q -3 168 -15 128 q 72 358 28 268 q 151 497 111 438 q 300 689 167 521 l 371 925 l 442 965 l 390 774 q 529 896 471 853 q 694 976 617 961 m 54 89 q 161 263 117 168 q 225 433 197 339 q 274 610 249 521 l 231 564 q 165 478 190 518 q 106 375 139 439 q 69 301 81 326 q 45 235 58 275 q 19 140 32 196 q 10 89 15 122 l 18 54 q 31 65 26 61 q 54 89 47 81 z "},"C":{"ha":746,"x_min":-56,"x_max":750,"o":"m 606 979 q 631 981 619 981 q 649 982 642 982 q 722 966 694 982 q 750 908 750 950 q 743 863 750 885 q 617 726 722 793 q 424 635 536 675 l 436 697 q 501 722 478 713 q 608 779 574 753 q 683 842 664 822 q 725 908 725 882 q 710 939 725 928 q 636 961 683 961 q 506 932 579 961 q 390 871 444 908 q 135 621 229 761 q 8 282 32 468 q 7 247 7 269 q 31 146 7 190 q 106 60 56 101 q 147 42 119 47 q 215 36 175 36 q 385 58 294 36 q 540 117 476 79 l 546 106 q 500 76 517 86 q 410 32 446 44 q 303 2 358 14 q 204 -10 249 -10 q 88 12 138 -10 q -3 88 39 33 q -44 163 -32 125 q -56 247 -56 201 q -51 306 -56 281 q -35 393 -47 331 q -14 465 -26 435 q 19 535 -6 489 q 267 836 117 719 q 606 979 424 957 z "},"D":{"ha":1138,"x_min":-8,"x_max":1042,"o":"m 949 635 q 992 567 978 590 q 1022 493 1011 531 q 1042 357 1042 426 q 982 126 1042 224 q 807 4 917 21 q 653 -8 725 -8 q 506 5 576 -8 q 360 46 436 18 q 254 1 299 17 q 142 -19 193 -19 q 24 17 75 -19 q 7 26 14 22 q -4 41 0 31 q -8 58 -8 51 q 4 85 -8 74 q 86 117 28 106 q 211 128 144 128 q 393 106 311 128 l 456 179 q 571 422 515 283 q 681 699 626 561 q 694 738 690 725 q 721 797 704 763 l 632 860 l 493 925 q 414 951 454 938 q 340 965 374 965 q 201 917 275 965 q 178 871 178 901 q 203 796 178 840 q 288 678 217 772 l 254 651 q 179 738 213 685 q 138 851 138 803 q 169 921 138 894 q 240 973 218 961 q 288 985 263 985 q 324 983 310 983 q 585 921 442 983 q 735 851 660 886 l 764 939 l 824 960 l 775 817 q 865 738 829 775 q 949 635 911 692 m 775 40 q 951 149 888 79 q 1011 274 1006 207 q 933 540 1011 406 q 758 760 872 646 q 736 685 747 722 q 676 514 708 597 q 594 333 635 404 q 517 196 521 203 q 422 88 472 126 q 489 68 464 75 q 602 42 572 44 q 663 34 632 39 q 713 29 694 29 q 775 40 743 29 m 92 14 q 161 3 125 3 q 222 12 189 3 q 319 51 256 21 q 163 76 242 76 q 71 72 107 76 q 35 50 35 67 q 42 35 35 43 q 66 22 50 28 q 92 14 82 17 z "},"E":{"ha":894,"x_min":0,"x_max":865,"o":"m 747 979 q 830 953 794 979 q 865 892 865 928 q 864 876 865 882 q 811 764 856 836 q 767 697 797 740 l 735 738 q 807 876 771 807 q 815 915 815 899 q 801 942 815 935 q 738 954 776 954 q 639 940 692 954 q 547 906 586 925 q 402 797 442 850 q 363 686 363 744 q 385 597 363 639 q 414 550 389 590 q 406 539 408 543 q 388 521 396 528 q 175 404 240 444 q 58 228 58 333 q 76 103 58 149 q 158 25 100 42 q 189 21 171 21 q 232 22 213 22 l 276 25 q 350 35 326 29 q 422 54 394 47 q 565 104 478 69 q 642 136 594 115 q 625 68 638 97 q 550 39 578 49 q 408 8 461 8 q 321 1 372 6 q 232 -3 269 -3 q 92 25 140 -3 q 15 131 43 53 q 0 214 0 176 q 47 345 0 285 q 186 464 94 406 q 272 518 229 490 q 365 567 325 550 l 379 583 q 315 704 315 632 q 365 822 315 769 q 419 867 389 847 q 493 910 449 888 q 562 943 538 933 q 625 963 586 953 q 747 979 694 979 z "},"F":{"ha":768,"x_min":-208,"x_max":863,"o":"m 356 976 q 613 975 488 976 q 863 960 739 974 l 817 911 q 629 923 721 919 q 417 926 538 926 q 317 926 367 926 q 217 925 267 925 q 118 911 160 925 q 54 843 54 890 q 88 781 54 806 q 160 740 97 774 q 257 715 192 722 q 315 711 278 714 l 276 672 q 132 700 197 672 q 38 797 51 735 q 33 831 33 818 q 47 878 33 851 q 80 917 60 904 q 176 950 100 929 q 266 970 225 964 q 356 976 307 976 m 646 860 l 711 885 l 526 339 l 651 333 l 643 304 l 518 304 q 388 110 465 185 q 182 3 299 26 q 32 -14 100 -14 q -208 51 -99 -14 l -174 88 q -147 69 -157 75 q -94 40 -119 51 q -26 15 -56 24 q 40 6 4 6 q 294 87 186 6 q 450 304 401 168 l 307 304 l 315 333 l 464 339 l 646 860 z "},"G":{"ha":768,"x_min":-69,"x_max":774,"o":"m 600 976 q 622 977 610 976 q 638 978 633 978 q 731 958 697 978 q 774 879 774 933 q 751 808 774 849 q 653 694 718 750 q 526 603 610 658 l 483 632 q 526 663 510 650 q 681 789 628 736 q 727 842 710 817 q 744 893 744 867 q 733 927 744 911 q 698 949 721 943 q 642 956 675 956 q 607 956 624 956 q 570 951 592 953 q 517 935 549 949 q 450 900 475 913 q 190 699 294 824 q 32 426 103 593 q 1 268 1 350 q 40 112 1 179 q 154 22 78 44 q 224 13 189 13 q 313 28 267 13 q 372 56 340 38 q 432 94 403 74 q 461 190 440 140 q 507 279 478 232 q 532 285 524 283 q 575 290 557 290 l 526 196 q 432 -87 479 54 q 313 -250 381 -194 q 133 -314 235 -314 q 77 -309 107 -314 q 17 -300 47 -304 q -43 -296 -14 -296 l -51 -247 q 1 -265 -18 -260 q 100 -285 65 -285 q 313 -182 222 -285 q 413 40 394 -89 q 308 1 363 15 q 203 -14 254 -14 q 67 19 125 -14 q -40 139 1 57 q -69 267 -69 200 q 3 517 -69 381 q 157 729 65 633 q 231 798 192 765 q 319 862 271 831 q 385 903 368 893 q 457 937 417 921 q 530 963 497 953 q 600 976 563 972 z "},"H":{"ha":974,"x_min":-376,"x_max":963,"o":"m 890 953 l 963 982 l 726 285 l 822 285 l 817 265 l 722 258 l 632 3 l 603 3 q 531 115 569 65 q 433 222 503 150 q 374 279 411 244 q 339 310 361 290 q 310 319 328 319 q 168 107 249 183 q -62 0 72 17 q -117 -4 -94 -4 q -152 -2 -133 -4 q -209 7 -171 0 q -274 22 -247 14 q -376 71 -314 36 l -342 106 q -294 81 -312 89 q -203 43 -236 51 q -92 29 -147 29 q 24 50 -31 29 q 131 117 79 71 q 184 182 163 144 q 228 258 206 219 q 343 478 297 369 q 418 689 382 568 q 478 906 438 751 q 517 928 499 919 q 564 950 547 942 q 453 647 514 799 q 319 336 392 494 q 492 297 401 308 q 681 285 582 285 l 890 953 m 603 46 l 675 256 q 542 264 607 256 q 390 290 476 272 q 508 178 454 240 q 603 46 556 122 z "},"I":{"ha":632,"x_min":-206,"x_max":588,"o":"m 569 960 q 588 831 588 904 q 575 724 588 776 q 538 564 556 643 q 481 393 514 475 q 453 336 476 382 q 444 318 450 331 l 549 290 l 546 274 l 435 293 q 408 242 418 260 q 353 151 378 183 q 207 29 286 67 q 46 -4 136 -4 q -72 10 -10 -4 q -206 46 -135 24 l -182 92 q -133 67 -151 75 q -47 33 -75 39 q 13 24 -19 28 q 64 19 46 19 q 219 71 149 19 q 279 133 251 94 q 308 177 288 146 q 358 268 329 208 q 382 319 367 286 q 311 410 333 357 q 289 528 289 463 q 349 775 289 640 q 447 942 396 882 q 526 981 482 981 q 540 979 536 979 q 560 972 553 975 q 569 960 567 968 m 388 342 q 504 575 446 458 q 564 843 564 711 q 565 870 564 851 q 567 897 567 889 q 561 934 567 921 q 538 953 556 947 l 518 957 q 478 938 499 954 q 442 896 457 921 q 404 822 418 857 q 378 738 390 786 q 343 610 360 675 q 326 497 326 546 q 340 414 326 451 q 388 342 354 376 z "},"J":{"ha":589,"x_min":-293,"x_max":526,"o":"m 442 976 q 502 949 478 982 q 526 874 526 915 q 482 575 526 731 q 375 296 447 454 l 429 293 q 424 280 426 285 q 410 263 422 275 q 383 257 392 258 q 356 256 375 256 q 314 171 329 203 q 228 19 264 72 q 158 -79 178 -54 q 76 -168 124 -124 q -10 -249 3 -237 q -157 -328 -90 -318 q -199 -332 -178 -332 q -231 -327 -218 -332 q -256 -310 -244 -322 q -293 -210 -293 -271 q -225 -25 -293 -128 q -74 142 -164 67 q -13 183 -44 165 q 57 219 18 201 q 180 265 119 249 q 310 290 240 282 q 415 565 372 428 q 481 843 458 703 q 485 870 485 864 q 486 892 486 876 q 481 926 486 913 q 464 948 476 939 q 442 957 451 957 q 375 897 415 957 q 340 840 358 872 q 313 773 322 807 q 297 701 304 739 q 286 635 290 664 q 282 582 282 607 q 283 559 282 569 q 285 531 283 549 q 299 471 288 514 q 310 432 301 457 l 271 385 q 253 453 258 417 q 247 531 247 489 q 294 778 247 654 q 399 953 342 903 q 418 968 414 965 q 442 976 428 975 m -32 -225 q 153 -7 76 -118 q 285 244 238 115 q -47 108 114 221 q -261 -157 -218 -11 q -268 -208 -268 -178 q -248 -281 -268 -251 q -185 -310 -228 -310 q -103 -283 -144 -310 q -32 -225 -81 -269 z "},"K":{"ha":950,"x_min":-331,"x_max":1014,"o":"m 947 971 l 1014 971 q 903 851 958 911 q 669 604 751 689 q 467 401 528 457 q 455 388 458 394 q 447 372 451 381 q 724 40 594 181 l 726 29 l 686 0 q 410 333 551 146 q 406 343 407 336 q 404 356 406 350 q 583 561 493 458 q 764 765 674 664 q 947 971 854 867 m 486 936 l 553 976 q 506 775 510 793 q 449 574 474 644 q 356 361 414 475 q 317 285 336 324 q 274 217 297 247 q 108 56 186 104 q -108 -3 15 -3 q -225 10 -168 -3 q -331 38 -294 29 l -293 71 q -246 53 -264 58 q -153 28 -190 33 q -85 24 -117 24 q -17 32 -57 24 q 93 76 47 46 q 228 222 149 114 q 269 292 253 256 q 304 367 286 329 q 393 588 356 474 q 486 936 407 629 z "},"L":{"ha":794,"x_min":-204,"x_max":808,"o":"m 746 976 q 794 940 779 968 q 808 874 808 913 q 807 840 808 853 q 797 784 806 826 q 767 676 789 742 q 746 618 760 656 l 683 603 q 740 731 711 667 q 771 871 771 807 q 758 922 771 904 q 704 946 742 946 q 673 943 690 946 q 624 897 656 940 q 573 808 607 874 q 492 610 539 743 q 406 365 414 386 q 296 131 350 219 q 356 107 333 115 q 469 67 431 78 q 565 47 507 57 q 594 43 575 46 l 556 3 q 532 3 547 3 q 486 8 517 4 q 338 56 425 18 q 258 94 308 68 q 119 11 200 44 q -37 -22 38 -22 q -157 10 -110 -22 q -204 81 -204 42 q -183 135 -204 110 q -132 174 -161 161 q -72 193 -103 188 q -12 199 -40 199 q 37 196 6 199 q 103 189 68 193 q 203 165 138 185 q 265 144 226 158 q 383 426 303 225 q 506 717 464 626 q 632 936 574 863 q 672 967 649 956 q 722 979 694 979 q 746 976 729 979 m -103 3 q -33 -3 -71 -3 q 231 100 115 -3 q 122 135 175 121 q 8 160 68 150 q -17 162 -6 161 q -36 163 -28 163 q -140 142 -97 163 q -182 81 -182 122 q -178 56 -182 74 q -149 21 -174 38 q -103 3 -129 8 z "},"M":{"ha":1079,"x_min":-14,"x_max":1007,"o":"m 974 876 q 1007 813 1007 856 q 1003 780 1007 797 q 993 738 1000 763 q 913 472 961 619 q 817 182 864 324 q 726 -103 756 -1 l 689 -68 q 769 215 724 68 q 863 496 806 331 q 956 765 908 631 q 964 790 960 775 q 968 822 968 806 q 947 863 968 849 q 922 871 938 868 q 883 859 900 872 q 854 822 867 846 q 713 567 781 686 q 585 340 624 410 q 461 108 507 201 q 388 6 435 49 q 367 3 381 0 q 351 28 351 4 q 353 46 351 36 q 356 65 354 56 q 431 326 379 185 q 531 581 451 382 q 626 840 594 739 q 629 876 632 864 q 614 899 625 890 q 594 907 603 907 q 546 878 575 907 q 524 854 535 865 q 490 819 503 836 q 458 776 476 803 q 236 393 338 583 q 46 0 135 203 l -6 0 q 121 399 54 172 q 233 800 182 604 q 247 853 244 840 q 250 879 250 867 q 238 926 250 903 q 206 949 226 949 q 182 939 197 949 q 144 897 161 922 q 114 846 125 864 q 56 731 76 786 q 19 610 35 676 l -14 640 q 39 797 -1 721 q 136 931 79 874 q 171 961 157 951 q 210 975 190 975 q 222 974 218 975 q 263 938 247 967 q 276 891 274 915 q 278 853 278 867 q 279 831 279 840 q 268 726 279 782 q 188 425 235 572 q 79 114 142 278 q 244 453 153 283 q 436 776 332 614 q 503 864 469 829 q 594 925 549 913 q 619 929 610 929 q 658 908 646 929 q 671 850 671 886 q 663 789 671 821 q 574 525 629 668 q 464 265 531 415 q 410 82 426 176 l 421 82 q 558 338 489 210 q 699 592 643 494 q 851 846 768 715 q 932 888 878 888 q 974 876 954 888 z "},"N":{"ha":822,"x_min":-17,"x_max":757,"o":"m 429 -94 q 492 117 451 -1 q 565 328 528 222 q 642 569 614 469 q 682 714 669 669 q 711 851 701 785 q 714 872 714 865 q 711 885 714 876 q 674 907 701 907 q 617 889 647 907 q 567 846 586 871 q 300 446 435 676 q 65 0 183 246 l 14 0 q 146 454 89 246 q 263 911 208 682 q 267 933 267 922 q 258 956 267 947 q 239 956 253 961 q 197 922 211 943 q 168 863 181 888 q 19 558 93 710 l -17 594 q 60 753 19 678 q 151 903 94 817 q 188 950 178 940 q 244 976 214 976 l 268 974 q 293 953 286 968 q 300 917 300 939 q 297 880 300 896 q 293 854 294 864 q 89 106 224 472 q 478 768 256 447 q 550 871 514 819 q 657 928 599 928 q 728 913 700 928 q 757 860 757 897 q 756 825 757 842 q 749 789 756 808 q 658 483 711 651 q 563 178 575 219 q 481 -131 507 -7 q 453 -117 472 -131 q 429 -94 433 -103 z "},"O":{"ha":894,"x_min":-25,"x_max":843,"o":"m 507 979 q 535 981 517 981 q 703 931 628 981 q 813 794 778 882 q 843 619 843 708 q 754 315 843 464 q 519 61 671 175 q 455 25 488 38 q 390 1 422 13 q 265 -26 326 -26 q 129 13 190 -26 q 21 140 63 56 q -25 350 -25 235 q 83 711 -25 540 q 382 953 200 893 q 451 974 426 968 q 507 979 475 979 m 672 276 q 742 458 715 357 q 769 656 769 560 q 729 857 769 771 q 651 935 704 910 q 536 960 599 960 q 193 767 339 960 q 40 382 65 597 q 36 321 36 350 q 69 167 36 239 q 172 33 101 96 q 210 17 186 21 q 246 10 233 13 q 269 8 258 8 q 292 8 279 8 q 515 90 407 8 q 672 276 611 163 z "},"P":{"ha":689,"x_min":-142,"x_max":683,"o":"m 553 976 q 654 911 621 963 q 683 796 683 865 q 670 701 683 751 q 636 611 657 650 q 606 559 631 600 q 555 486 581 518 q 493 418 529 454 q 356 310 428 353 q 293 276 324 290 q 219 247 263 263 q 147 222 163 226 q 76 211 110 211 l 92 256 q 267 285 190 256 q 421 385 344 315 q 481 450 456 417 q 529 526 500 475 q 568 594 564 588 q 594 667 586 631 q 610 751 603 704 q 618 829 618 797 q 603 908 618 881 q 540 953 583 943 q 507 957 524 957 q 428 936 465 957 q 310 836 400 921 q 240 751 274 803 q 203 692 228 732 q 106 501 144 599 q 35 301 74 421 q -31 85 15 242 q -94 -131 -46 32 q -121 -97 -106 -119 q -142 -68 -131 -82 q 12 401 -50 168 q 106 885 74 635 l 108 925 q 168 947 135 947 q 92 518 149 739 q 217 750 151 657 q 410 942 301 872 q 524 979 467 979 q 553 976 533 979 z "},"Q":{"ha":861,"x_min":-51,"x_max":801,"o":"m 546 976 q 731 879 656 976 q 801 669 801 788 q 800 640 801 651 q 794 608 799 629 q 771 464 782 536 q 714 322 750 390 q 581 138 653 208 q 407 28 510 68 q 478 -55 435 -18 q 567 -103 521 -92 l 546 -133 q 441 -81 490 -119 q 358 6 392 -43 q 299 -4 333 0 q 238 -8 265 -8 q 85 22 147 -8 q -19 131 13 57 q -51 310 -51 206 q 1 580 -51 440 q 139 808 53 719 q 201 865 186 851 q 276 917 239 896 q 403 964 340 951 q 546 976 465 976 m 675 382 q 699 447 689 415 q 719 526 708 478 q 738 671 738 599 q 680 878 738 799 q 521 957 622 957 q 165 790 311 957 q 3 413 32 638 q -6 288 -6 350 q 20 130 -6 196 q 111 32 46 64 l 128 28 q 94 104 94 57 q 121 175 94 144 q 190 206 147 206 q 311 153 250 211 q 396 43 350 117 q 564 174 496 82 q 675 382 617 244 m 144 28 q 190 8 167 14 q 242 3 213 3 q 297 8 272 3 q 342 19 322 13 q 282 108 310 78 q 189 161 235 161 q 163 158 179 161 q 133 135 147 156 q 118 88 118 115 q 144 28 118 49 z "},"R":{"ha":746,"x_min":-149,"x_max":743,"o":"m 624 979 q 714 926 685 971 q 743 822 743 882 q 735 757 743 789 q 660 612 713 678 q 524 486 608 546 q 459 447 493 464 q 382 413 425 431 q 165 350 268 365 l 144 336 l 219 244 q 368 104 271 188 q 456 32 400 76 q 437 12 453 29 q 417 -14 421 -6 q 336 58 365 32 q 196 196 240 146 q 151 239 165 226 q 117 290 126 263 q 108 308 115 293 q 100 331 100 324 q 106 344 100 333 l 122 361 q 247 393 224 386 q 379 450 314 414 q 455 496 422 474 q 521 549 488 518 q 638 669 607 629 q 694 817 688 736 q 696 843 696 826 q 682 910 696 883 q 642 947 668 938 q 590 956 615 956 q 519 940 554 956 q 450 893 485 924 q 393 844 421 868 q 315 756 349 804 q 163 514 233 633 q 46 303 106 418 q -49 113 -3 210 l -103 -14 l -149 14 q 16 474 -57 244 q 144 942 89 703 l 214 965 q 3 285 114 600 q 129 531 85 450 q 282 765 208 672 q 474 942 375 882 q 537 969 501 958 q 606 981 572 981 q 624 979 617 979 z "},"S":{"ha":794,"x_min":-214,"x_max":783,"o":"m 651 979 q 742 953 700 979 q 783 885 783 928 q 761 815 783 850 q 711 751 753 803 q 644 689 686 721 q 603 660 631 678 l 549 689 q 646 755 604 719 q 732 849 688 790 q 740 869 738 856 q 743 896 743 883 q 711 947 743 931 q 635 963 679 963 q 617 963 625 963 q 599 960 604 960 q 388 911 461 942 q 228 783 286 869 q 201 708 201 744 q 208 665 201 690 q 268 583 221 618 q 388 501 351 526 q 496 404 447 458 q 549 321 529 367 q 569 228 569 275 q 532 119 569 167 q 376 15 471 42 q 196 -3 313 -3 l 131 -3 q -33 15 49 -3 q -214 65 -115 32 l -174 108 q 7 48 -92 71 q 196 25 106 25 q 432 71 328 25 q 483 136 463 85 q 503 246 503 188 q 483 333 503 303 q 174 610 328 471 q 160 635 164 626 q 151 663 151 650 q 257 858 151 774 q 475 960 346 929 q 651 979 563 979 z "},"T":{"ha":847,"x_min":-111,"x_max":1003,"o":"m 231 953 q 362 974 300 968 q 485 979 424 979 q 626 976 525 979 q 751 974 728 974 q 863 976 813 974 q 981 982 913 978 q 994 982 989 982 q 1003 979 999 982 l 976 924 q 914 921 976 921 q 844 921 878 921 q 776 922 810 921 q 754 922 763 922 q 739 919 746 922 q 693 693 701 732 q 618 450 664 565 q 581 353 599 401 q 532 261 561 308 q 367 72 453 135 q 157 -3 281 10 q 17 10 82 -3 q -111 54 -47 24 l -71 92 q 144 19 31 19 q 325 76 242 19 q 393 138 361 101 q 442 206 419 167 q 603 568 544 383 q 683 919 646 708 q 433 935 553 935 q 294 929 358 935 q 157 908 229 924 q 92 888 117 900 q 57 849 68 876 q 53 829 53 838 q 90 775 53 799 q 168 746 121 756 q 261 731 185 742 q 315 722 281 728 l 276 683 q 137 713 207 683 q 38 792 67 742 q 25 833 25 815 q 44 878 25 858 q 92 913 64 899 q 155 935 121 926 q 231 953 189 944 z "},"U":{"ha":807,"x_min":0,"x_max":789,"o":"m 732 947 l 789 953 q 546 3 635 500 l 488 28 l 513 133 l 629 610 q 513 354 576 472 q 361 119 443 225 q 267 33 321 68 q 149 -8 203 -8 q 82 12 111 -8 q 40 62 53 32 q 28 124 28 92 q 32 171 28 147 q 85 406 53 288 q 158 643 108 492 q 239 879 199 761 q 244 928 249 907 q 236 956 244 949 q 216 955 228 963 q 196 936 204 947 q 35 663 106 803 l 0 697 l 32 771 q 79 844 50 806 q 131 911 104 878 q 181 961 153 943 q 239 979 208 979 q 294 919 294 979 q 290 876 294 901 q 215 624 271 779 q 131 374 150 443 q 89 119 89 229 q 120 63 89 82 q 194 43 151 43 q 208 43 201 43 q 228 47 218 46 q 260 61 239 49 q 299 88 267 65 q 368 153 340 117 q 421 236 388 178 q 601 593 531 431 q 732 947 672 756 z "},"V":{"ha":768,"x_min":6,"x_max":828,"o":"m 760 953 l 828 982 q 705 588 781 776 q 521 222 629 400 q 440 100 460 124 q 310 6 388 36 q 253 -7 281 -7 q 174 40 201 -7 q 153 94 158 65 q 147 154 147 124 q 149 190 147 179 q 177 422 156 261 q 207 671 199 582 q 222 919 222 825 q 215 953 222 943 q 188 960 208 964 q 86 810 140 951 q 38 683 61 746 l 6 726 q 53 830 28 776 q 117 928 79 883 q 136 957 126 942 q 167 975 147 969 q 200 981 186 981 q 251 953 239 981 q 267 906 264 926 q 271 854 271 885 q 264 671 271 757 q 244 479 257 585 q 217 268 231 374 q 206 185 211 226 q 205 153 206 168 q 204 125 204 139 q 205 94 204 103 q 211 68 206 86 q 272 22 222 22 q 290 25 279 22 q 353 57 326 35 q 432 146 358 61 q 482 215 457 174 q 526 290 492 231 q 678 624 622 453 q 760 953 719 751 z "},"W":{"ha":1207,"x_min":8,"x_max":1250,"o":"m 1193 963 l 1250 979 q 1163 672 1210 801 q 1013 361 1107 522 q 954 265 972 293 q 888 174 922 217 q 811 74 849 124 q 711 3 771 26 q 649 -11 674 -11 q 612 1 625 -11 q 589 43 599 14 q 569 146 569 97 q 592 472 569 306 q 646 776 608 594 q 503 423 588 583 q 282 82 419 263 q 229 22 254 46 q 185 -3 197 -8 q 160 8 161 7 q 144 38 144 21 q 172 440 144 233 q 244 836 194 603 q 254 876 249 854 q 260 913 260 897 q 233 960 260 949 q 212 959 222 964 q 185 942 201 954 q 94 822 129 899 q 40 689 67 756 l 8 726 q 24 760 18 747 q 92 874 60 833 q 154 944 136 928 q 224 981 193 981 q 256 971 240 981 q 274 953 263 967 q 294 888 294 926 q 293 860 294 869 q 260 603 276 728 q 226 358 228 367 q 199 103 208 219 q 196 72 196 83 q 211 40 196 44 q 233 53 218 39 q 267 96 247 68 q 497 489 379 249 q 694 976 626 749 l 740 976 q 662 537 689 750 q 635 106 635 324 q 638 64 635 81 q 656 33 642 47 q 686 19 669 19 q 768 67 719 19 q 836 146 796 94 q 1057 535 965 315 q 1193 963 1136 725 z "},"X":{"ha":719,"x_min":-190,"x_max":735,"o":"m 669 965 l 735 965 q 700 931 714 944 q 571 800 603 835 q 424 633 525 753 q 344 540 394 599 l 333 521 q 365 391 349 454 q 406 254 382 328 q 443 129 424 192 q 486 6 450 106 l 429 0 q 389 114 411 51 q 351 231 372 164 q 288 472 317 342 l -125 0 l -190 0 l 279 496 q 228 738 257 626 q 194 849 211 796 q 157 960 189 865 l 217 965 l 257 829 q 293 692 276 761 q 325 550 310 622 l 538 808 l 669 965 z "},"Y":{"ha":822,"x_min":-71,"x_max":800,"o":"m 749 925 l 800 928 q 660 449 743 688 q 469 -28 578 210 q 339 -204 417 -133 q 128 -310 247 -287 q 49 -318 82 -318 l 31 -318 q 0 -315 24 -318 q -56 -306 -24 -312 q -71 -301 -61 -304 l -51 -256 q 4 -268 -17 -264 q 106 -282 72 -282 q 242 -255 185 -282 q 339 -165 299 -228 q 476 121 410 -40 q 586 421 538 268 q 675 726 624 539 q 491 406 593 561 q 268 108 389 251 q 190 31 218 54 q 96 -12 138 -12 q 48 3 69 -12 q 21 30 26 19 q 13 52 15 40 q 9 81 11 64 q 7 113 7 97 q 14 169 7 139 q 28 231 21 200 q 89 479 47 350 q 169 699 114 556 q 239 893 224 843 q 247 933 247 918 q 231 957 247 956 q 193 936 211 960 q 28 665 99 813 l -3 711 q 63 832 47 807 q 151 936 104 899 q 189 965 179 960 q 229 978 210 978 q 251 974 238 978 q 273 953 264 971 q 282 907 282 935 q 279 868 282 883 q 268 822 276 853 q 199 583 242 721 q 124 347 161 465 q 57 106 81 204 q 53 72 53 89 q 64 27 53 49 q 97 6 75 6 q 178 49 128 6 q 247 119 217 82 q 531 503 403 296 q 749 925 651 697 z "},"Z":{"ha":822,"x_min":-210,"x_max":869,"o":"m 319 703 l 299 667 q 126 708 183 678 q 49 786 69 739 q 42 819 42 804 q 60 868 42 846 q 181 956 107 931 q 318 974 235 974 q 625 967 525 974 q 814 944 725 960 q 836 940 825 942 q 857 928 850 936 q 865 893 869 911 q 447 521 681 679 q 225 363 294 415 q 36 199 136 293 q -54 108 0 164 q -103 57 -72 90 q 201 60 15 57 q 408 63 388 63 q 568 51 463 63 q 668 39 604 49 l 674 -32 q 515 -18 611 -32 q 224 17 278 17 q 63 11 150 17 q -179 -3 -156 -3 q -210 7 -210 -3 q -195 27 -210 13 q -179 43 -181 42 q -162 57 -168 51 q 133 334 -14 213 q 499 603 281 456 q 615 690 557 642 q 782 839 649 718 q 800 865 797 854 l 800 888 q 758 896 774 893 q 681 911 700 908 q 453 929 560 929 q 326 924 388 929 q 190 908 265 919 q 107 873 147 900 q 67 815 67 846 q 74 791 67 803 q 92 772 82 779 q 122 757 103 764 q 249 719 171 738 q 319 703 283 711 z "},"[":{"ha":540,"x_min":-57,"x_max":432,"o":"m 432 976 l 432 960 l 342 960 l -6 -274 l 79 -274 l 79 -293 l -57 -293 l 296 976 l 432 976 z "},"\\":{"ha":846,"x_min":63,"x_max":740,"o":"m 149 888 l 740 -19 l 665 -19 l 63 888 l 149 888 z "},"]":{"ha":540,"x_min":-111,"x_max":382,"o":"m 242 979 l 382 979 l 25 -293 l -111 -293 l -111 -276 l -19 -276 l 328 963 l 242 965 l 242 979 z "},"^":{"ha":461,"x_min":-40,"x_max":242,"o":"m 154 578 q 188 476 167 525 q 242 372 208 426 l 233 367 q 178 426 203 397 q 133 489 153 456 q 58 421 101 453 q -28 367 31 400 l -40 372 q 54 471 7 417 q 139 578 101 525 l 154 578 z "},"_":{"ha":846,"x_min":0,"x_max":846,"o":"m 0 -74 l 846 -74 l 843 -111 l 0 -111 l 0 -74 z "},"`":{"ha":461,"x_min":56,"x_max":240,"o":"m 201 418 q 231 392 210 410 q 240 383 233 389 q 228 364 232 367 q 119 443 168 394 q 56 553 61 501 q 69 578 61 569 q 86 583 81 583 q 109 572 100 583 q 121 546 118 561 q 139 489 121 510 q 163 460 157 468 q 180 440 169 451 q 201 418 190 428 z "},"a":{"ha":413,"x_min":-149,"x_max":233,"o":"m 219 94 l 233 94 q 183 25 224 57 q 94 -3 142 -7 q 67 8 75 -3 q 58 40 58 19 q 71 106 58 68 q 92 160 76 124 q 26 60 58 110 q -74 -3 -17 6 q -127 17 -106 -7 q -149 82 -149 42 q -146 108 -149 89 q -75 232 -131 182 q 35 289 -28 276 q 106 294 60 294 q 140 292 124 294 l 128 265 q 85 269 104 269 q -58 197 -4 269 q -103 79 -103 139 q -61 35 -103 35 q -29 43 -49 35 q 24 86 3 58 q 63 146 47 124 q 132 258 85 178 q 151 290 139 271 l 185 290 q 164 224 171 249 q 122 103 144 163 q 113 78 118 94 q 108 54 108 63 q 117 33 108 39 q 132 28 126 28 q 151 32 144 31 q 207 75 178 38 q 219 94 211 81 z "},"b":{"ha":361,"x_min":-142,"x_max":160,"o":"m 92 853 l 146 849 l -54 190 q 10 258 -31 226 q 96 296 58 296 q 141 277 122 296 q 160 226 160 258 q 129 128 160 181 q 61 50 99 76 q -15 9 24 24 q -97 -6 -53 -6 q -119 0 -110 -6 q -142 36 -142 13 q -139 57 -142 40 q -51 382 -110 179 q 79 814 13 603 l 92 853 m 76 119 q 101 172 92 144 q 111 222 111 199 q 97 260 111 249 q 65 268 83 272 q 4 229 33 260 q -46 163 -15 208 q -83 99 -67 131 q -104 40 -104 60 q -90 14 -104 19 q -64 8 -75 8 q -29 17 -47 8 q -3 29 -11 25 q 50 78 28 44 q 76 119 67 104 z "},"c":{"ha":307,"x_min":-151,"x_max":131,"o":"m 97 296 q 119 285 111 290 q 131 268 126 279 l 106 250 q 74 269 89 264 q 44 275 60 275 q -20 249 11 275 q -74 185 -51 222 q -97 136 -87 161 q -106 89 -106 111 q -74 29 -106 49 q -43 21 -58 21 q 0 33 -25 21 q 57 71 25 46 q 88 97 68 79 l 92 85 q 19 24 51 46 q -68 -11 -31 -11 q -112 2 -92 -11 q -142 33 -133 15 q -151 75 -151 50 q -127 163 -151 117 q -64 246 -103 208 q 25 297 -25 283 q 61 300 39 300 q 97 296 89 300 z "},"d":{"ha":413,"x_min":-151,"x_max":350,"o":"m 285 836 l 350 874 l 139 171 q 125 124 136 158 q 114 72 114 90 q 122 42 114 56 q 146 32 129 29 q 192 60 171 38 q 231 106 213 83 q 222 71 231 88 q 160 15 192 35 q 113 0 135 0 q 89 6 99 0 q 65 51 65 18 q 72 95 65 65 q 79 128 79 125 q 14 42 51 76 q -79 -3 -33 -3 q -117 6 -97 -3 q -151 75 -151 21 q -108 204 -151 138 q 3 290 -64 271 q 60 299 35 299 q 125 285 93 299 q 208 567 165 422 q 285 836 251 711 m -43 19 q 49 108 0 31 q 117 242 79 157 q 113 263 121 250 q 79 279 104 276 q -49 218 4 286 q -94 89 -94 158 q -80 37 -94 60 q -43 19 -65 14 z "},"e":{"ha":307,"x_min":-147,"x_max":97,"o":"m 92 106 l 85 82 q 11 22 49 46 q -81 -11 -42 -11 q -110 -5 -97 -11 q -133 17 -124 1 q -147 65 -147 39 q -129 137 -147 97 q -90 206 -111 176 q -39 261 -69 236 q 17 294 -3 290 q 47 297 38 297 q 72 292 58 297 q 91 276 85 288 q 97 246 97 264 q 76 185 97 210 q -1 115 43 144 q -94 68 -40 90 q -90 35 -99 51 q -58 18 -82 18 q -19 28 -42 18 q 27 52 3 39 q 65 76 51 65 q 92 106 78 88 m -92 82 q 6 140 -39 101 q 68 236 58 186 q 40 276 74 267 q 8 271 19 281 q -92 82 -92 194 z "},"f":{"ha":256,"x_min":-242,"x_max":279,"o":"m 236 956 q 275 936 272 956 q 278 906 278 917 q 279 882 279 896 q 226 643 279 776 q 108 422 181 529 q -14 213 36 314 l -29 182 q 49 213 21 199 q 92 242 61 219 l 94 222 q -35 157 32 181 q -97 -51 -65 49 q -168 -262 -129 -151 l -242 -287 q -89 151 -149 -76 l -119 157 l -108 186 l -71 208 q 10 533 -31 408 q 151 868 63 701 q 176 915 164 892 q 236 956 201 956 m 196 865 q 89 592 139 738 q 3 304 39 447 q 28 333 19 322 q 68 390 54 365 q 201 670 140 517 q 263 888 263 824 q 257 915 263 908 q 226 910 247 932 q 196 865 206 889 z "},"g":{"ha":413,"x_min":-149,"x_max":193,"o":"m 185 106 l 193 92 l 103 8 q 93 -33 97 -18 q 38 -179 68 -126 q -7 -258 15 -218 q -68 -307 -33 -297 q -90 -310 -82 -310 q -132 -293 -115 -310 q -149 -243 -149 -276 q -146 -217 -149 -236 q -99 -131 -137 -174 q 46 -8 -82 -112 q 71 64 60 26 q 82 131 82 101 q 14 49 56 88 q -82 -1 -40 -1 q -128 17 -108 -1 q -143 40 -137 25 q -149 68 -149 54 q -135 128 -149 97 q -100 188 -121 160 q -3 268 -57 239 q 113 297 51 297 q 142 296 132 297 l 171 290 l 165 261 q 96 276 133 276 q -35 215 22 276 q -92 76 -92 154 q -80 44 -92 54 q -51 33 -68 33 q -14 46 -32 33 q 54 113 26 75 q 128 236 65 128 l 154 231 l 114 43 l 185 106 m -6 -187 q 26 -96 11 -156 q 38 -43 31 -76 q -58 -131 -19 -87 q -128 -242 -107 -185 q -131 -258 -131 -253 q -116 -288 -131 -278 q -89 -299 -101 -299 q -37 -261 -57 -299 q -6 -187 -21 -224 z "},"h":{"ha":413,"x_min":-151,"x_max":225,"o":"m 225 106 q 172 30 215 69 q 92 -10 128 -10 q 68 -3 79 -10 q 51 29 51 10 q 79 133 51 78 q 117 206 97 169 q 122 233 122 215 q 106 271 122 260 q 91 270 101 274 q 76 265 81 267 q -18 160 42 246 q -108 0 -78 75 l -151 0 q 92 836 -54 413 l 151 849 l -68 117 q -6 228 -36 172 q 88 290 38 290 q 140 269 124 290 q 157 218 157 249 q 151 176 157 204 q 122 106 144 149 q 94 38 100 63 q 108 21 90 21 q 159 44 133 21 q 203 97 185 67 q 225 106 215 106 z "},"i":{"ha":228,"x_min":-131,"x_max":51,"o":"m 28 472 q 47 458 42 468 q 51 436 51 447 q 43 415 51 426 q 18 404 32 404 q -3 411 7 404 q -12 438 -12 418 q 11 475 -12 472 l 28 472 m 29 111 l 33 89 q -10 22 4 39 q -79 -8 -42 -14 q -126 33 -121 -3 q -131 78 -131 68 q -106 179 -131 126 q -57 282 -81 232 l -3 293 q -37 192 -26 226 q -74 53 -74 81 q -69 36 -74 43 q -49 32 -65 29 q -12 53 -31 35 q 29 111 -7 58 z "},"j":{"ha":206,"x_min":-260,"x_max":40,"o":"m 19 472 q 37 460 33 468 q 40 443 40 453 q 29 422 40 431 q 6 414 18 414 q -25 432 -17 414 q -22 456 -29 442 q 6 472 -14 469 l 19 472 m -65 274 l -11 290 l -89 38 l -19 100 l -14 88 l -106 -8 q -153 -176 -142 -144 q -215 -307 -183 -272 q -243 -311 -229 -321 q -259 -290 -258 -296 q -260 -269 -260 -285 q -251 -232 -260 -249 q -233 -199 -242 -215 q -133 40 -169 -58 q -65 274 -90 160 z "},"k":{"ha":385,"x_min":-154,"x_max":190,"o":"m 106 290 q 129 293 114 293 q 174 278 157 293 q 190 238 190 263 q 179 199 190 221 q 57 103 139 129 q 133 22 78 44 l 100 -6 l 8 68 l 6 92 q 97 150 58 114 q 144 233 144 193 q 131 254 144 246 q 101 263 117 263 q 82 258 90 263 q -12 181 28 233 q -111 0 -22 168 l -154 0 l 89 836 l 149 863 q 42 488 94 665 q -76 103 -11 310 q 3 215 -17 192 q 106 290 54 276 z "},"l":{"ha":256,"x_min":-117,"x_max":285,"o":"m 261 950 q 285 885 285 918 q 282 851 285 865 q 265 792 269 813 q 235 694 251 735 q 190 603 232 688 q 104 450 149 518 q 6 319 71 400 l -49 82 q -54 49 -54 60 q -49 33 -54 38 q -37 28 -44 28 q -19 32 -28 28 q 36 74 7 40 q 60 106 46 85 l 65 92 q 39 57 49 68 q -16 10 7 19 q -49 -3 -39 0 q -67 -6 -58 -6 q -87 0 -78 -6 q -108 42 -108 13 q -108 56 -108 50 q -103 79 -107 61 l -74 217 l -117 182 q -107 204 -112 197 l -68 250 q 17 617 -3 557 q 214 939 83 822 q 239 953 229 951 q 261 950 257 956 m 253 822 q 263 860 260 846 q 265 888 265 874 q 258 919 265 906 q 238 917 247 918 q 217 888 222 901 q 102 633 153 768 q 19 364 51 499 q 107 488 68 426 q 185 632 151 558 q 225 725 214 694 q 253 822 242 768 z "},"m":{"ha":589,"x_min":-151,"x_max":418,"o":"m 407 106 l 418 92 q 388 56 400 68 q 319 6 350 17 q 294 -3 310 1 q 271 -7 279 -7 q 250 -2 261 -7 q 239 19 239 3 q 256 107 239 54 q 293 256 293 225 q 288 272 293 269 q 275 272 283 274 q 242 251 256 268 q 151 129 193 194 q 79 0 121 81 l 25 0 q 68 114 63 100 q 103 231 89 171 q 106 250 106 242 q 92 271 106 271 q 53 253 74 272 q 17 208 46 246 q -51 106 -21 160 q -108 0 -81 51 l -151 0 l -87 268 q -80 281 -86 276 q -62 290 -74 286 q -49 293 -51 293 q -32 290 -43 293 q -56 183 -43 231 q -85 76 -62 156 q -31 171 -51 140 q 43 263 -1 215 q 74 287 60 279 q 104 294 88 294 q 122 291 113 294 q 142 274 132 288 q 146 250 146 265 l 146 231 q 131 144 146 197 q 114 97 126 128 q 185 208 151 163 q 268 293 233 275 q 293 299 279 299 q 327 283 313 299 q 342 242 342 268 q 326 147 342 196 q 296 51 311 99 q 299 29 290 35 q 331 31 311 19 q 370 65 351 43 q 407 106 389 86 z "},"n":{"ha":413,"x_min":-151,"x_max":219,"o":"m 217 106 l 219 92 q 159 20 190 44 q 103 -4 128 -4 q 80 1 93 -4 q 60 19 67 6 q 53 51 53 33 q 59 83 53 63 q 82 144 65 104 q 114 219 99 183 q 121 247 121 238 q 108 276 121 261 l 106 279 q 54 253 83 289 q 25 214 33 225 q -65 79 -8 171 q -114 0 -83 50 l -151 3 l -74 285 l -19 296 l -76 94 l 38 256 q 72 289 54 279 q 114 301 90 299 q 150 288 131 304 q 165 253 169 272 q 136 149 157 204 q 99 51 111 85 q 99 32 93 38 q 114 26 106 26 q 135 33 118 26 q 168 53 153 40 q 217 106 183 65 z "},"o":{"ha":333,"x_min":-146,"x_max":133,"o":"m 46 299 q 113 272 92 299 q 133 201 133 244 q 117 122 133 163 q 47 33 94 68 q -57 -1 0 -1 q -99 6 -76 -1 q -134 35 -122 13 q -146 85 -146 58 q -87 229 -146 160 q 46 299 -29 299 m -89 29 q -60 18 -78 18 q 2 44 -32 18 q 56 100 36 69 q 85 159 75 131 q 96 215 96 188 q 65 272 96 263 q 22 276 35 281 l 0 265 q -85 190 -49 236 q -121 99 -121 143 q -89 29 -121 60 z "},"p":{"ha":413,"x_min":-242,"x_max":204,"o":"m -3 208 q 48 267 14 243 q 118 292 82 292 q 171 274 147 292 q 204 199 204 250 q 149 64 204 132 q 26 -4 93 -4 q -2 -1 8 -4 q -31 15 -12 1 q -51 29 -49 28 l -44 53 q 15 26 -17 26 q 74 49 46 26 q 120 108 103 72 q 142 154 138 143 q 156 211 156 189 q 146 253 156 233 q 111 272 136 272 q 58 256 85 272 q 19 214 32 239 q -99 -47 -51 74 q -182 -296 -147 -168 l -242 -310 q -149 -13 -194 -165 q -65 288 -104 139 l -6 299 q -32 219 -22 249 q -75 72 -60 132 l -82 43 l -3 208 z "},"q":{"ha":413,"x_min":-157,"x_max":228,"o":"m 217 106 l 228 94 l 122 8 q 131 -89 131 -36 q 107 -226 131 -172 q 17 -304 78 -292 q -1 -306 10 -306 q -38 -293 -25 -306 q -49 -262 -51 -281 q 17 -25 -32 -153 q 74 114 29 7 q 44 81 56 93 q -11 22 8 40 q -81 -11 -46 -11 q -128 12 -108 -11 q -151 65 -149 35 q -87 206 -157 135 q 65 296 -18 276 q 114 301 88 301 q 165 288 151 301 q 167 269 167 283 q 167 246 167 254 l 150 260 q 93 278 126 278 q -35 213 28 278 q -97 81 -97 147 q -94 57 -97 71 q -83 39 -92 43 q -67 35 -75 35 q -15 53 -44 35 q 38 94 14 71 q 100 182 67 124 q 128 236 111 201 l 165 231 l 92 28 l 128 32 l 217 106 m 28 -282 q 88 -228 68 -274 q 103 -125 103 -190 q 99 -60 103 -93 q 89 11 96 -26 q 56 -76 67 -44 q 6 -225 15 -183 q 1 -253 1 -250 q 28 -282 1 -287 z "},"r":{"ha":285,"x_min":-144,"x_max":111,"o":"m 60 290 q 85 290 67 293 q 111 249 111 285 q 97 193 111 222 q 67 154 83 164 l 54 163 q 60 182 58 175 q 67 222 67 210 q 51 247 67 247 q 29 243 36 247 q -32 147 13 232 q -103 0 -71 74 l -144 0 l -89 271 l -32 290 l -68 106 q -21 208 -28 196 q 60 290 14 271 z "},"s":{"ha":285,"x_min":-164,"x_max":61,"o":"m 43 347 q 57 333 47 346 q 61 319 61 326 q 47 290 61 304 q 14 265 33 276 q 54 128 54 200 q 41 60 54 89 q -3 14 28 31 q -87 -10 -42 -10 q -157 22 -133 -10 q -162 43 -164 36 q -139 58 -161 58 q -114 51 -125 58 q -74 19 -93 35 q -47 15 -61 15 q -8 35 -24 15 q 8 66 3 49 q 13 104 13 83 q 3 173 13 136 q -14 244 -6 210 l -25 244 l -122 142 l -131 144 l -17 274 q -8 319 -17 300 q 18 343 0 338 q 43 347 36 349 z "},"t":{"ha":228,"x_min":-142,"x_max":94,"o":"m 0 364 l 94 364 l 92 339 l -3 339 q -39 233 -26 272 q -87 54 -79 110 q -79 32 -90 39 q -56 25 -68 25 q 8 67 -29 25 q 40 103 24 85 l 46 89 q -17 26 19 53 q -94 -6 -58 -6 q -116 -1 -100 -6 q -137 13 -132 3 q -142 40 -142 22 l -142 54 q -100 214 -142 85 q -57 339 -86 257 l -94 339 l -89 364 l -51 364 l 8 572 l 63 583 l 0 364 z "},"u":{"ha":413,"x_min":-132,"x_max":228,"o":"m 222 97 l 228 82 q 181 28 204 54 q 114 -8 143 -8 q 88 0 100 -8 q 67 50 67 14 q 72 94 67 65 q 94 176 78 122 q 111 228 100 194 q 71 158 86 183 q -14 38 22 79 q -28 22 -17 35 q -46 3 -39 8 q -83 -8 -61 -8 q -129 13 -126 -8 q -132 54 -132 35 q -122 138 -132 93 q -74 285 -111 183 l -19 293 q -42 228 -33 253 q -76 110 -69 146 q -89 43 -82 74 q -87 25 -89 33 q -74 17 -85 17 q -47 28 -62 17 q -19 54 -31 40 q 63 174 39 138 q 128 290 100 231 l 176 290 l 119 54 q 125 35 117 42 q 142 32 129 32 q 197 64 167 32 q 222 97 207 74 z "},"v":{"ha":333,"x_min":-125,"x_max":165,"o":"m 119 285 l 165 288 q -8 19 103 147 q -64 -6 -31 -6 q -103 11 -90 -6 q -125 86 -125 39 q -108 186 -125 128 q -74 285 -100 217 l -19 293 q -58 186 -39 239 q -82 75 -82 117 q -71 19 -82 46 q -54 8 -64 8 q -24 20 -40 8 q 0 46 -8 32 q 67 167 38 107 q 119 285 97 226 z "},"w":{"ha":513,"x_min":-114,"x_max":328,"o":"m 290 288 l 328 293 q 264 125 303 194 q 136 0 211 29 q 111 -6 119 -6 q 71 17 85 -6 q 57 71 57 40 q 60 106 57 92 q 64 129 63 121 l 65 144 q 24 83 44 114 q -79 -3 -32 -7 q -103 11 -92 -3 q -114 40 -114 25 q -108 144 -114 101 q -83 250 -103 188 q -78 270 -81 260 q -71 288 -75 281 q -45 293 -58 290 q -22 296 -32 296 q -50 211 -42 243 q -79 60 -79 113 q -81 39 -81 46 q -71 19 -81 22 q -49 22 -61 17 q 49 143 3 63 q 114 288 81 201 l 160 293 q 123 184 138 232 q 97 79 108 136 q 93 49 93 64 q 108 23 93 26 q 129 19 122 19 q 207 79 172 19 q 239 144 215 94 q 274 236 253 175 q 290 288 279 254 z "},"x":{"ha":285,"x_min":-187,"x_max":106,"o":"m 76 285 l 106 285 l 0 163 l 28 0 l -17 0 l -43 114 l -151 -3 l -187 -3 l -49 139 l -79 279 l -32 285 l -3 190 l 76 285 z "},"y":{"ha":413,"x_min":-133,"x_max":185,"o":"m 182 103 l 185 89 l 106 8 l 43 -179 q -3 -269 24 -237 q -83 -311 -37 -311 q -115 -306 -96 -311 q -133 -275 -133 -301 q -112 -214 -133 -251 q -74 -154 -100 -192 q -25 -99 -53 -125 q 28 -51 10 -68 l 46 -22 q 67 43 60 18 q 100 165 92 124 l 108 211 q 76 157 88 176 q 18 65 40 96 q -25 18 -4 35 q -78 -6 -53 -6 q -103 1 -90 -6 q -122 25 -115 8 q -129 61 -129 42 q -128 79 -129 74 q -106 181 -119 128 q -74 285 -92 233 l -19 293 q -56 183 -42 233 q -82 76 -71 133 q -86 43 -83 60 q -78 21 -86 28 q -61 14 -71 14 q -36 25 -49 14 q -11 54 -24 36 q 60 162 25 103 q 131 290 96 221 l 179 290 l 119 51 l 182 103 m -3 -214 q 22 -125 10 -185 q 32 -74 25 -107 q -65 -181 -18 -114 q -106 -282 -117 -253 q -78 -296 -100 -296 q -51 -287 -61 -296 q -29 -265 -40 -279 q -3 -214 -18 -250 z "},"z":{"ha":307,"x_min":-179,"x_max":128,"o":"m -79 282 l 128 288 q 14 161 67 217 q -111 43 -46 99 l 68 43 l 51 0 l -179 3 l -165 22 l 68 244 l -89 242 l -79 282 z "},"{":{"ha":586,"x_min":-14,"x_max":572,"o":"m 490 983 l 572 951 l 529 951 l 518 942 l 496 942 l 450 918 l 418 886 l 418 874 l 399 854 l 386 799 l 376 790 l 376 744 l 343 603 l 322 524 l 289 460 l 267 438 l 247 415 l 235 415 l 106 363 l 94 350 l 169 317 l 201 282 l 201 274 l 225 204 l 213 186 l 213 143 l 201 99 l 193 67 l 181 57 l 181 13 l 160 -74 l 149 -81 l 160 -92 l 149 -107 l 149 -172 l 160 -185 l 160 -204 l 193 -236 l 201 -236 l 235 -249 l 279 -260 l 279 -281 l 160 -281 l 150 -269 l 126 -269 l 106 -260 l 74 -226 l 74 -204 l 63 -194 l 63 -86 l 74 -81 l 63 -71 l 138 214 l 126 263 l 82 307 l 74 307 l 31 328 l -14 328 l -14 361 l -6 369 l 31 369 l 106 393 l 126 404 l 193 469 l 193 479 l 214 501 l 260 622 l 260 668 l 279 765 l 301 842 l 335 897 l 376 939 l 399 939 l 419 961 l 463 961 l 475 974 l 490 983 z "},"|":{"ha":153,"x_min":40,"x_max":113,"o":"m 113 1038 l 113 -312 l 40 -312 l 40 1038 l 113 1038 z "},"}":{"ha":403,"x_min":-224,"x_max":376,"o":"m 376 361 l 376 328 l 363 318 l 331 318 l 257 294 l 232 286 l 168 219 l 168 208 l 144 186 l 113 76 l 101 67 l 101 22 l 79 -74 l 58 -150 l 26 -204 l -17 -249 l -37 -249 l -61 -269 l -106 -269 l -114 -281 l -224 -281 l -157 -249 l -136 -249 l -93 -226 l -37 -162 l -17 -97 l -17 -51 l 17 88 l 38 164 l 71 229 l 81 229 l 94 250 l 104 250 l 113 274 l 265 338 l 265 350 l 232 350 l 193 372 l 160 404 l 160 415 l 136 486 l 144 501 l 144 549 l 160 588 l 179 631 l 179 678 l 214 768 l 200 781 l 214 797 l 214 865 l 200 874 l 200 897 l 168 929 l 160 929 l 126 942 l 81 951 l 81 974 l 200 974 l 211 961 l 232 961 l 257 951 l 289 918 l 289 897 l 297 886 l 297 778 l 289 768 l 297 760 l 232 485 l 225 475 l 232 426 l 275 382 l 289 382 l 322 369 l 331 361 l 376 361 z "},"~":{"ha":707,"x_min":-1,"x_max":672,"o":"m 672 350 l 672 294 l 660 286 l 649 286 l 628 263 l 585 254 l 572 242 l 540 242 l 531 231 l 419 231 l 411 242 l 379 242 l 346 254 l 292 275 l 236 294 l 150 294 l 136 286 l 104 286 l -1 231 l -1 282 l 6 294 l 43 317 l 86 328 l 139 350 l 247 350 l 260 338 l 292 338 l 419 294 l 431 282 l 519 282 l 531 294 l 563 294 l 672 350 z "},"":{"ha":768,"x_min":-74,"x_max":764,"o":"m 492 239 q 453 357 492 317 q 394 394 442 368 q 326 422 361 413 q 257 431 292 431 q 169 402 185 431 q 112 223 153 374 q 56 0 71 72 l -22 -6 q 44 257 -4 86 q 160 610 104 467 q 235 811 183 669 q 279 933 250 856 q 139 916 226 933 q -12 865 51 899 l -74 913 q 139 962 7 950 q 451 974 271 974 q 538 970 508 974 q 617 954 568 967 q 696 931 682 936 q 749 883 733 914 q 764 839 764 853 q 760 810 764 829 q 704 713 746 744 q 608 685 668 685 l 578 740 q 606 746 596 744 q 662 765 639 754 q 708 786 685 775 q 739 847 739 803 q 676 914 739 893 q 576 929 631 929 q 470 930 528 929 q 347 932 413 931 q 325 861 333 889 q 239 603 275 707 q 222 560 232 585 q 190 475 207 521 q 224 481 206 479 q 261 482 242 482 q 342 474 304 482 q 411 453 379 467 q 479 404 443 440 q 524 351 503 381 q 553 250 553 313 q 510 103 553 176 q 403 -1 468 31 q 343 -29 360 -22 q 256 -47 301 -47 l 258 3 q 413 68 340 3 q 492 239 492 140 z "},"":{"ha":847,"x_min":-111,"x_max":1003,"o":"m 231 961 q 344 975 293 971 q 429 979 394 979 q 523 976 457 979 q 613 974 589 974 q 783 978 649 974 q 961 982 918 982 q 990 982 979 982 q 1003 979 1000 982 l 976 924 q 942 922 976 922 q 879 921 907 921 q 767 921 822 921 q 660 922 713 921 q 621 922 635 922 q 600 919 607 922 q 556 694 578 807 q 508 517 533 581 q 456 388 482 454 q 393 261 422 307 q 241 74 317 139 q 97 1 165 8 q 75 0 86 0 q 58 0 64 0 q -43 21 6 0 q -111 54 -85 42 l -71 92 q 74 29 19 29 q 144 47 108 29 q 195 76 160 54 q 295 197 231 99 q 406 396 360 296 q 476 571 453 496 q 512 726 496 633 q 544 919 528 819 q 441 931 486 926 q 360 935 396 935 q 275 929 318 935 q 157 908 232 924 q 95 889 118 901 q 61 849 72 876 q 57 828 57 838 q 93 775 57 799 q 168 746 122 756 q 261 731 185 742 q 315 722 281 728 l 276 683 q 137 713 207 683 q 38 792 67 742 q 24 839 24 815 q 40 884 24 865 q 86 918 57 903 q 231 961 153 949 m 731 1242 l 551 1060 l 535 1074 l 674 1260 l 731 1242 z "},"":{"ha":413,"x_min":-149,"x_max":233,"o":"m 219 94 l 233 94 q 183 25 224 57 q 94 -3 142 -7 q 67 8 75 -3 q 58 40 58 19 q 71 106 58 68 q 92 160 76 124 q 26 60 58 110 q -74 -3 -17 6 q -127 17 -106 -7 q -149 82 -149 42 q -146 108 -149 89 q -75 232 -131 182 q 35 289 -28 276 q 106 294 60 294 q 140 292 124 294 l 128 265 q 85 269 104 269 q -58 197 -4 269 q -103 79 -103 139 q -61 35 -103 35 q -29 43 -49 35 q 24 86 3 58 q 63 146 47 124 q 132 258 85 178 q 151 290 139 271 l 185 290 q 164 224 171 249 q 122 103 144 163 q 113 78 118 94 q 108 54 108 63 q 117 33 108 39 q 132 28 126 28 q 151 32 144 31 q 207 75 178 38 q 219 94 211 81 m 179 481 l 61 357 l 50 368 l 133 493 l 179 481 z "},"":{"ha":228,"x_min":-154,"x_max":107,"o":"m 99 111 l 103 89 q 60 22 74 39 q -10 -8 28 -14 q -44 11 -31 -6 q -58 50 -58 28 q -24 172 -58 79 q 7 276 10 265 q -8 286 6 286 q -36 280 -21 286 q -72 263 -51 274 q -108 239 -104 242 q -131 215 -119 231 l -154 246 q -98 288 -128 272 q -47 306 -68 303 q -12 310 -26 308 q 4 311 1 311 q 39 306 26 311 q 54 289 51 301 q 26 179 56 279 q -4 53 -4 79 q 0 36 -4 43 q 21 32 4 29 q 57 53 39 35 q 99 111 63 58 m 107 481 l -11 357 l -22 368 l 61 493 l 107 481 z "},"":{"ha":768,"x_min":-74,"x_max":764,"o":"m 419 -3 q 460 104 443 44 q 486 239 476 164 q 488 269 488 250 q 449 375 488 333 q 381 417 422 403 q 275 431 339 431 q 205 423 235 431 q 167 400 175 415 q 112 223 153 374 q 56 0 71 72 l -22 -3 q 44 258 -4 88 q 160 610 103 465 q 235 811 183 669 q 279 933 250 856 q 139 916 226 933 q -12 865 51 899 l -74 913 q 139 962 7 950 q 451 974 271 974 q 538 970 508 974 q 617 954 568 967 q 696 931 682 936 q 749 883 733 914 q 764 839 764 853 q 760 810 764 829 q 704 713 746 744 q 608 685 668 685 l 578 740 q 606 746 596 744 q 662 765 639 754 q 708 786 685 775 q 739 847 739 803 q 676 914 739 893 q 576 929 631 929 q 470 930 528 929 q 347 932 413 931 q 325 861 333 889 q 239 603 275 707 q 222 560 232 585 q 190 475 207 521 q 244 483 213 481 q 299 486 275 486 q 394 472 361 486 q 471 432 444 451 q 524 368 504 407 q 549 246 549 315 q 497 -1 549 150 l 419 -3 z "},"":{"ha":413,"x_min":-157,"x_max":226,"o":"m 115 258 q 65 267 94 267 q 32 265 49 267 q 6 261 15 263 l -17 186 l 136 181 l 103 156 l -19 156 l -61 0 l -121 0 q -111 50 -114 31 q -89 153 -101 101 q -110 156 -103 156 q -141 156 -125 156 q -157 157 -157 156 l -150 185 q -114 188 -149 188 q -79 192 -79 188 q -64 247 -69 229 q -38 296 -50 292 q -7 300 -26 300 q 33 299 18 299 l 132 299 q 207 276 178 299 q 226 254 215 269 l 189 228 q 150 246 172 239 q 115 258 128 253 z "},"":{"ha":950,"x_min":-331,"x_max":1014,"o":"m 486 936 l 553 976 q 506 775 510 793 q 449 574 474 644 q 356 361 414 475 q 317 285 336 324 q 274 217 297 247 q 108 56 186 104 q -108 -3 15 -3 q -225 10 -168 -3 q -331 38 -294 29 l -293 71 q -246 53 -264 58 q -153 28 -190 33 q -85 24 -117 24 q -17 32 -57 24 q 93 76 47 46 q 228 222 149 114 q 269 292 253 256 q 304 367 286 329 q 393 588 356 474 q 486 936 407 629 m 676 17 q 699 21 690 19 q 746 26 731 26 q 785 18 772 26 q 829 63 813 50 q 865 86 846 76 l 882 50 q 850 28 867 40 q 810 -3 833 17 q 844 -34 828 -10 q 860 -94 860 -58 q 826 -172 860 -136 q 746 -222 793 -208 q 718 -226 731 -226 q 667 -206 686 -226 q 649 -165 649 -186 q 696 -74 649 -129 q 750 -15 719 -46 q 711 -7 729 -7 q 683 -11 703 -7 q 658 -15 663 -15 q 549 138 628 21 q 410 333 463 263 q 406 343 407 336 q 404 356 406 350 q 583 561 493 458 q 764 765 674 664 q 947 971 854 867 l 1014 971 q 903 851 958 911 q 669 604 751 689 q 467 401 528 457 q 455 388 458 394 q 447 372 451 381 q 574 190 508 293 q 676 17 628 106 m 676 -175 q 718 -204 689 -204 q 768 -188 743 -204 q 810 -149 793 -172 q 826 -96 826 -125 q 813 -55 826 -72 q 781 -31 800 -37 q 711 -96 726 -81 q 674 -162 674 -136 q 676 -175 674 -167 z "},"":{"ha":243,"x_min":-151,"x_max":139,"o":"m 0 82 q -12 109 0 99 q -37 119 -24 119 q -51 114 -47 119 q -94 26 -71 90 q -104 0 -97 17 l -151 -4 l -71 293 l -19 296 l -62 136 l 42 260 q 67 282 56 274 q 99 294 83 294 q 139 278 118 294 l 117 256 q 88 265 101 265 q 61 256 74 265 q 25 214 56 251 l -26 150 q 26 128 7 150 q 42 94 42 111 q 42 69 42 82 q 36 47 39 57 q 33 33 33 38 q 58 8 33 8 q 96 40 76 25 q 124 58 115 56 l 133 29 q 110 16 119 21 q 90 1 101 11 q 111 -17 101 -3 q 119 -51 121 -32 q 101 -101 119 -79 q 54 -131 83 -122 q 36 -133 40 -133 q 7 -122 18 -133 q -3 -99 -4 -110 q 8 -56 -3 -78 q 39 -12 18 -33 q 7 -6 21 -12 q -8 11 -7 0 q -6 47 -11 28 q 0 82 0 67 m 14 -99 q 33 -118 18 -118 q 58 -109 44 -118 q 81 -83 71 -100 q 92 -51 92 -67 q 68 -18 92 -26 q 22 -68 33 -51 q 14 -99 11 -85 z "},"":{"ha":307,"x_min":-147,"x_max":125,"o":"m 92 106 l 85 82 q 11 22 49 46 q -81 -11 -42 -11 q -110 -5 -97 -11 q -133 17 -124 1 q -147 65 -147 39 q -129 137 -147 97 q -90 206 -111 176 q -39 261 -69 236 q 17 294 -3 290 q 47 297 38 297 q 72 292 58 297 q 91 276 85 288 q 97 246 97 264 q 76 185 97 210 q -1 115 43 144 q -94 68 -40 90 q -90 35 -99 51 q -58 18 -82 18 q -19 28 -42 18 q 27 52 3 39 q 65 76 51 65 q 92 106 78 88 m 125 481 l 7 357 l -4 368 l 79 493 l 125 481 m -92 82 q 6 140 -39 101 q 68 236 58 186 q 40 276 74 267 q 8 271 19 281 q -92 82 -92 194 z "},"":{"ha":413,"x_min":-132,"x_max":228,"o":"m 222 97 l 228 82 q 181 28 204 54 q 114 -8 143 -8 q 88 0 100 -8 q 67 50 67 14 q 72 94 67 65 q 94 176 78 122 q 111 228 100 194 q 71 158 86 183 q -14 38 22 79 q -28 22 -17 35 q -46 3 -39 8 q -83 -8 -61 -8 q -129 13 -126 -8 q -132 54 -132 35 q -122 138 -132 93 q -74 285 -111 183 l -19 293 q -42 228 -33 253 q -76 110 -69 146 q -89 43 -82 74 q -87 25 -89 33 q -74 17 -85 17 q -47 28 -62 17 q -19 54 -31 40 q 63 174 39 138 q 128 290 100 231 l 176 290 l 119 54 q 125 35 117 42 q 142 32 129 32 q 197 64 167 32 q 222 97 207 74 m 158 481 l 40 357 l 29 368 l 113 493 l 158 481 z "},"":{"ha":1422,"x_min":-99,"x_max":1379,"o":"m 829 154 q 878 396 829 233 q 976 686 913 511 q 1057 910 1050 889 q 933 874 994 910 q 863 818 896 851 q 799 717 842 797 q 713 546 750 625 q 626 358 669 451 q 469 115 554 200 q 211 -15 363 8 q 124 -24 161 -24 q 71 -18 97 -24 q -19 10 10 -6 q -99 81 -58 31 l -14 149 q 29 107 13 121 q 117 47 79 63 q 201 32 154 32 q 404 106 304 32 q 460 158 438 131 q 526 268 467 167 q 629 479 569 340 q 701 653 665 565 q 774 785 736 722 q 846 875 813 849 q 963 943 914 928 q 1093 958 1011 958 l 1174 978 q 1139 844 1153 894 q 1065 603 1100 703 q 1042 543 1056 576 q 1001 433 1029 510 q 947 280 974 356 q 919 139 919 204 q 924 84 919 117 q 953 34 929 51 q 1017 17 978 17 q 1085 27 1047 17 q 1160 54 1124 38 q 1274 126 1239 90 q 1318 236 1318 172 q 1276 331 1318 289 q 1214 376 1253 354 q 1133 407 1175 397 q 1058 417 1090 417 q 1036 417 1047 417 q 1022 414 1025 414 q 1032 429 1029 424 q 1060 479 1054 465 q 1094 483 1075 483 q 1186 471 1138 483 q 1232 456 1206 465 q 1306 404 1269 440 q 1350 351 1329 381 q 1379 261 1379 311 q 1348 154 1379 206 q 1276 74 1317 103 q 1165 17 1235 46 q 1036 -19 1082 -19 q 892 1 929 -19 q 829 154 829 36 z "},"":{"ha":333,"x_min":-146,"x_max":138,"o":"m 46 299 q 113 272 92 299 q 133 201 133 244 q 117 122 133 163 q 47 33 94 68 q -57 -1 0 -1 q -99 6 -76 -1 q -134 35 -122 13 q -146 85 -146 58 q -87 229 -146 160 q 46 299 -29 299 m 138 481 l 19 357 l 8 368 l 92 493 l 138 481 m -89 29 q -60 18 -78 18 q 2 44 -32 18 q 56 100 36 69 q 85 159 75 131 q 96 215 96 188 q 65 272 96 263 q 22 276 35 281 l 0 265 q -85 190 -49 236 q -121 99 -121 143 q -89 29 -121 60 z "},"":{"ha":1525,"x_min":-83,"x_max":1467,"o":"m 1315 456 q 1389 404 1353 440 q 1433 351 1413 381 q 1458 301 1450 328 q 1467 250 1467 275 q 1437 149 1467 196 q 1357 68 1407 101 q 1284 29 1325 49 q 1195 1 1243 10 q 1123 -12 1147 -8 q 1064 -15 1099 -15 q 975 3 1008 -15 q 933 69 942 21 q 931 103 931 89 q 963 299 931 174 q 996 411 972 340 l 917 411 q 763 413 811 411 q 664 428 714 415 q 485 107 600 215 q 231 -8 382 11 q 176 -12 199 -12 q 141 -10 160 -12 q 84 -1 122 -8 q 19 14 46 6 q -83 63 -21 28 l -49 97 q -1 72 -19 81 q 90 35 57 43 q 200 21 146 21 q 316 42 261 21 q 424 108 371 63 q 474 160 453 133 q 529 258 494 188 q 665 569 603 408 q 771 897 726 729 q 810 919 792 911 q 857 942 840 933 q 783 707 804 772 q 690 475 749 601 q 778 464 732 468 q 867 460 824 460 q 1026 474 943 460 l 1188 982 l 1279 983 q 1235 849 1251 899 q 1149 603 1201 749 q 1130 556 1142 585 q 1101 478 1118 528 q 1144 482 1117 482 q 1239 474 1188 482 q 1315 456 1290 465 m 1076 410 q 1032 249 1049 324 q 1015 115 1015 175 q 1021 59 1015 82 q 1046 24 1026 36 q 1094 13 1065 13 q 1163 23 1126 13 q 1243 54 1200 33 q 1357 126 1322 90 q 1401 236 1401 172 q 1365 333 1401 292 q 1299 380 1338 365 q 1203 403 1260 394 q 1110 413 1147 413 q 1076 410 1090 413 z "},"":{"ha":950,"x_min":-331,"x_max":1014,"o":"m 947 971 l 1014 971 q 903 851 958 911 q 669 604 751 689 q 467 401 528 457 q 455 388 458 394 q 447 372 451 381 q 724 40 594 181 l 726 29 l 686 0 q 410 333 551 146 q 406 343 407 336 q 404 356 406 350 q 583 561 493 458 q 764 765 674 664 q 947 971 854 867 m 486 936 l 553 976 q 506 775 510 793 q 449 574 474 644 q 356 361 414 475 q 317 285 336 324 q 274 217 297 247 q 108 56 186 104 q -108 -3 15 -3 q -225 10 -168 -3 q -331 38 -294 29 l -293 71 q -246 53 -264 58 q -153 28 -190 33 q -85 24 -117 24 q -17 32 -57 24 q 93 76 47 46 q 228 222 149 114 q 269 292 253 256 q 304 367 286 329 q 393 588 356 474 q 486 936 407 629 m 896 1242 l 717 1060 l 700 1074 l 839 1260 l 896 1242 z "},"":{"ha":768,"x_min":-74,"x_max":764,"o":"m 419 -3 q 460 104 443 44 q 486 239 476 164 q 488 269 488 250 q 449 375 488 333 q 381 417 422 403 q 275 431 339 431 q 205 423 235 431 q 167 400 175 415 q 112 223 153 374 q 56 0 71 72 l -22 -3 q 44 258 -4 88 q 160 610 103 465 q 235 811 183 669 q 279 933 250 856 q 139 916 226 933 q -12 865 51 899 l -74 913 q 139 962 7 950 q 451 974 271 974 q 538 970 508 974 q 617 954 568 967 q 696 931 682 936 q 749 883 733 914 q 764 839 764 853 q 760 810 764 829 q 704 713 746 744 q 608 685 668 685 l 578 740 q 606 746 596 744 q 662 765 639 754 q 708 786 685 775 q 739 847 739 803 q 676 914 739 893 q 576 929 631 929 q 470 930 528 929 q 347 932 413 931 q 325 861 333 889 q 239 603 275 707 q 222 560 232 585 q 190 475 207 521 q 244 483 213 481 q 299 486 275 486 q 394 472 361 486 q 471 432 444 451 q 524 368 504 407 q 549 246 549 315 q 497 -1 549 150 l 419 -3 z "},"":{"ha":819,"x_min":0,"x_max":789,"o":"m 172 -7 q 127 -1 158 -3 q 79 14 96 1 q 40 62 53 32 q 28 124 28 92 q 32 171 28 147 q 85 406 53 288 q 158 643 108 492 q 239 879 199 761 q 244 928 249 907 q 236 956 244 949 q 216 955 228 963 q 196 936 204 947 q 35 663 106 803 l 0 697 l 32 771 q 79 844 50 806 q 131 911 104 878 q 181 961 153 943 q 239 979 208 979 q 294 919 294 979 q 290 876 294 901 q 215 624 271 779 q 131 374 150 443 q 89 119 89 229 q 120 63 89 82 q 194 43 151 43 q 208 43 201 43 q 228 47 218 46 q 260 61 239 49 q 299 88 267 65 q 368 153 340 117 q 421 236 388 178 q 601 593 531 431 q 732 947 672 756 l 789 953 q 656 479 718 746 q 557 -3 603 257 q 548 -1 553 -1 q 542 -1 543 -1 q 528 -3 533 -1 q 492 -10 503 -10 q 499 46 493 -1 q 513 133 506 93 q 582 442 533 260 q 629 610 599 504 q 515 354 574 467 q 367 119 447 222 q 303 55 340 86 q 226 7 267 24 q 254 -8 244 -3 q 301 -32 290 -28 q 350 17 326 -3 q 388 44 374 38 l 404 8 q 372 -13 389 -1 q 332 -44 356 -25 q 366 -76 350 -51 q 382 -136 382 -100 q 349 -214 382 -178 q 268 -264 315 -250 q 240 -268 253 -268 q 190 -248 208 -268 q 171 -207 171 -228 q 218 -115 171 -171 q 272 -57 242 -87 q 226 -32 260 -51 q 172 -7 193 -12 m 199 -217 q 240 -246 211 -246 q 290 -230 265 -246 q 332 -190 315 -214 q 349 -137 349 -167 q 335 -97 349 -114 q 303 -72 322 -79 q 233 -137 249 -122 q 196 -204 196 -178 q 199 -217 196 -208 z "},"":{"ha":413,"x_min":-189,"x_max":342,"o":"m 71 57 q 97 120 92 103 q 114 197 101 138 q 119 236 119 214 q 106 271 119 263 q 91 270 101 274 q 76 265 81 267 q -18 160 42 246 q -108 0 -78 75 l -151 0 q -97 214 -125 108 q -37 431 -57 365 q 28 643 -25 471 q -3 644 15 644 q -40 644 -21 644 q -123 644 -89 644 q -189 643 -157 644 l -174 674 q -153 676 -174 675 q -125 678 -133 678 q -66 677 -96 678 q -7 676 -36 676 l 13 676 q 42 681 39 676 l 92 836 l 151 849 l 97 675 l 342 675 l 333 644 l 83 644 l -68 117 q -6 228 -36 172 q 88 290 38 290 q 149 263 128 290 q 165 203 165 240 q 163 174 165 183 q 147 107 154 140 q 124 55 139 81 q 89 7 110 29 q 61 -18 75 -8 q -44 -39 32 -39 l -33 -22 q 71 57 36 -22 z "},"":{"ha":847,"x_min":-111,"x_max":1003,"o":"m 231 961 q 344 975 293 971 q 429 979 394 979 q 523 976 457 979 q 613 974 589 974 q 783 978 649 974 q 961 982 918 982 q 990 982 979 982 q 1003 979 1000 982 l 976 924 q 942 922 976 922 q 879 921 907 921 q 767 921 822 921 q 660 922 713 921 q 621 922 635 922 q 600 919 607 922 q 556 694 578 807 q 508 517 533 581 q 456 388 482 454 q 393 261 422 307 q 241 74 317 139 q 97 1 165 8 q 75 0 86 0 q 58 0 64 0 q -43 21 6 0 q -111 54 -85 42 l -71 92 q 74 29 19 29 q 144 47 108 29 q 195 76 160 54 q 295 197 231 99 q 406 396 360 296 q 476 571 453 496 q 512 726 496 633 q 544 919 528 819 q 441 931 486 926 q 360 935 396 935 q 275 929 318 935 q 157 908 232 924 q 95 889 118 901 q 61 849 72 876 q 57 828 57 838 q 93 775 57 799 q 168 746 122 756 q 261 731 185 742 q 315 722 281 728 l 276 683 q 137 713 207 683 q 38 792 67 742 q 24 839 24 815 q 40 884 24 865 q 86 918 57 903 q 231 961 153 949 m 731 1242 l 551 1060 l 535 1074 l 674 1260 l 731 1242 z "},"":{"ha":950,"x_min":-331,"x_max":1014,"o":"m 947 971 l 1014 971 q 903 851 958 911 q 669 604 751 689 q 467 401 528 457 q 455 388 458 394 q 447 372 451 381 q 724 40 594 181 l 726 29 l 686 0 q 410 333 551 146 q 406 343 407 336 q 404 356 406 350 q 583 561 493 458 q 764 765 674 664 q 947 971 854 867 m 486 936 l 553 976 q 506 775 510 793 q 449 574 474 644 q 356 361 414 475 q 317 285 336 324 q 274 217 297 247 q 108 56 186 104 q -108 -3 15 -3 q -225 10 -168 -3 q -331 38 -294 29 l -293 71 q -246 53 -264 58 q -153 28 -190 33 q -85 24 -117 24 q -17 32 -57 24 q 93 76 47 46 q 228 222 149 114 q 269 292 253 256 q 304 367 286 329 q 393 588 356 474 q 486 936 407 629 m 896 1242 l 717 1060 l 700 1074 l 839 1260 l 896 1242 z "},"":{"ha":243,"x_min":-151,"x_max":150,"o":"m 117 256 q 88 265 101 265 q 61 256 74 265 q 25 214 56 251 l -26 150 q 25 130 8 150 q 42 86 42 110 q 42 55 42 69 q 45 30 42 40 q 61 19 49 19 q 86 28 69 19 q 114 47 103 38 q 138 71 125 57 l 140 57 q 103 15 126 33 q 31 -11 68 -11 q 0 6 11 -11 q -11 63 -11 22 q -19 106 -11 92 q -40 119 -28 119 q -51 114 -47 119 q -94 26 -71 90 q -104 0 -97 17 l -151 -4 l -71 293 l -19 296 l -62 136 l 42 260 q 67 282 56 274 q 99 294 83 294 q 139 278 118 294 l 117 256 m 150 485 l 32 361 l 21 372 l 104 497 l 150 485 z "},"":{"ha":413,"x_min":-189,"x_max":342,"o":"m 225 106 q 172 30 215 69 q 92 -10 128 -10 q 68 -3 79 -10 q 51 29 51 10 q 79 133 51 78 q 117 206 97 169 q 122 233 122 215 q 106 271 122 260 q 91 270 101 274 q 76 265 81 267 q -18 160 42 246 q -108 0 -78 75 l -151 0 q -97 214 -125 108 q -37 431 -57 365 q 28 643 -25 471 q -3 644 15 644 q -40 644 -21 644 q -123 644 -89 644 q -189 643 -157 644 l -174 674 q -153 676 -174 675 q -125 678 -133 678 q -66 677 -96 678 q -7 676 -36 676 l 13 676 q 42 681 39 676 l 92 836 l 151 849 l 97 675 l 342 675 l 333 644 l 83 644 l -68 117 q -6 228 -36 172 q 88 290 38 290 q 140 269 124 290 q 157 218 157 249 q 151 176 157 204 q 122 106 144 149 q 94 38 100 63 q 108 21 90 21 q 159 44 133 21 q 203 97 185 67 q 225 106 215 106 z "},"":{"ha":389,"x_min":121,"x_max":278,"o":"m 235 538 q 271 503 258 526 q 278 476 278 490 q 247 429 278 449 q 182 410 217 410 q 142 420 158 410 q 123 445 125 431 q 121 475 121 460 q 128 503 121 490 q 147 524 135 517 q 179 538 158 531 q 213 543 204 543 q 235 538 224 543 z "},"":{"ha":528,"x_min":-6,"x_max":493,"o":"m 493 160 l 493 128 l -6 128 l -6 160 l 493 160 z "},"":{"ha":1410,"x_min":-17,"x_max":1378,"o":"m 1378 160 l 1378 128 l -8 128 l -17 128 l -17 160 l 1369 160 l 1378 160 z "},"":{"ha":413,"x_min":-249,"x_max":179,"o":"m -124 -250 q -56 -235 -99 -256 q -2 -192 -12 -215 q 24 -107 8 -168 q 46 -22 44 -26 q 75 71 67 43 q 100 165 92 124 l 108 211 q 76 157 88 176 q 18 65 40 96 q -25 18 -4 35 q -78 -6 -53 -6 q -103 1 -90 -6 q -122 25 -115 8 q -129 61 -129 42 q -128 79 -129 74 q -106 181 -119 128 q -74 285 -92 233 l -19 293 q -56 183 -42 233 q -82 76 -71 133 q -86 43 -83 60 q -78 21 -86 28 q -61 14 -71 14 q -36 25 -49 14 q -11 54 -24 36 q 60 162 25 103 q 131 290 96 221 l 179 290 q 156 190 164 228 q 106 8 131 90 q 40 -179 72 -85 q -31 -258 24 -229 q -142 -287 -86 -287 q -200 -282 -185 -287 q -249 -247 -215 -276 l -217 -208 q -169 -237 -176 -235 q -124 -250 -161 -240 m 151 488 l 33 364 l 22 375 l 106 500 l 151 488 z "},"":{"ha":719,"x_min":-190,"x_max":735,"o":"m 476 25 q 519 18 504 21 q 582 4 565 10 q 631 53 607 33 q 668 81 654 74 l 685 44 q 653 23 669 35 q 613 -8 636 11 q 647 -40 631 -15 q 663 -100 663 -64 q 629 -178 663 -142 q 549 -228 596 -214 q 521 -232 533 -232 q 470 -212 489 -232 q 451 -171 451 -192 q 499 -79 451 -135 q 553 -21 522 -51 q 530 -14 542 -15 q 499 -12 518 -12 q 465 -14 488 -12 q 433 -15 442 -15 q 402 72 424 10 q 351 231 381 135 q 288 472 317 342 l -125 0 l -190 0 l 279 496 q 228 738 257 626 q 194 849 211 796 q 157 960 189 865 l 217 965 l 257 829 q 293 692 276 761 q 325 550 310 622 l 538 808 l 669 965 l 735 965 q 700 931 714 944 q 571 800 603 835 q 424 633 525 753 q 344 540 394 599 l 333 521 q 365 391 349 454 q 406 254 382 328 q 431 167 422 194 q 476 25 451 96 m 479 -181 q 521 -210 492 -210 q 571 -194 546 -210 q 613 -154 596 -178 q 629 -101 629 -131 q 616 -60 629 -78 q 583 -36 603 -43 q 514 -101 529 -86 q 476 -168 476 -142 q 479 -181 476 -172 z "},"":{"ha":469,"x_min":-154,"x_max":371,"o":"m 83 43 q 82 63 82 49 q 117 188 82 99 q 131 235 132 228 q 64 151 97 193 q -22 19 21 85 q -50 -4 -35 3 q -82 -11 -65 -11 q -127 -1 -106 -11 q -154 24 -149 10 l -119 68 q -99 46 -107 53 q -81 39 -90 39 q -21 99 -60 39 q 72 219 7 143 q 160 303 143 303 q 190 303 178 303 q 217 304 203 303 l 179 193 q 211 219 190 211 q 263 226 232 226 q 323 216 294 226 q 361 190 351 206 q 371 149 371 175 q 355 81 371 114 q 306 33 339 49 q 246 8 274 17 q 157 -7 199 -7 q 124 -5 140 -7 q 99 6 107 -3 q 83 43 90 14 m 293 78 q 310 129 310 101 q 306 155 310 143 q 283 178 301 167 q 246 188 265 190 q 174 142 204 182 q 144 56 144 101 q 157 24 144 35 q 183 17 165 17 q 226 28 206 17 q 262 48 246 39 q 293 78 278 57 z "},"":{"ha":411,"x_min":-146,"x_max":319,"o":"m -14 304 l -51 193 q -19 219 -40 211 q 32 226 1 226 q 92 216 64 226 q 131 190 121 206 q 140 149 140 175 q 124 81 140 114 q 80 35 108 49 q -1 8 51 21 q -97 -6 -54 -6 q -119 0 -110 -6 q -146 40 -146 14 q -144 54 -146 49 q -110 176 -131 111 q -72 304 -90 242 l -14 304 m 315 92 l 319 69 q 276 14 299 33 q 218 -6 247 -11 q 184 12 196 -1 q 172 51 172 25 q 201 206 172 115 q 235 296 225 268 l 294 296 q 261 196 272 231 q 226 58 226 86 q 230 43 226 49 q 251 38 233 38 q 288 60 268 38 q 315 92 307 82 m 228 474 l 110 350 l 99 361 l 182 486 l 228 474 m 63 78 q 79 129 79 101 q 75 155 79 143 q 53 178 71 167 q 15 188 35 190 q -56 142 -26 182 q -86 56 -86 101 q -74 24 -86 35 q -47 17 -65 17 q -5 28 -25 17 q 31 48 15 39 q 63 78 47 57 z "},"":{"ha":493,"x_min":-124,"x_max":371,"o":"m 111 1 q 89 17 96 3 q 82 53 82 32 q 85 78 82 61 q 97 121 89 96 q 106 150 104 146 l -28 150 l -72 0 l -124 0 l -43 294 l 8 296 l -25 171 l 114 172 l 158 304 l 217 304 l 179 193 q 211 219 190 211 q 263 226 232 226 q 323 216 294 226 q 361 190 351 206 q 371 150 371 175 q 354 84 371 117 q 307 34 338 51 q 246 7 276 17 q 169 -3 215 -3 q 111 1 144 -3 m 293 78 q 310 129 310 101 q 306 155 310 143 q 283 178 301 167 q 246 188 265 190 q 174 142 204 182 q 144 56 144 101 q 157 24 144 35 q 183 17 165 17 q 226 28 206 17 q 262 48 246 39 q 293 78 278 57 z "},"":{"ha":243,"x_min":-151,"x_max":150,"o":"m 117 256 q 88 265 101 265 q 61 256 74 265 q 25 214 56 251 l -26 150 q 25 130 8 150 q 42 86 42 110 q 42 55 42 69 q 45 30 42 40 q 61 19 49 19 q 86 28 69 19 q 114 47 103 38 q 138 71 125 57 l 140 57 q 103 15 126 33 q 31 -11 68 -11 q 0 6 11 -11 q -11 63 -11 22 q -19 106 -11 92 q -40 119 -28 119 q -51 114 -47 119 q -94 26 -71 90 q -104 0 -97 17 l -151 -4 l -71 293 l -19 296 l -62 136 l 42 260 q 67 282 56 274 q 99 294 83 294 q 139 278 118 294 l 117 256 m 150 485 l 32 361 l 21 372 l 104 497 l 150 485 z "},"":{"ha":413,"x_min":-189,"x_max":342,"o":"m 225 106 q 172 30 215 69 q 92 -10 128 -10 q 68 -3 79 -10 q 51 29 51 10 q 79 133 51 78 q 117 206 97 169 q 122 233 122 215 q 106 271 122 260 q 91 270 101 274 q 76 265 81 267 q -18 160 42 246 q -108 0 -78 75 l -151 0 q -97 214 -125 108 q -37 431 -57 365 q 28 643 -25 471 q -3 644 15 644 q -40 644 -21 644 q -123 644 -89 644 q -189 643 -157 644 l -174 674 q -153 676 -174 675 q -125 678 -133 678 q -66 677 -96 678 q -7 676 -36 676 l 13 676 q 42 681 39 676 l 92 836 l 151 849 l 97 675 l 342 675 l 333 644 l 83 644 l -68 117 q -6 228 -36 172 q 88 290 38 290 q 140 269 124 290 q 157 218 157 249 q 151 176 157 204 q 122 106 144 149 q 94 38 100 63 q 108 21 90 21 q 159 44 133 21 q 203 97 185 67 q 225 106 215 106 z "},"":{"ha":413,"x_min":-132,"x_max":236,"o":"m -65 -4 l -85 -4 q -117 1 -104 -4 q -131 21 -129 7 q -132 54 -132 35 q -122 138 -132 93 q -74 285 -111 183 l -19 293 q -42 229 -35 253 q -76 111 -68 151 q -86 74 -83 88 q -89 47 -89 61 q -86 30 -89 39 q -72 21 -83 21 q -44 32 -61 21 q -19 54 -28 43 q 63 174 39 138 q 128 290 100 231 l 176 290 q 163 228 168 251 q 122 60 124 65 q 132 33 119 44 q 161 25 144 21 q 200 47 182 31 q 221 71 204 51 l 236 43 q 215 25 218 28 q 186 8 203 15 q 122 -6 151 -6 q 93 0 104 -6 q 67 53 67 14 q 72 95 67 68 q 94 176 78 122 q 111 228 100 194 q 79 178 92 197 q -39 10 6 65 q -25 5 -31 8 q -12 -8 -19 1 l 15 17 l 38 7 l 11 -15 q 35 -33 28 -25 q 49 -69 50 -50 q 31 -119 49 -97 q -17 -149 13 -140 q -35 -151 -31 -151 q -64 -140 -53 -151 q -74 -117 -75 -128 q -62 -69 -74 -94 q -28 -22 -50 -44 q -43 -8 -37 -12 q -65 -4 -49 -4 m -57 -117 q -37 -136 -53 -136 q -13 -127 -26 -136 q 9 -104 0 -118 q 18 -75 18 -90 q 10 -49 18 -60 q -11 -33 1 -37 q -47 -77 -35 -56 q -57 -117 -60 -99 z "},"":{"ha":694,"x_min":0,"x_max":0,"o":""},"":{"ha":642,"x_min":-206,"x_max":679,"o":"m 569 960 q 588 831 588 904 q 575 724 588 776 q 538 564 556 643 q 481 393 514 475 q 453 336 476 382 q 444 318 450 331 l 549 290 l 546 274 l 435 293 q 408 242 418 260 q 353 151 378 183 q 207 29 286 67 q 46 -4 136 -4 q -72 10 -10 -4 q -206 46 -135 24 l -182 92 q -133 67 -151 75 q -47 33 -75 39 q 13 24 -19 28 q 64 19 46 19 q 219 71 149 19 q 279 133 251 94 q 308 177 288 146 q 358 268 329 208 q 382 319 367 286 q 311 410 333 357 q 289 528 289 463 q 349 775 289 640 q 447 942 396 882 q 526 981 482 981 q 540 979 536 979 q 560 972 553 975 q 569 960 567 968 m 649 1163 q 672 1144 665 1158 q 679 1118 679 1131 q 667 1094 679 1107 q 638 1081 656 1081 q 613 1088 625 1081 q 600 1119 600 1094 q 608 1151 600 1138 q 629 1167 615 1164 q 649 1163 640 1167 m 453 1168 q 474 1151 469 1164 q 482 1124 482 1136 q 470 1099 482 1113 q 440 1086 458 1086 q 415 1093 428 1086 q 403 1125 403 1100 q 410 1156 403 1143 q 432 1172 418 1169 q 453 1168 443 1172 m 388 342 q 504 575 446 458 q 564 843 564 711 q 565 870 564 851 q 567 897 567 889 q 561 934 567 921 q 538 953 556 947 l 518 957 q 478 938 499 954 q 442 896 457 921 q 404 822 418 857 q 378 738 390 786 q 343 610 360 675 q 326 497 326 546 q 340 414 326 451 q 388 342 354 376 z "},"":{"ha":228,"x_min":-131,"x_max":97,"o":"m 74 472 q 92 458 88 468 q 97 436 97 447 q 89 415 97 426 q 64 404 78 404 q 43 411 53 404 q 33 438 33 418 q 57 475 33 472 l 74 472 m 29 111 l 33 89 q -10 22 4 39 q -79 -8 -42 -14 q -126 33 -121 -3 q -131 78 -131 68 q -106 179 -131 126 q -57 282 -81 232 l -3 293 q -37 192 -26 226 q -74 53 -74 81 q -69 36 -74 43 q -49 32 -65 29 q -12 53 -31 35 q 29 111 -7 58 m -51 472 q -33 458 -37 468 q -28 436 -28 447 q -36 415 -28 426 q -61 404 -47 404 q -82 411 -72 404 q -92 438 -92 418 q -68 475 -92 472 l -51 472 z "},"":{"ha":689,"x_min":-142,"x_max":683,"o":"m 553 976 q 654 911 621 963 q 683 796 683 865 q 670 701 683 751 q 636 611 657 650 q 606 559 631 600 q 555 486 581 518 q 493 418 529 454 q 356 310 428 353 q 293 276 324 290 q 219 247 263 263 q 147 222 163 226 q 76 211 110 211 l 92 256 q 267 285 190 256 q 421 385 344 315 q 481 450 456 417 q 529 526 500 475 q 568 594 564 588 q 594 667 586 631 q 610 751 603 704 q 618 829 618 797 q 603 908 618 881 q 540 953 583 943 q 507 957 524 957 q 428 936 465 957 q 310 836 400 921 q 240 751 274 803 q 203 692 228 732 q 106 501 144 599 q 35 301 74 421 q -31 85 15 242 q -94 -131 -46 32 q -121 -97 -106 -119 q -142 -68 -131 -82 q 12 401 -50 168 q 106 885 74 635 l 108 925 q 168 947 135 947 q 92 518 149 739 q 217 750 151 657 q 410 942 301 872 q 524 979 467 979 q 553 976 533 979 z "},"":{"ha":513,"x_min":-14,"x_max":382,"o":"m 197 71 q 118 246 171 154 q 8 407 76 318 q -14 501 -14 454 q -6 553 -14 528 q 59 636 15 600 q 157 692 103 672 q 133 735 140 725 q 122 744 125 746 l 179 792 q 244 658 207 726 q 358 472 281 589 q 382 385 382 431 q 333 265 382 319 q 211 188 283 210 q 242 140 233 163 q 254 83 251 117 l 197 71 m 199 211 q 300 254 260 221 q 347 346 347 292 q 344 369 347 353 q 331 404 340 385 q 313 436 322 424 q 225 576 281 490 q 171 660 197 618 q 68 619 110 649 q 19 532 19 585 q 25 499 19 524 l 29 483 l 199 211 z "},"":{"ha":847,"x_min":-111,"x_max":974,"o":"m 231 961 q 344 975 293 971 q 429 979 394 979 q 523 976 457 979 q 613 974 589 974 q 726 973 669 974 q 840 972 783 972 q 904 1015 886 972 q 914 1060 910 1029 q 954 1046 933 1053 q 974 1040 961 1044 q 947 982 960 1001 q 843 924 908 924 q 681 923 761 924 q 600 919 601 922 q 556 694 578 807 q 508 517 533 581 q 456 388 482 454 q 393 261 422 307 q 241 74 317 139 q 97 1 165 8 q 75 0 86 0 q 58 0 64 0 q -43 21 6 0 q -111 54 -85 42 l -71 92 q 74 29 19 29 q 144 47 108 29 q 195 76 160 54 q 295 197 231 99 q 406 396 360 296 q 476 571 453 496 q 512 726 496 633 q 544 919 528 819 q 441 931 486 926 q 360 935 396 935 q 275 929 318 935 q 157 908 232 924 q 95 889 118 901 q 61 849 72 876 q 57 828 57 838 q 93 775 57 799 q 168 746 122 756 q 261 731 185 742 q 315 722 281 728 l 276 683 q 137 713 207 683 q 38 792 67 742 q 24 839 24 815 q 40 884 24 865 q 86 918 57 903 q 231 961 153 949 z "},"":{"ha":153,"x_min":39,"x_max":113,"o":"m 111 300 l 113 -312 l 40 -312 l 39 301 l 111 300 m 39 438 l 40 1038 l 113 1038 l 111 439 l 39 438 z "},"":{"ha":513,"x_min":-187,"x_max":538,"o":"m 399 976 q 538 925 469 964 l 510 893 q 343 947 428 947 q 253 931 299 947 q 188 890 215 914 q 163 821 163 860 q 163 807 163 814 q 165 792 165 797 q 358 472 257 625 q 382 388 382 431 q 331 264 382 321 q 206 185 279 207 q 239 78 239 132 q 201 -22 239 22 q 113 -83 164 -61 q 10 -104 63 -104 q -19 -103 -10 -104 q -187 -43 -106 -82 l -160 -8 q 22 -75 -69 -75 q 128 -57 74 -75 q 183 -9 161 -40 q 204 58 204 22 q 203 74 204 68 q 119 243 167 161 q 8 407 71 325 q -14 501 -14 454 q -6 553 -14 528 q 59 636 15 600 q 157 692 103 672 q 137 744 144 717 q 129 794 129 772 q 165 893 129 844 q 256 956 201 935 q 371 978 311 978 q 399 976 389 978 m 199 211 q 300 254 260 221 q 347 346 347 292 q 344 369 347 353 q 331 404 340 385 q 313 436 322 424 q 225 576 281 490 q 171 660 197 618 q 68 619 110 649 q 19 532 19 585 q 25 499 19 524 l 29 483 l 199 211 z "},"":{"ha":719,"x_min":-132,"x_max":733,"o":"m 615 979 q 698 953 663 979 q 733 892 733 928 q 732 876 733 882 q 679 764 724 836 q 635 697 665 740 l 603 738 q 675 876 639 807 q 683 915 683 899 q 669 942 683 935 q 606 954 644 954 q 507 940 560 954 q 415 906 454 925 q 270 797 310 850 q 231 686 231 744 q 253 597 231 639 q 282 550 257 590 q 274 539 276 543 q 256 521 264 528 q 43 404 108 444 q -74 228 -74 333 q -56 103 -74 149 q 26 25 -32 42 q 57 21 39 21 q 100 22 81 22 l 144 25 q 218 35 194 29 q 290 54 263 47 q 433 104 346 69 q 510 136 463 115 q 493 68 506 97 q 418 39 446 49 q 276 8 329 8 q 189 1 240 6 q 100 -3 138 -3 q -40 25 8 -3 q -117 131 -89 53 q -132 214 -132 176 q -85 345 -132 285 q 54 464 -37 406 q 140 518 97 490 q 233 567 193 550 l 247 583 q 183 704 183 632 q 233 822 183 769 q 287 867 257 847 q 361 910 317 888 q 430 943 406 933 q 493 963 454 953 q 615 979 563 979 m 699 1151 q 722 1133 715 1147 q 729 1107 729 1119 q 717 1083 729 1096 q 688 1069 706 1069 q 663 1076 675 1069 q 650 1108 650 1083 q 658 1140 650 1126 q 679 1156 665 1153 q 699 1151 690 1156 m 503 1157 q 524 1140 519 1153 q 532 1113 532 1125 q 520 1088 532 1101 q 490 1075 508 1075 q 465 1082 478 1075 q 453 1114 453 1089 q 460 1145 453 1132 q 482 1161 468 1158 q 503 1157 493 1161 z "},"":{"ha":1192,"x_min":117,"x_max":1075,"o":"m 597 26 q 260 160 399 26 q 117 500 117 297 q 259 841 117 701 q 597 981 401 981 q 933 840 792 981 q 1075 500 1075 700 q 935 162 1075 297 q 597 26 794 26 m 169 500 q 292 187 169 313 q 597 61 415 61 q 900 186 778 61 q 1022 500 1022 311 q 899 810 1022 685 q 597 936 776 936 q 293 811 417 936 q 169 500 169 686 m 743 783 q 771 785 751 785 q 815 775 799 785 q 831 740 831 765 q 826 714 831 729 q 750 632 814 672 q 635 576 704 603 l 642 614 q 681 629 667 624 q 744 664 725 649 q 790 701 776 688 q 815 742 815 725 q 806 760 815 751 q 761 774 790 774 q 687 757 728 774 q 614 718 646 740 q 461 569 517 651 q 385 365 399 478 q 383 343 383 358 q 398 283 383 310 q 443 232 413 257 q 510 218 461 218 q 612 231 557 218 q 704 267 667 244 l 707 260 q 690 250 696 254 q 626 215 646 222 q 560 197 589 203 q 503 190 532 190 q 433 203 464 190 q 378 249 403 217 q 354 294 361 269 q 347 343 347 318 q 360 432 347 375 q 369 467 364 453 q 392 517 374 482 q 542 699 450 626 q 743 783 635 771 z "},"":{"ha":875,"x_min":-25,"x_max":836,"o":"m 753 675 q 744 781 753 731 q 713 868 735 831 q 642 938 682 921 q 536 954 601 954 q 256 813 397 954 q 81 550 135 692 l 442 546 q 433 533 436 538 q 421 513 422 517 q 402 508 419 510 q 317 507 385 507 l 193 507 q 108 506 149 507 q 67 501 68 506 q 53 442 60 476 q 46 382 46 407 q 44 358 44 368 q 69 201 44 279 q 172 33 104 94 q 210 17 186 21 q 244 11 233 13 q 267 9 256 10 q 286 8 279 8 q 469 65 376 8 q 611 190 547 113 l 656 129 q 578 71 636 110 q 531 39 554 54 q 458 2 500 18 q 384 -20 417 -14 q 326 -29 351 -26 q 275 -32 301 -32 q 128 7 189 -32 q 22 140 68 46 q -25 350 -25 235 q 83 711 -25 540 q 382 953 200 893 q 451 974 426 968 q 507 979 475 979 q 533 981 515 981 q 701 932 626 981 q 807 806 776 883 q 826 747 817 782 q 833 697 836 713 l 753 675 z "},"":{"ha":435,"x_min":-128,"x_max":258,"o":"m 43 290 l 92 290 q -82 160 0 239 l 14 -3 l -29 -19 l -128 142 l 43 290 m 208 288 l 258 288 l 82 157 l 179 -8 l 128 -22 l 38 136 l 208 288 z "},"":{"ha":333,"x_min":-144,"x_max":140,"o":"m -114 67 q -103 46 -108 54 q -88 28 -99 38 q -60 18 -78 18 q 2 44 -32 18 q 57 103 36 69 l 72 131 q 30 135 51 132 q -12 140 8 138 q -17 151 -17 149 l 82 154 q 96 215 96 189 q 65 272 96 263 q 22 276 35 281 l 0 265 l -33 242 l -51 258 q -3 287 -29 275 q 46 299 22 299 q 113 272 92 299 q 133 201 133 244 q 117 122 133 163 q 47 33 94 68 q -56 -3 -1 -3 q -97 4 -74 -3 q -144 56 -135 15 l -114 67 m 140 481 l 22 357 l 11 368 l 94 493 l 140 481 z "},"":{"ha":361,"x_min":-136,"x_max":275,"o":"m -53 122 l -85 -3 l -136 -1 q -103 144 -128 61 q -57 282 -85 206 l -3 293 l -46 147 l 13 153 q 78 244 28 199 q 190 299 136 299 q 254 276 233 299 q 275 215 275 254 q 252 122 275 172 q 183 36 229 72 q 83 0 136 0 q 42 6 61 0 q 10 35 22 13 q -1 85 -1 58 q 2 108 -1 93 q 7 129 6 124 q -31 128 -11 129 q -53 122 -50 128 m 192 476 l 74 353 l 63 364 l 146 489 l 192 476 m 56 29 q 85 18 67 18 q 147 44 113 18 q 200 100 181 69 q 230 159 219 131 q 240 215 240 188 q 210 272 240 263 q 167 276 179 281 l 144 265 q 60 190 96 236 q 24 99 24 143 q 56 29 24 60 z "},"":{"ha":285,"x_min":-187,"x_max":150,"o":"m 75 22 q 113 54 93 39 q 140 72 132 69 l 150 43 q 127 30 136 35 q 107 15 118 25 q 128 -3 118 11 q 136 -37 138 -18 q 118 -87 136 -65 q 71 -117 100 -108 q 53 -119 57 -119 q 24 -108 35 -119 q 14 -85 13 -96 q 21 -46 14 -62 q 51 -6 28 -29 q 19 -2 44 -3 q -17 0 -7 -1 l -43 114 l -151 -3 l -187 -3 l -49 139 l -79 279 l -32 285 l -3 190 l 76 285 l 106 285 l 0 163 q 6 125 4 139 q 17 63 13 82 q 32 36 22 44 q 75 22 47 22 m 31 -85 q 50 -104 35 -104 q 74 -95 61 -104 q 98 -69 88 -86 q 108 -37 108 -53 q 85 -4 108 -12 q 39 -54 50 -37 q 31 -85 28 -71 z "},"":{"ha":822,"x_min":-71,"x_max":800,"o":"m 749 925 l 800 928 q 660 449 743 688 q 469 -28 578 210 q 339 -204 417 -133 q 128 -310 247 -287 q 49 -318 82 -318 l 31 -318 q 0 -315 24 -318 q -56 -306 -24 -312 q -71 -301 -61 -304 l -51 -256 q 4 -268 -17 -264 q 106 -282 72 -282 q 242 -255 185 -282 q 339 -165 299 -228 q 476 121 410 -40 q 586 421 538 268 q 675 726 624 539 q 491 406 593 561 q 268 108 389 251 q 190 31 218 54 q 96 -12 138 -12 q 48 3 69 -12 q 21 30 26 19 q 13 52 15 40 q 9 81 11 64 q 7 113 7 97 q 14 169 7 139 q 28 231 21 200 q 89 479 47 350 q 169 699 114 556 q 239 893 224 843 q 247 933 247 918 q 231 957 247 956 q 193 936 211 960 q 28 665 99 813 l -3 711 q 63 832 47 807 q 151 936 104 899 q 189 965 179 960 q 229 978 210 978 q 251 974 238 978 q 273 953 264 971 q 282 907 282 935 q 279 868 282 883 q 268 822 276 853 q 199 583 242 721 q 124 347 161 465 q 57 106 81 204 q 53 72 53 89 q 64 27 53 49 q 97 6 75 6 q 178 49 128 6 q 247 119 217 82 q 531 503 403 296 q 749 925 651 697 m 394 1204 q 415 1149 396 1203 q 481 1085 435 1096 q 505 1079 499 1081 q 526 1078 511 1078 q 568 1085 547 1078 q 618 1111 589 1092 q 639 1138 632 1126 q 660 1207 660 1171 l 746 1233 q 724 1156 746 1190 q 676 1104 707 1129 q 595 1061 636 1071 q 490 1051 554 1051 q 389 1085 436 1051 q 319 1176 342 1118 l 394 1204 z "},"":{"ha":411,"x_min":93,"x_max":344,"o":"m 267 643 q 326 623 308 647 q 344 558 344 599 q 331 485 344 519 q 267 405 311 436 q 175 374 224 374 q 148 376 157 374 q 135 381 139 379 q 103 406 114 386 q 93 451 93 425 q 146 582 93 521 q 267 643 199 643 m 144 401 q 172 392 156 392 q 227 415 197 392 q 276 468 257 438 q 300 517 290 490 q 310 569 310 544 q 283 619 310 611 q 244 624 257 628 l 225 614 q 149 546 181 588 q 117 464 117 504 q 144 401 117 428 z "},"":{"ha":847,"x_min":-111,"x_max":1003,"o":"m 506 514 l 824 508 l 832 479 l 497 479 q 444 359 474 422 q 393 261 414 296 q 241 74 317 139 q 97 1 165 8 q 75 0 86 0 q 58 0 64 0 q -43 21 6 0 q -111 54 -85 42 l -71 92 q 74 29 19 29 q 144 47 108 29 q 195 76 160 54 q 295 197 231 99 q 407 397 360 296 q 424 440 413 410 q 438 483 435 471 l 299 483 l 307 513 l 456 511 q 496 646 479 574 q 544 919 496 647 q 437 932 476 928 q 361 936 397 936 q 274 931 319 936 q 163 911 229 925 q 98 890 124 904 q 61 849 72 876 q 57 828 57 838 q 93 775 57 799 q 168 746 122 756 q 261 731 185 742 q 315 722 281 728 l 276 683 q 137 713 207 683 q 38 792 67 742 q 24 839 24 815 q 40 884 24 865 q 86 918 57 903 q 223 960 153 949 q 344 975 293 971 q 429 979 394 979 q 523 976 457 979 q 613 974 589 974 q 783 978 649 974 q 961 982 918 982 q 990 982 979 982 q 1003 979 1000 982 l 976 924 q 893 920 975 921 q 753 919 811 919 q 651 919 674 919 q 600 919 628 919 q 574 788 588 856 q 540 640 561 719 l 506 514 z "},"":{"ha":768,"x_min":-74,"x_max":764,"o":"m 492 239 q 453 357 492 317 q 394 394 442 368 q 326 422 361 413 q 257 431 292 431 q 169 402 185 431 q 112 223 153 374 q 56 0 71 72 l -22 -6 q 44 257 -4 86 q 160 610 104 467 q 235 811 183 669 q 279 933 250 856 q 139 916 226 933 q -12 865 51 899 l -74 913 q 139 962 7 950 q 451 974 271 974 q 538 970 508 974 q 617 954 568 967 q 696 931 682 936 q 749 883 733 914 q 764 839 764 853 q 760 810 764 829 q 704 713 746 744 q 608 685 668 685 l 578 740 q 606 746 596 744 q 662 765 639 754 q 708 786 685 775 q 739 847 739 803 q 676 914 739 893 q 576 929 631 929 q 470 930 528 929 q 347 932 413 931 q 325 861 333 889 q 239 603 275 707 q 222 560 232 585 q 190 475 207 521 q 224 481 206 479 q 261 482 242 482 q 342 474 304 482 q 411 453 379 467 q 479 404 443 440 q 524 351 503 381 q 553 250 553 313 q 510 103 553 176 q 403 -1 468 31 q 343 -29 360 -22 q 256 -47 301 -47 l 258 3 q 413 68 340 3 q 492 239 492 140 z "},"":{"ha":413,"x_min":-189,"x_max":342,"o":"m 71 57 q 97 120 92 103 q 114 197 101 138 q 119 236 119 214 q 106 271 119 263 q 91 270 101 274 q 76 265 81 267 q -18 160 42 246 q -108 0 -78 75 l -151 0 q -97 214 -125 108 q -37 431 -57 365 q 28 643 -25 471 q -3 644 15 644 q -40 644 -21 644 q -123 644 -89 644 q -189 643 -157 644 l -174 674 q -153 676 -174 675 q -125 678 -133 678 q -66 677 -96 678 q -7 676 -36 676 l 13 676 q 42 681 39 676 l 92 836 l 151 849 l 97 675 l 342 675 l 333 644 l 83 644 l -68 117 q -6 228 -36 172 q 88 290 38 290 q 149 263 128 290 q 165 203 165 240 q 163 174 165 183 q 147 107 154 140 q 124 55 139 81 q 89 7 110 29 q 61 -18 75 -8 q -44 -39 32 -39 l -33 -22 q 71 57 36 -22 z "},"":{"ha":413,"x_min":-151,"x_max":214,"o":"m 214 317 q 190 281 203 294 q 160 260 176 268 q 131 249 143 251 q 106 246 118 246 q 68 247 85 247 q 15 250 42 247 q -31 256 -12 253 l -100 0 l -151 0 q -121 143 -132 96 q -68 296 -87 289 q -18 303 -49 303 q 8 301 0 303 q 53 293 21 301 q 101 285 85 285 q 121 288 115 285 q 151 317 142 296 q 157 338 154 324 l 214 317 z "},"":{"ha":413,"x_min":-176,"x_max":219,"o":"m 135 299 l 188 299 q 151 197 163 232 q 108 68 115 94 q 106 56 107 63 q 106 46 106 49 q 119 29 106 29 l 132 32 q 182 63 161 42 q 217 106 206 92 l 219 92 q 169 33 201 61 q 99 0 131 0 q 83 1 89 0 q 54 53 54 10 q 58 78 54 61 q 69 121 61 96 q 78 150 76 146 l 50 150 l -103 0 l -176 -3 q -107 46 -132 28 q 1 143 -32 103 q -86 174 -56 149 q -117 232 -117 200 q -82 292 -117 272 q -17 311 -61 303 q 6 313 -10 313 q 81 300 40 313 q 115 286 94 296 l 103 257 q 69 267 82 264 q 3 278 26 278 q -33 270 -19 278 q -49 251 -47 263 q -51 233 -51 239 q -51 225 -51 228 q -33 184 -51 194 q 22 174 -15 174 q 56 175 40 174 q 86 181 71 176 l 135 299 m 179 481 l 61 357 l 50 368 l 133 493 l 179 481 z "},"":{"ha":583,"x_min":61,"x_max":500,"o":"m 331 379 q 128 451 194 379 q 61 658 61 524 q 128 858 61 796 q 351 919 196 919 l 500 919 l 500 -6 l 442 -1 l 442 889 l 389 889 l 389 -1 l 326 -1 l 331 379 m 331 410 l 331 889 q 207 843 243 889 q 167 657 167 792 q 210 469 167 528 q 331 410 253 410 z "},"":{"ha":389,"x_min":136,"x_max":257,"o":"m 235 538 q 251 492 257 519 q 223 461 247 476 q 176 446 199 446 q 147 463 157 446 q 136 490 136 479 q 139 503 136 494 q 175 536 149 526 q 211 546 201 546 q 235 538 222 546 z "},"":{"ha":307,"x_min":-147,"x_max":129,"o":"m 92 106 l 85 82 q 11 22 49 46 q -81 -11 -42 -11 q -110 -5 -97 -11 q -133 17 -124 1 q -147 65 -147 39 q -129 137 -147 97 q -90 206 -111 176 q -39 261 -69 236 q 17 294 -3 290 q 47 297 38 297 q 72 292 58 297 q 91 276 85 288 q 97 246 97 264 q 76 185 97 210 q -1 115 43 144 q -94 68 -40 90 q -90 35 -99 51 q -58 18 -82 18 q -19 28 -42 18 q 27 52 3 39 q 65 76 51 65 q 92 106 78 88 m 106 472 q 124 458 119 468 q 129 436 129 447 q 121 415 129 426 q 96 404 110 404 q 75 411 85 404 q 65 438 65 418 q 89 475 65 472 l 106 472 m -19 472 q -1 458 -6 468 q 4 436 4 447 q -4 415 4 426 q -29 404 -15 404 q -50 411 -40 404 q -60 438 -60 418 q -36 475 -60 472 l -19 472 m -92 82 q 6 140 -39 101 q 68 236 58 186 q 40 276 74 267 q 8 271 19 281 q -92 82 -92 194 z "},"":{"ha":1167,"x_min":-17,"x_max":1093,"o":"m 429 -94 q 492 117 451 -1 q 565 328 528 222 q 642 569 614 469 q 682 714 669 669 q 711 851 701 785 q 714 872 714 865 q 711 885 714 876 q 674 907 701 907 q 617 889 647 907 q 567 846 586 871 q 300 446 435 676 q 65 0 183 246 l 14 0 q 146 454 89 246 q 263 911 208 682 q 267 933 267 922 q 258 956 267 947 q 239 956 253 961 q 197 922 211 943 q 168 863 181 888 q 19 558 93 710 l -17 594 q 60 753 19 678 q 151 903 94 817 q 188 950 178 940 q 244 976 214 976 l 268 974 q 293 953 286 968 q 300 917 300 939 q 297 880 300 896 q 293 854 294 864 q 89 106 224 472 q 478 768 256 447 q 550 871 514 819 q 657 928 599 928 q 728 913 700 928 q 757 860 757 897 q 756 825 757 842 q 749 789 756 808 q 658 483 711 651 q 563 178 575 219 q 481 -131 507 -7 q 453 -117 472 -131 q 429 -94 433 -103 m 1015 760 q 1075 740 1057 764 q 1093 675 1093 715 q 1079 601 1093 636 q 1016 522 1060 553 q 924 490 972 490 q 897 493 906 490 q 883 497 888 496 q 852 522 863 503 q 842 568 842 542 q 894 699 842 638 q 1015 760 947 760 m 822 425 l 1075 444 l 1053 411 l 797 397 l 822 425 m 893 518 q 921 508 904 508 q 976 531 946 508 q 1025 585 1006 554 q 1049 634 1039 607 q 1058 686 1058 661 q 1032 736 1058 728 q 993 740 1006 744 l 974 731 q 897 663 929 704 q 865 581 865 621 q 893 518 865 544 z "},"":{"ha":333,"x_min":-151,"x_max":121,"o":"m 67 49 q -60 -1 4 -1 q -99 6 -76 -1 q -137 39 -122 13 q -151 93 -151 65 q -87 237 -144 175 q 46 299 -31 299 q 94 290 78 299 q 121 256 111 281 l 90 243 q 78 265 85 260 q 58 273 72 269 q 39 276 43 276 q 24 275 29 275 l 0 265 q -41 233 -25 250 q -76 185 -57 215 l -86 171 q -37 168 -61 169 q 11 165 -12 167 q -1 154 0 158 q -37 149 -3 150 q -90 147 -71 147 q -104 85 -104 119 q -89 29 -104 44 q -56 18 -78 18 q 43 65 -1 18 l 67 49 z "},"":{"ha":435,"x_min":-157,"x_max":228,"o":"m -29 299 l 63 142 l -111 -8 l -157 -8 l 17 117 l -76 285 l -29 299 m 131 296 l 228 136 l 54 -11 l 6 -11 l 182 114 l 92 282 l 131 296 z "},"":{"ha":819,"x_min":0,"x_max":789,"o":"m 172 -7 q 127 -1 158 -3 q 79 14 96 1 q 40 62 53 32 q 28 124 28 92 q 32 171 28 147 q 85 406 53 288 q 158 643 108 492 q 239 879 199 761 q 244 928 249 907 q 236 956 244 949 q 216 955 228 963 q 196 936 204 947 q 35 663 106 803 l 0 697 l 32 771 q 79 844 50 806 q 131 911 104 878 q 181 961 153 943 q 239 979 208 979 q 294 919 294 979 q 290 876 294 901 q 215 624 271 779 q 131 374 150 443 q 89 119 89 229 q 120 63 89 82 q 194 43 151 43 q 208 43 201 43 q 228 47 218 46 q 260 61 239 49 q 299 88 267 65 q 368 153 340 117 q 421 236 388 178 q 601 593 531 431 q 732 947 672 756 l 789 953 q 656 479 718 746 q 557 -3 603 257 q 548 -1 553 -1 q 542 -1 543 -1 q 528 -3 533 -1 q 492 -10 503 -10 q 499 46 493 -1 q 513 133 506 93 q 582 442 533 260 q 629 610 599 504 q 515 354 574 467 q 367 119 447 222 q 303 55 340 86 q 226 7 267 24 q 254 -8 244 -3 q 301 -32 290 -28 q 350 17 326 -3 q 388 44 374 38 l 404 8 q 372 -13 389 -1 q 332 -44 356 -25 q 366 -76 350 -51 q 382 -136 382 -100 q 349 -214 382 -178 q 268 -264 315 -250 q 240 -268 253 -268 q 190 -248 208 -268 q 171 -207 171 -228 q 218 -115 171 -171 q 272 -57 242 -87 q 226 -32 260 -51 q 172 -7 193 -12 m 199 -217 q 240 -246 211 -246 q 290 -230 265 -246 q 332 -190 315 -214 q 349 -137 349 -167 q 335 -97 349 -114 q 303 -72 322 -79 q 233 -137 249 -122 q 196 -204 196 -178 q 199 -217 196 -208 z "},"":{"ha":813,"x_min":0,"x_max":789,"o":"m 732 947 l 789 953 q 546 3 635 500 l 488 28 l 513 133 l 629 610 q 560 510 596 556 q 472 397 479 406 q 369 311 429 342 q 253 281 308 281 q 185 303 210 281 q 146 369 154 332 q 138 460 138 406 q 157 616 138 536 q 239 879 176 696 q 244 928 249 907 q 236 956 244 949 q 216 955 228 963 q 196 936 204 947 q 35 663 106 803 l 0 697 l 32 771 q 79 844 50 806 q 131 911 104 878 q 181 961 153 943 q 239 979 208 979 q 299 921 299 979 q 290 876 299 901 q 228 664 244 732 q 194 408 194 526 q 222 355 194 374 q 288 336 249 336 q 339 346 315 336 q 431 410 383 363 q 499 493 465 443 q 550 561 503 499 q 632 692 611 640 q 683 815 667 772 q 732 947 700 858 z "},"":{"ha":413,"x_min":-118,"x_max":228,"o":"m 222 97 l 228 82 q 179 31 193 43 q 108 -4 140 -4 q 88 0 99 -4 q 72 17 76 4 q 67 47 67 29 q 71 85 67 65 q 93 172 81 136 q 100 192 94 179 q 81 169 88 178 q 42 126 51 136 q 5 94 24 108 q -34 74 -14 81 q -68 67 -54 67 q -98 74 -86 67 q -114 97 -110 81 q -118 132 -118 114 q -100 217 -118 167 q -74 290 -82 267 l -17 290 l -51 183 q -58 153 -56 167 q -61 132 -61 140 q -37 101 -61 101 q 12 126 -21 101 q 58 168 44 150 q 93 215 83 199 q 128 290 108 254 l 176 290 l 119 54 q 125 35 117 42 q 142 32 129 32 q 197 64 167 32 q 222 97 207 74 z "},"":{"ha":413,"x_min":-249,"x_max":206,"o":"m -124 -250 q -56 -235 -99 -256 q -2 -192 -12 -215 q 24 -107 8 -168 q 46 -22 44 -26 q 75 71 67 43 q 100 165 92 124 l 108 211 q 76 157 88 176 q 18 65 40 96 q -25 18 -4 35 q -78 -6 -53 -6 q -103 1 -90 -6 q -122 25 -115 8 q -129 61 -129 42 q -128 79 -129 74 q -106 181 -119 128 q -74 285 -92 233 l -19 293 q -56 183 -42 233 q -82 76 -71 133 q -86 43 -83 60 q -78 21 -86 28 q -61 14 -71 14 q -36 25 -49 14 q -11 54 -24 36 q 60 162 25 103 q 131 290 96 221 l 179 290 q 156 190 164 228 q 106 8 131 90 q 40 -179 72 -85 q -31 -258 24 -229 q -142 -287 -86 -287 q -200 -282 -185 -287 q -249 -247 -215 -276 l -217 -208 q -169 -237 -176 -235 q -124 -250 -161 -240 m 3 460 q 19 413 13 431 q 44 390 25 394 q 76 385 64 385 q 126 404 96 385 q 139 419 135 414 q 151 461 151 439 l 206 478 q 193 431 206 450 q 163 399 186 418 q 115 374 140 381 q 51 368 89 368 q -9 388 19 368 q -50 443 -37 408 l 3 460 z "},"":{"ha":922,"x_min":-429,"x_max":875,"o":"m 849 976 q 869 944 864 961 q 875 900 875 926 q 864 826 875 869 q 849 765 853 782 l 697 293 l 757 293 l 757 279 l 683 268 l 583 -3 l 538 -3 q 467 151 521 63 q 399 244 443 192 q 356 293 383 263 q 256 181 281 206 q 128 79 199 124 q 64 42 93 57 q -3 14 35 28 q -185 -18 -94 -18 q -301 -7 -246 -18 q -429 29 -357 4 l -382 65 q -156 11 -261 11 q 38 54 -62 11 q 140 117 94 79 q 222 196 171 142 q 392 413 301 283 q 547 642 469 526 q 738 885 646 783 l 825 979 q 849 976 833 982 m 624 282 q 743 595 693 436 q 822 922 793 754 l 811 922 q 656 724 733 832 q 513 515 621 676 q 369 307 415 372 q 624 282 494 282 m 546 35 l 621 258 l 404 271 q 479 157 442 221 q 546 35 513 100 z "},"":{"ha":768,"x_min":6,"x_max":764,"o":"m 226 603 q 185 507 219 585 q 142 401 151 429 q 96 259 118 329 q 74 146 74 189 q 97 61 74 99 q 188 15 128 15 q 251 24 219 15 q 325 54 283 33 q 440 149 382 81 q 517 282 499 217 q 526 343 526 315 q 499 415 526 390 q 441 442 471 439 q 399 446 411 446 q 381 446 386 446 q 267 432 325 446 q 201 414 233 422 q 214 438 210 429 q 233 474 231 468 q 401 501 322 501 l 418 501 q 514 486 492 494 q 582 418 558 469 q 599 336 599 381 q 553 180 599 258 q 442 65 508 101 q 382 32 411 49 q 303 7 347 15 q 226 -7 258 -1 q 163 -12 193 -12 q 91 -1 121 -12 q 36 42 61 11 q 13 87 19 61 q 6 143 6 113 q 83 425 6 235 q 160 610 121 517 q 235 811 183 669 q 279 933 250 856 q 126 893 203 933 l 65 940 q 198 967 144 961 q 331 974 251 974 l 451 974 q 538 970 508 974 q 617 954 568 967 q 696 931 682 936 q 749 883 733 914 q 764 839 764 853 q 760 810 764 829 q 704 713 746 744 q 608 685 668 685 l 578 740 q 606 746 596 744 q 662 765 639 754 q 708 786 685 775 q 739 847 739 803 q 676 914 739 893 q 576 929 631 929 q 470 930 528 929 q 347 932 413 931 l 226 603 z "},"":{"ha":842,"x_min":-22,"x_max":836,"o":"m 694 976 q 725 979 717 979 q 806 947 776 979 q 836 860 836 914 q 832 822 836 842 q 754 667 815 742 q 618 542 703 604 q 469 447 556 496 l 469 435 q 501 424 489 428 q 604 356 574 394 q 629 308 621 335 q 638 254 638 282 q 606 140 638 194 q 526 57 575 85 q 393 8 468 22 q 311 0 365 3 q 221 -3 257 -3 q 160 -2 185 -3 q 117 0 135 -1 l 165 57 q 238 51 196 54 q 333 49 279 49 q 396 49 364 49 q 431 54 421 53 q 542 114 483 61 q 606 226 606 172 q 589 274 606 250 q 563 299 582 283 q 506 337 544 315 q 428 379 467 358 q 410 413 410 393 q 415 435 410 424 q 465 464 447 453 q 553 524 522 499 q 707 685 657 611 q 769 874 769 776 q 751 922 769 907 q 703 936 733 936 q 644 926 675 936 q 586 903 613 917 q 561 886 574 896 q 533 865 538 868 q 425 775 489 832 q 396 749 414 765 l 368 714 q 272 423 328 565 q 140 144 215 281 q 29 8 94 63 q 12 -6 21 -1 q -8 -8 3 -10 q -22 25 -22 6 q -19 99 -22 69 q -3 168 -15 128 q 72 358 28 268 q 151 497 111 438 q 300 689 167 521 l 371 925 l 442 965 l 390 774 q 529 896 471 853 q 694 976 617 961 m 54 89 q 161 263 117 168 q 225 433 197 339 q 274 610 249 521 l 231 564 q 165 478 190 518 q 106 375 139 439 q 69 301 81 326 q 45 235 58 275 q 19 140 32 196 q 10 89 15 122 l 18 54 q 31 65 26 61 q 54 89 47 81 z "},"":{"ha":847,"x_min":-111,"x_max":1003,"o":"m 231 961 q 344 975 293 971 q 429 979 394 979 q 523 976 457 979 q 613 974 589 974 q 783 978 649 974 q 961 982 918 982 q 990 982 979 982 q 1003 979 1000 982 l 976 924 q 942 922 976 922 q 879 921 907 921 q 767 921 822 921 q 660 922 713 921 q 621 922 635 922 q 600 919 607 922 q 556 694 578 807 q 508 517 533 581 q 456 388 482 454 q 393 261 422 307 q 241 74 317 139 q 97 1 165 8 q 75 0 86 0 q 58 0 64 0 q -43 21 6 0 q -111 54 -85 42 l -71 92 q 74 29 19 29 q 144 47 108 29 q 195 76 160 54 q 295 197 231 99 q 406 396 360 296 q 476 571 453 496 q 512 726 496 633 q 544 919 528 819 q 441 931 486 926 q 360 935 396 935 q 275 929 318 935 q 157 908 232 924 q 95 889 118 901 q 61 849 72 876 q 57 828 57 838 q 93 775 57 799 q 168 746 122 756 q 261 731 185 742 q 315 722 281 728 l 276 683 q 137 713 207 683 q 38 792 67 742 q 24 839 24 815 q 40 884 24 865 q 86 918 57 903 q 231 961 153 949 z "},"":{"ha":1138,"x_min":-8,"x_max":1042,"o":"m 949 635 q 992 567 978 590 q 1022 493 1011 531 q 1042 357 1042 426 q 982 126 1042 224 q 807 4 917 21 q 653 -8 725 -8 q 506 5 576 -8 q 360 46 436 18 q 254 1 299 17 q 142 -19 193 -19 q 24 17 75 -19 q 7 26 14 22 q -4 41 0 31 q -8 58 -8 51 q 4 85 -8 74 q 86 117 28 106 q 211 128 144 128 q 393 106 311 128 l 456 179 q 571 422 515 283 q 681 699 626 561 q 694 738 690 725 q 721 797 704 763 l 632 860 l 493 925 q 414 951 454 938 q 340 965 374 965 q 201 917 275 965 q 178 871 178 901 q 203 796 178 840 q 288 678 217 772 l 254 651 q 179 738 213 685 q 138 851 138 803 q 169 921 138 894 q 240 973 218 961 q 288 985 263 985 q 324 983 310 983 q 585 921 442 983 q 735 851 660 886 l 764 939 l 824 960 l 775 817 q 865 738 829 775 q 949 635 911 692 m 775 40 q 951 149 888 79 q 1011 274 1006 207 q 933 540 1011 406 q 758 760 872 646 q 736 685 747 722 q 676 514 708 597 q 594 333 635 404 q 517 196 521 203 q 422 88 472 126 q 489 68 464 75 q 602 42 572 44 q 663 34 632 39 q 713 29 694 29 q 775 40 743 29 m 92 14 q 161 3 125 3 q 222 12 189 3 q 319 51 256 21 q 163 76 242 76 q 71 72 107 76 q 35 50 35 67 q 42 35 35 43 q 66 22 50 28 q 92 14 82 17 z "},"":{"ha":894,"x_min":0,"x_max":865,"o":"m 747 979 q 830 953 794 979 q 865 892 865 928 q 864 876 865 882 q 811 764 856 836 q 767 697 797 740 l 735 738 q 807 876 771 807 q 815 915 815 899 q 801 942 815 935 q 738 954 776 954 q 639 940 692 954 q 547 906 586 925 q 402 797 442 850 q 363 686 363 744 q 385 597 363 639 q 414 550 389 590 q 406 539 408 543 q 388 521 396 528 q 175 404 240 444 q 58 228 58 333 q 76 103 58 149 q 158 25 100 42 q 189 21 171 21 q 232 22 213 22 l 276 25 q 350 35 326 29 q 422 54 394 47 q 565 104 478 69 q 642 136 594 115 q 625 68 638 97 q 550 39 578 49 q 408 8 461 8 q 321 1 372 6 q 232 -3 269 -3 q 92 25 140 -3 q 15 131 43 53 q 0 214 0 176 q 47 345 0 285 q 186 464 94 406 q 272 518 229 490 q 365 567 325 550 l 379 583 q 315 704 315 632 q 365 822 315 769 q 419 867 389 847 q 493 910 449 888 q 562 943 538 933 q 625 963 586 953 q 747 979 694 979 z "},"":{"ha":1454,"x_min":25,"x_max":1440,"o":"m 647 649 q 651 693 651 672 q 610 824 651 769 q 510 890 569 878 q 487 894 497 892 q 463 896 476 896 q 347 864 404 896 q 251 789 303 839 l 228 858 q 358 934 288 911 q 489 957 428 957 q 554 946 532 957 q 647 865 615 914 q 686 767 674 825 q 690 719 690 747 q 682 615 690 668 q 651 496 674 563 q 749 633 708 574 q 824 761 804 717 q 854 835 843 806 q 883 932 871 878 l 946 961 q 913 819 928 867 q 874 707 890 757 q 779 446 867 685 q 731 307 738 331 q 804 419 758 353 q 876 522 825 449 l 1015 726 q 1085 819 1047 772 q 1178 914 1139 886 q 1314 972 1257 972 q 1379 952 1347 972 q 1440 888 1411 932 l 1399 825 q 1381 869 1389 856 q 1310 915 1353 915 q 1269 907 1290 915 q 1218 875 1247 899 q 1121 786 1161 829 q 1047 693 1086 749 q 943 536 968 582 q 874 310 874 411 q 899 128 874 181 q 975 49 924 75 q 1064 29 1014 29 q 1181 54 1122 29 q 1276 114 1240 79 l 1317 54 q 1204 0 1263 17 q 1090 -17 1146 -17 q 1006 -8 1043 -17 q 949 11 969 0 q 887 74 914 29 q 842 179 860 118 q 835 272 835 204 q 839 360 835 317 q 853 426 843 403 q 794 351 824 389 q 704 218 729 257 q 646 113 679 179 q 592 4 618 58 l 517 -17 q 543 35 533 14 q 651 257 607 160 q 693 347 671 300 q 728 433 715 394 q 752 519 740 479 q 790 629 764 560 q 693 496 753 572 q 586 367 646 436 q 467 211 519 279 q 324 49 363 76 q 242 6 285 22 q 163 -10 199 -10 q 80 13 115 -10 q 25 82 44 36 l 71 146 q 101 97 88 113 q 200 49 144 49 q 253 59 225 49 q 310 93 281 69 q 446 240 363 135 q 568 411 514 326 q 608 496 589 444 q 647 649 633 564 z "},"":{"ha":729,"x_min":-78,"x_max":701,"o":"m 517 971 q 653 914 600 971 q 701 790 701 861 q 688 725 701 754 q 583 589 650 642 q 426 507 528 544 q 601 451 540 507 q 656 324 656 401 q 651 281 656 301 q 475 56 622 132 q 151 -12 344 -12 q 38 8 97 -12 q -78 49 -22 29 l -53 118 q 98 50 25 75 q 240 25 171 25 q 363 47 304 25 q 479 118 421 68 q 565 225 529 161 q 601 346 601 289 q 575 422 601 393 q 479 463 544 456 l 385 475 q 361 499 361 486 q 376 519 361 507 q 378 522 376 521 q 454 563 431 550 q 538 614 499 586 q 585 651 568 635 q 631 730 619 685 q 645 787 643 775 q 647 815 647 799 q 631 878 647 851 q 569 926 614 904 q 475 949 524 949 q 288 876 388 949 q 150 750 225 832 l 117 783 q 292 922 192 874 q 517 971 393 971 z "},"":{"ha":813,"x_min":0,"x_max":789,"o":"m 732 947 l 789 953 q 546 3 635 500 l 488 28 l 513 133 l 629 610 q 513 354 576 472 q 361 119 443 225 q 267 33 321 68 q 149 -8 203 -8 q 82 12 111 -8 q 40 62 53 32 q 28 124 28 92 q 32 171 28 147 q 85 406 53 288 q 158 643 108 492 q 239 879 199 761 q 244 928 249 907 q 236 956 244 949 q 216 955 228 963 q 196 936 204 947 q 35 663 106 803 l 0 697 l 32 771 q 79 844 50 806 q 131 911 104 878 q 181 961 153 943 q 239 979 208 979 q 294 919 294 979 q 290 876 294 901 q 215 624 271 779 q 131 374 150 443 q 89 119 89 229 q 120 63 89 82 q 194 43 151 43 q 208 43 201 43 q 228 47 218 46 q 260 61 239 49 q 299 88 267 65 q 368 153 340 117 q 421 236 388 178 q 601 593 531 431 q 732 947 672 756 z "},"":{"ha":819,"x_min":0,"x_max":789,"o":"m 732 947 l 789 953 q 546 3 635 500 l 488 28 l 513 133 l 629 610 q 513 354 576 472 q 361 119 443 225 q 267 33 321 68 q 149 -8 203 -8 q 82 12 111 -8 q 40 62 53 32 q 28 124 28 92 q 32 171 28 147 q 85 406 53 288 q 158 643 108 492 q 239 879 199 761 q 244 928 249 907 q 236 956 244 949 q 216 955 228 963 q 196 936 204 947 q 35 663 106 803 l 0 697 l 32 771 q 79 844 50 806 q 131 911 104 878 q 181 961 153 943 q 239 979 208 979 q 294 919 294 979 q 290 876 294 901 q 215 624 271 779 q 131 374 150 443 q 89 119 89 229 q 120 63 89 82 q 194 43 151 43 q 208 43 201 43 q 228 47 218 46 q 260 61 239 49 q 299 88 267 65 q 368 153 340 117 q 421 236 388 178 q 601 593 531 431 q 732 947 672 756 m 367 1210 q 388 1155 368 1208 q 453 1090 407 1101 q 477 1085 471 1086 q 499 1083 483 1083 q 540 1090 519 1083 q 590 1117 561 1097 q 611 1143 604 1132 q 632 1213 632 1176 l 718 1239 q 696 1161 718 1196 q 649 1110 679 1135 q 567 1067 608 1076 q 463 1057 526 1057 q 361 1090 408 1057 q 292 1182 314 1124 l 367 1210 z "},"":{"ha":1042,"x_min":-254,"x_max":1090,"o":"m 1024 971 l 1090 971 q 979 851 1035 911 q 746 604 828 689 q 543 401 604 457 q 531 388 535 394 q 524 372 528 381 q 800 40 671 181 l 803 29 l 763 0 q 486 333 628 146 q 483 343 483 336 q 481 356 482 350 q 660 561 569 458 q 840 765 750 664 q 1024 971 931 867 m 563 936 l 629 976 q 582 775 586 793 q 525 574 550 644 q 432 361 490 475 q 393 285 413 324 q 350 217 374 247 q 185 56 263 104 q -32 -3 92 -3 q -149 10 -92 -3 q -254 38 -218 29 l -217 71 q -169 53 -187 58 q -77 28 -114 33 q -8 24 -40 24 q 60 32 19 24 q 169 76 124 46 q 304 222 225 114 q 346 292 329 256 q 381 367 363 329 q 469 588 432 474 q 563 936 483 629 z "},"":{"ha":979,"x_min":-199,"x_max":983,"o":"m 983 986 l 661 -1 l 603 -1 q 697 265 625 51 q 822 646 778 504 q 908 921 875 813 q 785 885 846 921 q 714 829 747 863 q 650 728 693 808 q 564 557 601 636 q 478 369 521 463 q 329 122 401 203 q 83 -11 228 8 q 31 -17 46 -15 q 1 -19 17 -19 q -35 -18 -25 -19 q -71 -7 -46 -17 q -121 11 -112 7 q -199 85 -151 26 l -135 132 q -106 104 -117 114 q -32 58 -69 74 q 53 43 6 43 q 256 117 156 43 q 311 169 289 142 q 378 279 318 178 q 481 490 421 351 q 553 664 517 576 q 626 797 588 733 q 697 886 664 860 q 835 963 765 940 q 983 986 904 986 z "},"":{"ha":1083,"x_min":-182,"x_max":1056,"o":"m 931 576 q 940 644 933 589 q 958 779 954 758 q 882 664 944 763 q 740 439 811 551 l 465 -14 q 449 155 457 39 q 438 293 440 271 q 432 356 435 315 q 429 422 429 397 l 429 494 q 419 657 429 567 q 403 792 406 760 q 365 676 378 717 q 317 526 321 540 q 243 289 282 404 q 140 42 174 81 q 81 -3 113 8 q -6 -15 49 -15 q -97 -8 -72 -15 q -182 38 -122 0 l -153 93 q -110 68 -126 76 q -24 33 -60 42 q 4 28 -7 29 q 24 26 15 26 q 60 37 43 26 q 106 75 78 47 q 165 181 133 103 q 226 361 183 226 q 299 588 276 521 q 351 757 313 632 q 422 993 389 882 l 465 676 q 474 594 469 642 q 479 482 479 547 l 488 294 q 494 168 488 242 q 503 99 496 143 q 647 350 568 218 q 800 596 692 424 q 958 846 879 721 q 1003 910 974 871 q 1056 972 1033 949 q 1041 846 1056 938 q 1013 688 1026 754 q 979 464 1006 649 q 939 176 960 328 q 913 -1 918 25 l 851 0 q 882 274 851 63 q 931 576 913 485 z "},"":{"ha":1118,"x_min":-176,"x_max":1117,"o":"m 1044 953 l 1117 982 l 881 285 l 976 285 l 971 265 l 876 258 l 786 3 l 757 3 q 685 115 724 65 q 588 222 657 150 q 528 279 565 244 q 493 310 515 290 q 464 319 482 319 q 331 107 401 178 q 108 0 240 17 q 28 -6 74 -6 q -12 -4 8 -6 q -53 1 -33 -3 q -119 17 -104 11 q -176 46 -135 22 l -154 97 q -86 68 -112 78 q 56 39 -6 39 l 89 39 q 176 50 143 39 q 285 117 228 67 q 338 182 317 144 q 382 258 360 219 q 497 478 451 369 q 572 689 536 568 q 632 906 592 751 q 671 928 653 919 q 718 950 701 942 q 607 647 668 799 q 474 336 546 494 q 646 297 556 308 q 835 285 736 285 l 1044 953 m 757 46 l 829 256 q 696 264 761 256 q 544 290 631 272 q 663 178 608 240 q 757 46 710 122 z "},"":{"ha":889,"x_min":6,"x_max":874,"o":"m 538 979 q 565 981 547 981 q 733 931 658 981 q 843 794 808 882 q 874 619 874 708 q 785 315 874 464 q 550 61 701 175 q 485 25 518 38 q 421 1 453 13 q 296 -26 357 -26 q 160 13 221 -26 q 51 140 93 56 q 6 350 6 235 q 114 711 6 540 q 413 953 231 893 q 481 974 457 968 q 538 979 506 979 m 703 276 q 773 458 746 357 q 800 656 800 560 q 760 857 800 771 q 682 935 735 910 q 567 960 629 960 q 224 767 369 960 q 71 382 96 597 q 67 321 67 350 q 99 167 67 239 q 203 33 132 96 q 240 17 217 21 q 276 10 264 13 q 299 8 289 8 q 322 8 310 8 q 546 90 438 8 q 703 276 642 163 z "},"":{"ha":1132,"x_min":-239,"x_max":1169,"o":"m 860 258 l 767 0 l 718 0 q 810 286 728 26 q 947 726 899 569 q 1018 956 982 840 q 867 960 986 956 q 696 965 749 965 q 586 647 638 786 q 458 340 524 481 q 310 117 393 199 q 75 0 207 17 q 21 -4 43 -4 q -15 -2 4 -4 q -72 7 -33 0 q -136 22 -110 14 q -239 71 -176 36 l -204 106 q -157 79 -175 88 q -58 42 -103 51 q 28 32 -12 32 q 257 125 146 32 q 340 232 290 153 q 450 433 406 336 q 561 699 494 529 q 657 968 633 883 l 472 960 q 385 950 418 960 q 325 905 331 935 q 319 863 319 875 q 335 828 319 842 q 360 809 351 815 q 383 799 368 803 q 422 794 399 794 q 449 795 440 794 q 465 799 457 796 l 435 740 q 285 835 311 740 q 281 863 281 851 q 283 883 281 874 q 299 915 286 892 q 346 963 318 950 q 417 985 374 976 q 519 996 461 993 q 633 999 578 999 q 929 990 772 999 q 1169 971 1086 982 l 1133 940 l 1051 951 l 860 258 z "},"":{"ha":722,"x_min":-117,"x_max":708,"o":"m 578 976 q 679 911 646 963 q 708 796 708 865 q 695 701 708 751 q 661 611 682 650 q 631 559 656 600 q 580 486 606 518 q 518 418 554 454 q 381 310 453 353 q 318 276 349 290 q 244 247 288 263 q 172 222 188 226 q 101 211 135 211 l 117 256 q 292 285 215 256 q 446 385 369 315 q 506 450 481 417 q 554 526 525 475 q 593 594 589 588 q 619 667 611 631 q 635 751 628 704 q 643 829 643 797 q 628 908 643 881 q 565 953 608 943 q 532 957 549 957 q 453 936 490 957 q 335 836 425 921 q 265 751 299 803 q 228 692 253 732 q 131 501 169 599 q 60 301 99 421 q -6 85 40 242 q -69 -131 -21 32 q -96 -97 -81 -119 q -117 -68 -106 -82 q 37 401 -25 168 q 131 885 99 635 l 133 925 q 193 947 160 947 q 117 518 174 739 q 242 750 176 657 q 435 942 326 872 q 549 979 492 979 q 578 976 558 979 z "},"":{"ha":807,"x_min":-6,"x_max":800,"o":"m 656 979 q 681 981 669 981 q 699 982 692 982 q 772 966 744 982 q 800 908 800 950 q 793 863 800 885 q 667 726 772 793 q 474 635 586 675 l 486 697 q 551 722 528 713 q 658 779 624 753 q 733 842 714 822 q 775 908 775 882 q 760 939 775 928 q 686 961 733 961 q 556 932 629 961 q 440 871 494 908 q 185 621 279 761 q 58 282 82 468 q 57 247 57 269 q 81 146 57 190 q 156 60 106 101 q 197 42 169 47 q 265 36 225 36 q 435 58 344 36 q 590 117 526 79 l 596 106 q 550 76 567 86 q 460 32 496 44 q 353 2 408 14 q 254 -10 299 -10 q 138 12 188 -10 q 47 88 89 33 q 6 163 18 125 q -6 247 -6 201 q -1 306 -6 281 q 15 393 3 331 q 36 465 24 435 q 69 535 44 489 q 317 836 167 719 q 656 979 474 957 z "},"":{"ha":1396,"x_min":-239,"x_max":1458,"o":"m 1458 976 l 1417 932 q 1355 953 1386 947 q 1290 960 1324 960 q 1263 863 1276 911 q 1199 638 1217 700 q 1126 392 1157 493 l 1006 0 l 957 0 q 1049 288 972 39 q 1185 731 1136 571 q 1254 961 1219 846 q 1125 960 1222 961 q 1021 958 1028 958 q 968 960 975 958 l 776 286 l 683 0 l 635 0 q 728 293 644 25 q 864 733 811 561 q 935 964 899 849 l 696 965 q 586 647 638 786 q 458 340 524 481 q 310 117 393 199 q 75 0 207 17 q 21 -4 43 -4 q -15 -2 4 -4 q -72 7 -33 0 q -136 22 -110 14 q -239 71 -176 36 l -204 106 q -157 79 -175 88 q -58 42 -103 51 q 28 32 -12 32 q 257 125 146 32 q 340 232 290 153 q 450 433 406 336 q 561 699 494 529 q 657 968 633 883 l 472 960 q 385 950 418 960 q 325 905 331 935 q 319 863 319 875 q 335 828 319 842 q 360 809 351 815 q 383 799 368 803 q 422 794 399 794 q 449 795 440 794 q 465 799 457 796 l 435 740 q 285 835 311 740 q 281 863 281 851 q 283 883 281 874 q 299 915 286 892 q 346 963 318 950 q 417 985 374 976 q 519 996 461 993 q 633 999 578 999 q 900 1001 747 999 q 1179 1006 1053 1003 q 1327 1001 1264 1006 q 1458 976 1390 996 z "},"":{"ha":822,"x_min":-58,"x_max":813,"o":"m 761 925 l 813 928 q 673 449 756 688 q 482 -28 590 210 q 351 -204 429 -133 q 140 -310 260 -287 q 61 -318 94 -318 l 43 -318 q 13 -315 36 -318 q -43 -306 -11 -312 q -58 -301 -49 -304 l -39 -256 q 17 -268 -4 -264 q 118 -282 85 -282 q 254 -255 197 -282 q 351 -165 311 -228 q 489 121 422 -40 q 599 421 550 268 q 688 726 636 539 q 503 406 606 561 q 281 108 401 251 q 203 31 231 54 q 108 -12 150 -12 q 60 3 82 -12 q 33 30 39 19 q 26 52 28 40 q 22 81 24 64 q 19 113 19 97 q 26 169 19 139 q 40 231 33 200 q 101 479 60 350 q 181 699 126 556 q 251 893 236 843 q 260 933 260 918 q 243 957 260 956 q 206 936 224 960 q 40 665 111 813 l 10 711 q 75 832 60 807 q 164 936 117 899 q 201 965 192 960 q 242 978 222 978 q 263 974 250 978 q 285 953 276 971 q 294 907 294 935 q 292 868 294 883 q 281 822 289 853 q 211 583 254 721 q 136 347 174 465 q 69 106 93 204 q 65 72 65 89 q 76 27 65 49 q 110 6 88 6 q 190 49 140 6 q 260 119 229 82 q 543 503 415 296 q 761 925 664 697 z "},"":{"ha":1233,"x_min":13,"x_max":1215,"o":"m 581 503 q 643 686 622 588 q 667 840 654 735 l 675 947 q 699 968 690 961 q 740 997 724 989 q 714 761 740 903 q 658 518 696 667 q 779 722 713 633 q 921 858 846 810 q 1063 894 978 894 q 1131 882 1103 894 q 1194 815 1172 861 q 1215 711 1215 768 q 1190 578 1215 646 q 1117 449 1165 510 q 1000 333 1074 393 q 889 261 944 289 q 758 208 853 243 q 597 178 675 178 l 622 222 q 846 289 722 222 q 1063 468 978 360 q 1124 588 1100 515 q 1147 728 1147 661 q 1131 816 1147 782 q 1079 858 1115 850 q 1061 861 1071 861 q 1047 861 1051 861 q 931 822 990 861 q 843 742 886 793 q 751 624 786 674 q 689 513 708 563 q 578 221 626 356 q 476 -89 524 71 q 452 -59 465 -78 q 429 -26 439 -40 q 521 219 489 128 q 594 461 565 347 q 468 294 528 364 q 336 172 394 208 q 256 135 297 147 q 175 124 215 124 q 71 153 107 124 q 27 213 42 175 q 13 296 13 250 q 29 403 13 350 q 77 508 46 457 q 142 593 108 558 q 281 704 176 628 q 376 757 317 731 q 472 794 400 767 q 550 813 500 806 q 640 819 600 819 l 618 793 q 439 742 489 763 q 231 599 335 697 q 119 446 167 539 q 71 276 71 353 q 83 215 71 242 q 119 173 94 188 q 175 158 143 158 q 297 197 231 158 q 413 290 364 236 q 499 388 493 381 q 581 503 558 458 z "},"":{"ha":792,"x_min":-99,"x_max":826,"o":"m 761 965 l 826 965 q 792 931 806 944 q 663 800 694 835 q 515 633 617 753 q 436 540 486 599 l 425 521 q 457 391 440 454 q 497 254 474 328 q 535 129 515 192 q 578 6 542 106 l 521 0 q 481 114 503 51 q 443 231 464 164 q 379 472 408 342 l -33 0 l -99 0 l 371 496 q 319 738 349 626 q 286 849 303 796 q 249 960 281 865 l 308 965 l 349 829 q 385 692 368 761 q 417 550 401 622 l 629 808 l 761 965 z "},"":{"ha":819,"x_min":0,"x_max":789,"o":"m 640 -19 q 674 -51 658 -26 q 690 -111 690 -75 q 657 -189 690 -153 q 576 -239 624 -225 q 549 -243 561 -243 q 498 -223 517 -243 q 479 -182 479 -203 q 526 -90 479 -146 q 581 -32 550 -62 q 528 -19 558 -22 q 486 -15 497 -15 l 513 133 q 583 442 538 263 q 629 610 599 504 q 515 354 574 467 q 367 119 447 222 q 271 33 326 68 q 150 -8 206 -8 q 82 12 111 -8 q 40 62 53 32 q 28 124 28 92 q 32 171 28 147 q 85 406 53 288 q 158 643 108 492 q 239 879 199 761 q 244 928 249 907 q 236 956 244 949 q 216 955 228 963 q 196 936 204 947 q 35 663 106 803 l 0 697 l 32 771 q 79 844 50 806 q 131 911 104 878 q 181 961 153 943 q 239 979 208 979 q 294 919 294 979 q 290 876 294 901 q 215 624 271 779 q 131 374 150 443 q 89 119 89 229 q 120 63 89 82 q 194 43 151 43 q 208 43 201 43 q 228 47 218 46 q 260 61 239 49 q 299 88 267 65 q 368 153 340 117 q 421 236 388 178 q 601 593 531 431 q 732 947 672 756 l 789 953 q 546 3 635 500 q 576 0 560 1 q 610 -7 593 -1 q 658 42 635 22 q 696 69 682 63 l 713 33 q 681 12 697 24 q 640 -19 664 0 m 507 -192 q 549 -221 519 -221 q 599 -205 574 -221 q 640 -165 624 -189 q 657 -112 657 -142 q 644 -72 657 -89 q 611 -47 631 -54 q 542 -112 557 -97 q 504 -179 504 -153 q 507 -192 504 -183 z "},"":{"ha":813,"x_min":0,"x_max":789,"o":"m 732 947 l 789 953 q 546 3 635 500 l 488 28 l 513 133 l 629 610 q 560 510 596 556 q 472 397 479 406 q 369 311 429 342 q 253 281 308 281 q 185 303 210 281 q 146 369 154 332 q 138 460 138 406 q 157 616 138 536 q 239 879 176 696 q 244 928 249 907 q 236 956 244 949 q 216 955 228 963 q 196 936 204 947 q 35 663 106 803 l 0 697 l 32 771 q 79 844 50 806 q 131 911 104 878 q 181 961 153 943 q 239 979 208 979 q 299 921 299 979 q 290 876 299 901 q 228 664 244 732 q 194 408 194 526 q 222 355 194 374 q 288 336 249 336 q 339 346 315 336 q 431 410 383 363 q 499 493 465 443 q 550 561 503 499 q 632 692 611 640 q 683 815 667 772 q 732 947 700 858 z "},"":{"ha":1275,"x_min":0,"x_max":1272,"o":"m 629 610 q 517 356 572 463 q 369 124 450 226 q 271 35 329 72 q 149 -8 204 -8 q 81 12 110 -8 q 40 62 53 32 q 28 124 28 92 q 32 171 28 147 q 85 406 53 288 q 158 643 108 492 q 239 879 199 761 q 244 928 249 907 q 236 956 244 949 q 211 951 226 964 q 192 932 201 944 q 96 764 149 868 q 43 658 60 693 l 0 697 l 32 771 q 79 844 50 806 q 131 911 104 878 q 181 961 153 943 q 239 979 208 979 q 294 919 294 979 q 290 876 294 901 q 215 624 271 779 q 131 374 150 443 q 89 119 89 229 q 120 63 89 82 q 194 43 151 43 q 208 43 201 43 q 222 46 218 46 q 259 60 242 50 q 299 88 276 71 q 367 155 339 119 q 421 236 396 190 q 603 602 531 436 q 732 947 675 768 l 789 953 q 646 536 717 744 q 568 136 568 286 q 601 65 568 88 q 676 43 633 43 q 692 43 683 43 q 706 46 701 46 q 742 60 724 50 q 782 88 761 71 q 850 154 825 124 q 904 236 875 185 q 1085 593 1014 431 q 1215 947 1156 756 l 1272 953 q 1135 485 1199 736 q 1029 -6 1072 233 l 971 15 l 996 133 l 1113 610 q 999 356 1056 464 q 849 124 933 232 q 753 36 806 71 q 632 -4 690 -4 q 564 13 594 -4 q 522 47 533 31 q 510 92 510 64 q 515 133 510 103 q 585 431 536 232 q 629 610 600 496 z "},"":{"ha":1275,"x_min":0,"x_max":1272,"o":"m 1026 8 q 1056 2 1040 6 q 1090 -7 1072 -1 q 1139 42 1115 22 q 1176 69 1163 63 l 1193 33 q 1161 12 1178 24 q 1121 -19 1144 0 q 1155 -51 1139 -26 q 1171 -111 1171 -75 q 1138 -189 1171 -153 q 1057 -239 1104 -225 q 1029 -243 1042 -243 q 978 -223 997 -243 q 960 -182 960 -203 q 1007 -90 960 -146 q 1061 -32 1031 -62 q 1008 -19 1039 -22 q 967 -15 978 -15 l 999 133 l 1113 610 q 999 356 1056 464 q 849 124 933 232 q 753 36 806 71 q 632 -4 690 -4 q 564 13 594 -4 q 522 47 533 31 q 510 92 510 64 q 515 133 510 103 q 585 431 536 232 q 629 610 600 496 q 517 356 572 463 q 369 124 450 226 q 271 35 329 72 q 149 -8 204 -8 q 81 12 110 -8 q 40 62 53 32 q 28 124 28 92 q 32 171 28 147 q 85 406 53 288 q 158 643 108 492 q 239 879 199 761 q 244 928 249 907 q 236 956 244 949 q 211 951 226 964 q 192 932 201 944 q 96 764 149 868 q 43 658 60 693 l 0 697 l 32 771 q 79 844 50 806 q 131 911 104 878 q 181 961 153 943 q 239 979 208 979 q 294 919 294 979 q 290 876 294 901 q 215 624 271 779 q 131 374 150 443 q 89 119 89 229 q 120 63 89 82 q 194 43 151 43 q 208 43 201 43 q 222 46 218 46 q 259 60 242 50 q 299 88 276 71 q 367 155 339 119 q 421 236 396 190 q 603 602 531 436 q 732 947 675 768 l 789 953 q 646 536 717 744 q 568 136 568 286 q 601 65 568 88 q 676 43 633 43 q 692 43 683 43 q 706 46 701 46 q 742 60 724 50 q 782 88 761 71 q 850 154 825 124 q 904 236 875 185 q 1085 593 1014 431 q 1215 947 1156 756 l 1272 953 q 1026 8 1111 481 m 988 -192 q 1029 -221 1000 -221 q 1079 -205 1054 -221 q 1121 -165 1104 -189 q 1138 -112 1138 -142 q 1124 -72 1138 -89 q 1092 -47 1111 -54 q 1022 -112 1038 -97 q 985 -179 985 -153 q 988 -192 985 -183 z "},"":{"ha":754,"x_min":1,"x_max":735,"o":"m 294 610 l 428 933 q 295 932 353 933 q 188 929 238 931 q 90 915 131 929 q 29 847 29 894 q 54 788 29 803 q 104 764 83 774 q 169 744 125 754 q 186 740 176 743 l 156 685 q 58 714 97 685 q 4 810 18 743 q 1 836 1 821 q 7 860 1 849 q 17 881 13 872 q 51 921 31 908 q 147 954 71 933 q 226 971 197 968 q 313 974 254 974 q 415 975 358 974 q 489 976 472 976 q 576 972 542 976 q 682 949 610 967 l 624 896 q 557 912 599 904 q 486 924 515 919 q 461 857 471 883 q 363 603 369 622 q 322 507 356 585 q 278 401 288 429 q 232 259 254 329 q 210 146 210 189 q 233 61 210 99 q 324 15 264 15 q 388 24 356 15 q 461 54 419 33 q 576 149 518 81 q 653 282 635 217 q 663 343 663 315 q 635 415 663 390 q 577 442 607 439 q 535 446 547 446 q 517 446 522 446 q 403 432 461 446 q 338 414 369 422 q 350 438 346 429 q 369 474 367 468 q 538 501 458 501 l 554 501 q 650 486 628 494 q 718 418 694 469 q 735 336 735 381 q 690 180 735 258 q 578 65 644 101 q 518 32 547 49 q 439 7 483 15 q 362 -7 394 -1 q 299 -12 329 -12 q 227 -1 257 -12 q 172 42 197 11 q 142 142 142 78 q 196 363 142 219 q 294 610 244 486 z "},"":{"ha":993,"x_min":31,"x_max":950,"o":"m 185 610 q 263 825 200 649 q 311 961 279 874 l 394 983 l 251 603 q 210 507 244 585 q 167 401 176 429 q 121 259 143 329 q 99 146 99 189 q 122 61 99 99 q 213 15 153 15 q 276 24 244 15 q 350 54 308 33 q 465 149 407 81 q 542 282 524 217 q 551 343 551 315 q 524 415 551 390 q 466 442 496 439 q 424 446 436 446 q 406 446 411 446 q 292 432 350 446 q 226 414 258 422 q 239 438 235 429 q 258 474 256 468 q 426 501 347 501 l 443 501 q 539 486 517 494 q 607 418 583 469 q 624 335 624 381 q 588 197 624 268 q 496 85 551 126 q 506 64 501 71 q 537 35 519 42 q 568 29 554 29 q 632 65 596 29 q 667 108 650 83 q 707 181 685 133 q 746 290 729 229 q 753 319 749 301 q 685 410 706 356 q 664 532 664 464 q 724 794 664 650 q 807 942 774 914 q 853 972 831 961 q 900 979 876 983 q 919 972 913 975 q 933 958 925 969 q 946 919 942 946 q 950 858 950 893 q 935 724 950 788 q 897 575 911 625 q 835 393 871 481 l 804 318 l 908 290 l 906 274 l 800 288 q 779 239 788 257 q 735 146 756 186 q 706 90 710 99 q 635 19 678 44 q 550 -7 593 -7 q 500 8 524 -7 q 460 54 476 22 q 384 22 415 33 q 338 8 353 11 q 251 -7 283 -1 q 188 -12 218 -12 q 116 -1 146 -12 q 61 42 86 11 q 38 87 44 61 q 31 143 31 113 q 108 425 31 235 q 185 610 146 517 m 769 342 q 856 576 835 508 q 913 843 896 706 q 916 868 914 856 q 918 896 918 881 q 897 953 918 932 q 878 957 893 957 q 838 938 858 954 q 801 896 817 921 q 764 822 778 857 q 738 738 750 786 q 710 628 717 663 q 699 524 699 572 q 715 426 699 469 q 769 342 731 382 z "},"":{"ha":629,"x_min":18,"x_max":611,"o":"m 172 610 q 250 825 188 649 q 299 961 267 874 l 382 983 l 239 603 q 198 507 232 585 q 154 401 164 429 q 108 259 131 329 q 86 146 86 189 q 110 61 86 99 q 200 15 140 15 q 264 24 232 15 q 338 54 296 33 q 453 149 394 81 q 529 282 511 217 q 539 343 539 315 q 511 415 539 390 q 453 442 483 439 q 411 446 424 446 q 393 446 399 446 q 279 432 338 446 q 214 414 246 422 q 226 438 222 429 q 246 474 243 468 q 414 501 335 501 l 431 501 q 526 486 504 494 q 594 418 571 469 q 611 336 611 381 q 566 180 611 258 q 454 65 521 101 q 394 32 424 49 q 315 7 360 15 q 238 -7 271 -1 q 175 -12 206 -12 q 103 -1 133 -12 q 49 42 74 11 q 25 87 32 61 q 18 143 18 113 q 96 425 18 235 q 172 610 133 517 z "},"":{"ha":875,"x_min":-37,"x_max":839,"o":"m 200 849 q 382 953 282 921 q 451 974 426 968 q 507 979 475 979 q 535 981 517 981 q 703 931 628 981 q 813 794 778 882 q 839 638 839 719 q 749 319 839 482 q 561 86 672 182 q 475 32 531 61 q 386 -7 431 10 q 309 -28 353 -19 q 224 -36 265 -36 q 75 -8 143 -36 q -37 82 7 19 q -10 108 -33 94 q 14 121 -3 113 q 92 58 33 88 q 229 11 163 22 q 252 8 242 8 q 275 8 263 8 q 507 90 392 8 q 672 276 613 165 q 758 515 728 382 l 497 515 l 510 551 q 670 551 624 551 q 763 551 717 551 q 768 613 767 576 q 769 656 769 650 q 729 857 769 771 q 651 935 704 910 q 536 960 599 960 q 349 889 454 960 q 244 818 296 853 l 200 849 z "},"":{"ha":1475,"x_min":-206,"x_max":1460,"o":"m 600 332 q 599 363 599 342 q 706 697 599 524 q 1007 953 828 894 q 1076 974 1051 968 q 1132 979 1100 979 q 1161 981 1142 981 q 1335 931 1257 981 q 1438 794 1413 882 q 1454 718 1449 758 q 1460 639 1460 678 q 1377 326 1460 478 q 1144 61 1294 174 q 1080 25 1113 38 q 1015 1 1047 13 q 890 -26 951 -26 q 754 13 815 -26 q 646 140 688 56 q 615 222 631 169 q 599 304 599 275 q 492 288 546 288 q 465 289 476 288 q 435 293 454 290 q 401 226 418 260 q 353 151 383 192 q 207 29 286 67 q 46 -4 136 -4 q -72 10 -10 -4 q -206 46 -135 24 l -182 92 q -133 67 -151 75 q -47 33 -75 39 q 13 24 -19 28 q 64 19 46 19 q 219 71 149 19 q 269 119 249 92 q 310 179 294 157 q 372 285 339 221 q 388 317 378 296 q 315 408 338 356 q 293 531 293 461 q 351 776 293 640 q 447 942 397 883 q 526 981 482 981 q 540 979 536 979 q 560 972 553 975 q 569 960 567 968 q 588 831 588 904 q 575 724 588 776 q 538 564 556 643 q 481 393 514 475 q 444 318 464 353 q 478 315 453 315 q 600 332 533 315 m 1297 276 q 1367 458 1340 357 q 1394 656 1394 560 q 1354 857 1394 771 q 1276 935 1329 910 q 1161 960 1224 960 q 818 767 964 960 q 665 382 690 597 q 661 321 661 350 q 694 167 661 239 q 797 33 726 96 q 835 17 811 21 q 871 10 858 13 q 894 8 883 8 q 917 8 904 8 q 1140 90 1032 8 q 1297 276 1236 163 m 400 347 q 476 525 429 388 q 556 839 532 689 q 563 878 560 861 q 565 906 565 894 q 538 953 565 942 l 518 957 q 478 938 499 954 q 442 896 457 921 q 397 810 415 851 q 362 714 379 769 q 335 614 344 658 q 325 529 325 569 q 342 433 325 479 q 400 347 360 388 z "},"":{"ha":746,"x_min":-53,"x_max":760,"o":"m 246 988 q 274 994 261 993 q 301 996 286 996 q 372 976 339 996 q 418 942 390 965 q 518 753 492 875 q 538 493 538 663 l 538 468 l 538 446 l 538 426 l 538 408 l 538 393 q 537 346 538 369 q 536 299 536 322 l 536 285 q 613 627 572 454 q 697 965 654 800 l 760 979 q 678 653 711 789 q 600 304 640 500 q 543 -15 560 108 l 472 -31 q 478 7 476 -7 q 498 151 493 103 q 507 267 503 199 q 511 393 511 336 q 503 551 511 469 q 476 756 496 633 q 453 826 471 793 q 414 885 440 850 q 374 924 394 910 q 310 942 346 942 q 268 936 289 942 q 183 883 221 922 q 131 791 144 843 q 118 699 118 739 q 129 623 118 661 q 158 551 140 585 q 197 494 176 517 q 249 450 213 478 q 375 386 297 411 q 458 361 411 374 q 464 344 464 350 q 460 324 467 333 q 425 290 436 301 q 363 240 403 267 q 296 196 310 206 q 35 29 199 128 q -39 -14 7 13 q -42 11 -37 -1 q -53 32 -50 26 q 72 103 25 75 q 297 244 207 182 l 422 336 l 410 350 q 315 372 354 358 q 226 413 276 385 q 182 436 189 432 q 124 486 151 456 q 54 690 54 567 q 69 799 54 742 q 137 920 90 872 q 246 988 183 968 z "},"":{"ha":413,"x_min":-149,"x_max":233,"o":"m 219 94 l 233 94 q 183 25 224 57 q 94 -3 142 -7 q 67 8 75 -3 q 58 40 58 19 q 71 106 58 68 q 92 160 76 124 q 26 60 58 110 q -74 -3 -17 6 q -127 17 -106 -7 q -149 82 -149 42 q -146 108 -149 89 q -75 232 -131 182 q 35 289 -28 276 q 106 294 60 294 q 140 292 124 294 l 128 265 q 85 269 104 269 q -58 197 -4 269 q -103 79 -103 139 q -61 35 -103 35 q -29 43 -49 35 q 24 86 3 58 q 63 146 47 124 q 132 258 85 178 q 151 290 139 271 l 185 290 q 164 224 171 249 q 122 103 144 163 q 113 78 118 94 q 108 54 108 63 q 117 33 108 39 q 132 28 126 28 q 151 32 144 31 q 207 75 178 38 q 219 94 211 81 z "},"":{"ha":333,"x_min":-142,"x_max":315,"o":"m 253 919 l 296 924 q 306 900 303 910 q 315 847 315 871 q 309 814 315 828 q 289 792 303 800 q 262 782 275 785 q 239 779 249 779 q 211 782 225 779 q 168 789 175 789 q 147 786 157 789 q 126 772 138 783 q 101 729 114 761 q 87 679 97 719 q 39 508 76 639 q -22 296 -8 342 q -54 190 -53 190 q 10 258 -31 226 q 96 296 58 296 q 141 277 122 296 q 160 226 160 258 q 129 128 160 181 q 61 50 99 76 q -15 9 24 24 q -97 -6 -53 -6 q -119 0 -110 -6 q -142 36 -142 13 q -139 57 -142 40 q 42 697 -83 288 l 67 768 l 75 793 q 103 825 78 804 q 135 842 121 840 q 186 836 153 844 q 236 828 219 828 q 250 829 246 828 q 283 860 283 835 q 263 908 283 881 q 253 919 260 913 m 76 119 q 101 172 92 144 q 111 222 111 199 q 97 260 111 249 q 65 268 83 272 q 4 229 33 260 q -46 163 -15 208 q -83 99 -67 131 q -104 40 -104 60 q -90 14 -104 19 q -64 8 -75 8 q -29 17 -47 8 q -3 29 -11 25 q 50 78 28 44 q 76 119 67 104 z "},"":{"ha":340,"x_min":-142,"x_max":285,"o":"m -25 269 l -54 190 q 10 258 -31 226 q 96 296 58 296 q 141 277 122 296 q 160 226 160 258 q 129 128 160 181 q 61 50 99 76 q -15 9 24 24 q -97 -6 -53 -6 q -119 0 -110 -6 q -140 38 -140 11 q -139 57 -139 50 q -121 122 -139 78 q -90 203 -96 186 l -136 182 q -137 196 -133 189 q -137 207 -142 203 q -101 236 -133 213 q -71 258 -92 243 q -19 475 -44 367 q 61 722 18 626 q 214 939 122 857 q 239 953 229 951 q 261 950 257 956 q 285 885 285 918 q 282 851 285 865 q 265 792 269 813 q 235 694 251 735 q 190 603 232 688 q 100 436 142 503 q -25 269 53 361 m 76 119 q 101 172 92 144 q 111 222 111 199 q 97 260 111 249 q 65 268 83 272 q 4 229 33 260 q -46 163 -15 208 q -83 99 -67 131 q -104 40 -104 60 q -90 14 -104 19 q -64 8 -75 8 q -29 17 -47 8 q -3 29 -11 25 q 50 78 28 44 q 76 119 67 104 m 242 822 q 251 860 249 846 q 254 888 254 874 q 247 919 254 906 q 226 917 236 918 q 206 888 211 901 q 121 722 149 782 q 50 544 79 633 q -3 333 15 440 q 89 474 63 431 q 174 632 140 557 q 214 725 203 694 q 242 822 231 768 z "},"":{"ha":257,"x_min":-154,"x_max":103,"o":"m 99 111 l 103 89 q 60 22 74 39 q -10 -8 28 -14 q -44 11 -31 -6 q -58 50 -58 28 q -24 172 -58 79 q 7 276 10 265 q -8 286 6 286 q -36 280 -21 286 q -72 263 -51 274 q -108 239 -104 242 q -131 215 -119 231 l -154 246 q -98 288 -128 272 q -47 306 -68 303 q -12 310 -26 308 q 4 311 1 311 q 39 306 26 311 q 54 289 51 301 q 26 179 56 279 q -4 53 -4 79 q 0 36 -4 43 q 21 32 4 29 q 57 53 39 35 q 99 111 63 58 z "},"":{"ha":361,"x_min":-149,"x_max":193,"o":"m 185 106 l 193 92 l 103 8 q 93 -33 97 -18 q 38 -179 68 -126 q -7 -258 15 -218 q -68 -307 -33 -297 q -90 -310 -82 -310 q -132 -293 -115 -310 q -149 -243 -149 -276 q -146 -217 -149 -236 q -99 -131 -137 -174 q 46 -8 -82 -112 q 71 64 60 26 q 82 131 82 101 q 14 49 56 88 q -82 -1 -40 -1 q -128 17 -108 -1 q -143 40 -137 25 q -149 68 -149 54 q -135 128 -149 97 q -100 188 -121 160 q -3 268 -57 239 q 113 297 51 297 q 142 296 132 297 l 171 290 l 165 261 q 96 276 133 276 q -35 215 22 276 q -92 76 -92 154 q -80 44 -92 54 q -51 33 -68 33 q -14 46 -32 33 q 54 113 26 75 q 128 236 65 128 l 154 231 l 114 43 l 185 106 m -6 -187 q 26 -96 11 -156 q 38 -43 31 -76 q -58 -131 -19 -87 q -128 -242 -107 -185 q -131 -258 -131 -253 q -116 -288 -131 -278 q -89 -299 -101 -299 q -37 -261 -57 -299 q -6 -187 -21 -224 z "},"":{"ha":271,"x_min":-147,"x_max":97,"o":"m 92 106 l 85 82 q 11 22 49 46 q -81 -11 -42 -11 q -110 -5 -97 -11 q -133 17 -124 1 q -147 65 -147 39 q -129 137 -147 97 q -90 206 -111 176 q -39 261 -69 236 q 17 294 -3 290 q 47 297 38 297 q 72 292 58 297 q 91 276 85 288 q 97 246 97 264 q 76 185 97 210 q -1 115 43 144 q -94 68 -40 90 q -90 35 -99 51 q -58 18 -82 18 q -19 28 -42 18 q 27 52 3 39 q 65 76 51 65 q 92 106 78 88 m -92 82 q 6 140 -39 101 q 68 236 58 186 q 40 276 74 267 q 8 271 19 281 q -92 82 -92 194 z "},"":{"ha":694,"x_min":-119,"x_max":575,"o":"m 322 190 q 351 222 336 208 q 383 251 374 242 q 423 280 404 271 q 469 297 442 289 q 506 300 483 300 q 544 295 533 300 q 563 285 556 290 q 575 268 571 279 l 550 250 q 519 269 533 264 q 489 275 504 275 q 424 249 456 275 q 371 185 393 222 q 348 136 357 161 q 339 89 339 111 q 371 29 339 49 q 401 21 386 21 q 444 33 419 21 q 501 71 469 46 q 532 97 513 79 l 536 85 q 464 24 496 46 q 376 -11 414 -11 q 331 3 353 -11 q 301 79 301 21 q 304 110 301 93 q 311 144 307 128 q 270 91 289 114 q 231 44 251 68 q 183 -3 194 4 q 172 3 178 0 q 197 117 179 53 q 225 208 214 182 q 176 161 194 179 q 124 102 144 128 q 65 42 104 76 q 0 -1 26 8 q -26 -6 -6 -4 q -49 -7 -46 -7 q -89 -2 -78 -7 q -108 8 -100 3 q -119 25 -115 14 l -94 43 q -63 24 -78 29 q -33 18 -49 18 q 31 44 0 18 q 85 108 63 71 q 108 157 99 132 q 117 204 117 182 q 85 264 117 244 q 54 272 69 272 q 11 260 36 272 q -46 222 -14 247 q -76 196 -57 214 l -81 208 q -8 269 -40 247 q 79 304 42 304 q 123 292 103 304 q 151 265 143 279 q 158 229 158 250 q 154 195 158 211 q 142 156 150 179 q 178 194 149 164 q 211 232 192 210 q 274 296 251 281 q 292 292 282 293 q 281 236 292 278 q 261 169 278 225 l 235 89 q 285 144 260 115 q 322 190 303 167 z "},"":{"ha":333,"x_min":-179,"x_max":163,"o":"m 46 90 q 68 54 57 81 q 72 43 69 50 l 154 106 l 163 92 l 72 8 q 63 -33 67 -18 q 7 -179 38 -126 q -37 -258 -15 -218 q -99 -307 -64 -297 q -121 -310 -112 -310 q -162 -293 -146 -310 q -179 -243 -179 -276 q -176 -217 -179 -236 q -100 -93 -165 -161 q 19 13 -64 -56 q 15 41 17 21 q 5 73 14 61 q -22 91 -4 85 q -56 97 -39 97 l -57 121 l 83 261 l -74 258 l -64 299 l 146 301 q 61 203 76 221 q -18 121 22 160 q 16 110 -1 115 q 46 90 33 104 m -36 -187 q 3 -90 -18 -156 q 19 -35 8 -69 q -82 -126 -37 -79 q -158 -242 -137 -186 q -161 -258 -161 -253 q -149 -286 -161 -278 q -115 -294 -137 -294 q -65 -258 -83 -294 q -36 -187 -50 -222 z "},"":{"ha":375,"x_min":-132,"x_max":228,"o":"m 222 97 l 228 82 q 181 28 204 54 q 114 -8 143 -8 q 88 0 100 -8 q 67 50 67 14 q 72 94 67 65 q 94 176 78 122 q 111 228 100 194 q 71 158 86 183 q -14 38 22 79 q -28 22 -17 35 q -46 3 -39 8 q -83 -8 -61 -8 q -129 13 -126 -8 q -132 54 -132 35 q -122 138 -132 93 q -74 285 -111 183 l -19 293 q -42 228 -33 253 q -76 110 -69 146 q -89 43 -82 74 q -87 25 -89 33 q -74 17 -85 17 q -47 28 -62 17 q -19 54 -31 40 q 63 174 39 138 q 128 290 100 231 l 176 290 l 119 54 q 125 35 117 42 q 142 32 129 32 q 197 64 167 32 q 222 97 207 74 z "},"":{"ha":382,"x_min":-132,"x_max":228,"o":"m 222 97 l 228 82 q 181 28 204 54 q 114 -8 143 -8 q 88 0 100 -8 q 67 50 67 14 q 72 94 67 65 q 94 176 78 122 q 111 228 100 194 q 71 158 86 183 q -14 38 22 79 q -28 22 -17 35 q -46 3 -39 8 q -83 -8 -61 -8 q -129 13 -126 -8 q -132 54 -132 35 q -122 138 -132 93 q -74 285 -111 183 l -19 293 q -42 228 -33 253 q -76 110 -69 146 q -89 43 -82 74 q -87 25 -89 33 q -74 17 -85 17 q -47 28 -62 17 q -19 54 -31 40 q 63 174 39 138 q 128 290 100 231 l 176 290 l 119 54 q 125 35 117 42 q 142 32 129 32 q 197 64 167 32 q 222 97 207 74 m 3 460 q 19 413 13 431 q 44 390 25 394 q 76 385 64 385 q 126 404 96 385 q 139 419 135 414 q 151 461 151 439 l 206 478 q 193 431 206 450 q 163 399 186 418 q 115 374 140 381 q 51 368 89 368 q -9 388 19 368 q -50 443 -37 408 l 3 460 z "},"":{"ha":246,"x_min":-139,"x_max":153,"o":"m 129 256 q 100 265 114 265 q 74 256 86 265 q 38 214 68 251 l -14 150 q 38 130 21 150 q 54 86 54 110 q 54 55 54 69 q 58 30 54 40 q 74 19 61 19 q 99 28 82 19 q 126 47 115 38 q 150 71 138 57 l 153 57 q 115 15 139 33 q 43 -11 81 -11 q 13 6 24 -11 q 1 63 1 22 q -7 106 1 92 q -28 119 -15 119 q -39 114 -35 119 q -82 26 -58 90 q -92 0 -85 17 l -139 -4 l -58 293 l -7 296 l -50 136 l 54 260 q 79 282 68 274 q 111 294 96 294 q 151 278 131 294 l 129 256 z "},"":{"ha":361,"x_min":-143,"x_max":251,"o":"m 247 111 l 251 89 q 208 22 222 39 q 139 -8 176 -14 q 104 11 118 -6 q 90 50 90 28 q 111 152 90 82 q 129 232 132 222 q 67 151 97 192 q -15 22 -14 25 q -42 -2 -28 6 q -75 -10 -57 -10 q -116 1 -97 -10 q -143 26 -135 11 l -112 67 q -68 32 -86 32 q -35 54 -53 32 q -6 97 -18 76 q 83 226 38 165 q 167 306 150 315 q 171 285 171 303 q 153 131 171 263 q 144 53 144 69 q 149 36 144 43 q 169 32 153 29 q 206 53 188 35 q 247 111 211 58 z "},"":{"ha":569,"x_min":-126,"x_max":440,"o":"m 144 281 q 165 294 153 289 q 193 300 178 300 q 203 299 199 300 q 210 297 207 299 l 167 110 q 160 78 164 94 q 157 53 157 63 q 161 40 157 43 q 174 42 168 38 q 193 64 181 46 q 275 181 274 178 q 340 294 314 238 l 389 294 l 332 58 q 338 39 329 46 q 354 36 342 36 q 410 68 379 36 q 435 101 419 78 l 440 86 q 393 32 417 58 q 326 -4 356 -4 q 300 4 313 -4 q 279 54 279 18 q 285 98 279 69 q 307 181 290 126 q 324 232 313 199 q 283 163 299 188 q 199 42 235 83 q 185 26 196 39 q 167 7 174 13 q 139 -4 151 -4 q 114 17 117 -4 q 111 47 111 39 q 111 57 111 54 q 119 132 111 93 q 144 219 128 171 q 88 150 115 185 q 6 22 7 25 q -22 -1 -7 6 q -54 -8 -37 -8 q -99 2 -78 -8 q -126 26 -121 13 l -92 71 q -71 47 -74 50 q -47 38 -60 38 q 13 93 -24 38 q 63 178 42 144 q 144 281 101 239 z "},"":{"ha":367,"x_min":-139,"x_max":232,"o":"m 147 299 l 200 299 q 164 197 175 232 q 121 68 128 94 q 119 56 119 63 q 118 46 118 49 q 132 29 118 29 l 144 32 q 194 63 174 42 q 229 106 218 92 l 232 92 q 182 33 214 61 q 111 0 143 0 q 96 1 101 0 q 67 53 67 10 q 70 78 67 61 q 81 121 74 96 q 90 150 89 146 l -43 150 l -87 0 l -139 0 l -58 294 l -7 296 l -40 171 l 99 172 l 147 299 z "},"":{"ha":292,"x_min":-146,"x_max":133,"o":"m 46 299 q 113 272 92 299 q 133 201 133 244 q 117 122 133 163 q 47 33 94 68 q -57 -1 0 -1 q -99 6 -76 -1 q -134 35 -122 13 q -146 85 -146 58 q -87 229 -146 160 q 46 299 -29 299 m -89 29 q -60 18 -78 18 q 2 44 -32 18 q 56 100 36 69 q 85 159 75 131 q 96 215 96 188 q 65 272 96 263 q 22 276 35 281 l 0 265 q -85 190 -49 236 q -121 99 -121 143 q -89 29 -121 60 z "},"":{"ha":368,"x_min":-151,"x_max":219,"o":"m 217 106 l 219 92 q 159 20 190 44 q 103 -4 128 -4 q 80 1 93 -4 q 60 19 67 6 q 53 51 53 33 q 59 83 53 63 q 82 144 65 104 q 114 219 99 183 q 121 247 121 238 q 108 276 121 261 l 106 279 q 54 253 83 289 q 25 214 33 225 q -65 79 -8 171 q -114 0 -83 50 l -151 3 l -74 285 l -19 296 l -76 94 l 38 256 q 72 289 54 279 q 114 301 90 299 q 150 288 131 304 q 165 253 169 272 q 136 149 157 204 q 99 51 111 85 q 99 32 93 38 q 114 26 106 26 q 135 33 118 26 q 168 53 153 40 q 217 106 183 65 z "},"":{"ha":361,"x_min":-242,"x_max":204,"o":"m -3 208 q 48 267 14 243 q 118 292 82 292 q 171 274 147 292 q 204 199 204 250 q 149 64 204 132 q 26 -4 93 -4 q -2 -1 8 -4 q -31 15 -12 1 q -51 29 -49 28 l -44 53 q 15 26 -17 26 q 74 49 46 26 q 120 108 103 72 q 142 154 138 143 q 156 211 156 189 q 146 253 156 233 q 111 272 136 272 q 58 256 85 272 q 19 214 32 239 q -99 -47 -51 74 q -182 -296 -147 -168 l -242 -310 q -149 -13 -194 -165 q -65 288 -104 139 l -6 299 q -32 219 -22 249 q -75 72 -60 132 l -82 43 l -3 208 z "},"":{"ha":278,"x_min":-151,"x_max":131,"o":"m 97 296 q 119 285 111 290 q 131 268 126 279 l 106 250 q 74 269 89 264 q 44 275 60 275 q -20 249 11 275 q -74 185 -51 222 q -97 136 -87 161 q -106 89 -106 111 q -74 29 -106 49 q -43 21 -58 21 q 0 33 -25 21 q 57 71 25 46 q 88 97 68 79 l 92 85 q 19 24 51 46 q -68 -11 -31 -11 q -112 2 -92 -11 q -142 33 -133 15 q -151 75 -151 50 q -127 163 -151 117 q -64 246 -103 208 q 25 297 -25 283 q 61 300 39 300 q 97 296 89 300 z "},"":{"ha":563,"x_min":-139,"x_max":431,"o":"m 419 106 l 431 92 q 400 56 413 68 q 332 6 363 17 q 307 -3 322 1 q 283 -7 292 -7 q 263 -2 274 -7 q 251 19 251 3 q 268 107 251 54 q 306 256 306 225 q 301 272 306 269 q 288 272 296 274 q 254 251 268 268 q 164 129 206 194 q 92 0 133 81 l 38 0 q 81 114 75 100 q 115 231 101 171 q 118 250 118 242 q 104 271 118 271 q 65 253 86 272 q 29 208 58 246 q -38 106 -8 160 q -96 0 -68 51 l -139 0 l -75 268 q -67 281 -74 276 q -50 290 -61 286 q -36 293 -39 293 q -19 290 -31 293 q -43 183 -31 231 q -72 76 -50 156 q -18 171 -39 140 q 56 263 11 215 q 86 287 72 279 q 117 294 100 294 q 135 291 125 294 q 154 274 144 288 q 158 250 158 265 l 158 231 q 143 144 158 197 q 126 97 139 128 q 197 208 164 163 q 281 293 246 275 q 306 299 292 299 q 340 283 325 299 q 354 242 354 268 q 339 147 354 196 q 308 51 324 99 q 311 29 303 35 q 344 31 324 19 q 383 65 364 43 q 419 106 401 86 z "},"":{"ha":326,"x_min":-249,"x_max":179,"o":"m -124 -250 q -56 -235 -99 -256 q -2 -192 -12 -215 q 24 -107 8 -168 q 46 -22 44 -26 q 75 71 67 43 q 100 165 92 124 l 108 211 q 76 157 88 176 q 18 65 40 96 q -25 18 -4 35 q -78 -6 -53 -6 q -103 1 -90 -6 q -122 25 -115 8 q -129 61 -129 42 q -128 79 -129 74 q -106 181 -119 128 q -74 285 -92 233 l -19 293 q -56 183 -42 233 q -82 76 -71 133 q -86 43 -83 60 q -78 21 -86 28 q -61 14 -71 14 q -36 25 -49 14 q -11 54 -24 36 q 60 162 25 103 q 131 290 96 221 l 179 290 q 156 190 164 228 q 106 8 131 90 q 40 -179 72 -85 q -31 -258 24 -229 q -142 -287 -86 -287 q -200 -282 -185 -287 q -249 -247 -215 -276 l -217 -208 q -169 -237 -176 -235 q -124 -250 -161 -240 z "},"":{"ha":556,"x_min":-139,"x_max":426,"o":"m 150 264 q 206 421 175 321 q 254 600 253 592 l 314 607 l 197 264 q 158 132 189 238 q 132 39 150 100 l 222 214 q 272 267 239 244 q 342 290 306 290 q 393 274 371 290 q 426 199 426 250 q 371 64 426 132 q 249 -4 315 -4 q 217 0 231 -4 q 181 19 203 4 q 171 29 176 22 l 178 53 q 238 26 206 26 q 297 49 268 26 q 342 108 325 72 q 364 154 360 143 q 378 211 378 189 q 367 254 378 233 q 329 275 356 275 q 281 258 307 275 q 242 214 256 240 q 40 -296 115 -24 l -19 -310 q 63 -54 19 -189 q 138 190 100 63 q 124 164 129 174 q 67 67 90 100 q 13 14 44 35 q -51 -7 -18 -7 q -106 11 -82 -7 q -139 86 -139 35 q -83 221 -139 153 q 39 289 -28 289 q 71 285 57 289 q 107 265 85 281 q 117 256 111 263 l 110 232 q 50 258 82 258 q -9 235 19 258 q -55 177 -37 213 q -76 131 -72 142 q -90 74 -90 96 q -81 33 -90 51 q -53 15 -72 15 q 9 45 -29 15 q 76 118 47 75 q 129 208 119 182 q 150 264 139 235 z "},"":{"ha":285,"x_min":-157,"x_max":136,"o":"m 107 285 l 136 285 l 31 163 l 58 0 l 14 0 l -12 114 l -121 -3 l -157 -3 l -18 139 l -49 279 l -1 285 l 28 190 l 107 285 z "},"":{"ha":396,"x_min":-132,"x_max":236,"o":"m 161 22 q 199 54 179 39 q 226 72 218 69 l 236 43 q 213 30 222 35 q 193 15 204 25 q 214 -3 204 11 q 222 -37 224 -18 q 204 -87 222 -65 q 157 -117 186 -108 q 139 -119 143 -119 q 110 -108 121 -119 q 100 -85 99 -96 q 139 -6 100 -44 q 130 -4 135 -4 q 124 -4 125 -4 q 88 3 99 -4 q 67 50 67 14 q 72 94 67 65 q 94 176 78 122 q 111 228 100 194 q 71 158 86 183 q -14 38 22 79 q -28 22 -17 35 q -46 3 -39 8 q -83 -8 -61 -8 q -129 13 -126 -8 q -132 54 -132 35 q -122 138 -132 93 q -74 285 -111 183 l -19 293 q -42 228 -33 253 q -76 110 -69 146 q -89 43 -82 74 q -87 25 -89 33 q -74 17 -85 17 q -47 28 -62 17 q -19 54 -31 40 q 63 174 39 138 q 128 290 100 231 l 176 290 l 119 58 q 120 35 117 49 q 161 22 124 22 m 117 -85 q 136 -104 121 -104 q 160 -95 147 -104 q 184 -69 174 -86 q 194 -37 194 -53 q 171 -4 194 -12 q 125 -54 136 -37 q 117 -85 114 -71 z "},"":{"ha":403,"x_min":-118,"x_max":228,"o":"m 222 97 l 228 82 q 179 31 193 43 q 108 -4 140 -4 q 88 0 99 -4 q 72 17 76 4 q 67 47 67 29 q 71 85 67 65 q 93 172 81 136 q 100 192 94 179 q 81 169 88 178 q 42 126 51 136 q 5 94 24 108 q -34 74 -14 81 q -68 67 -54 67 q -98 74 -86 67 q -114 97 -110 81 q -118 132 -118 114 q -100 217 -118 167 q -74 290 -82 267 l -17 290 l -51 183 q -58 153 -56 167 q -61 132 -61 140 q -37 101 -61 101 q 12 126 -21 101 q 58 168 44 150 q 93 215 83 199 q 128 290 108 254 l 176 290 l 119 54 q 125 35 117 42 q 142 32 129 32 q 197 64 167 32 q 222 97 207 74 z "},"":{"ha":549,"x_min":-132,"x_max":428,"o":"m 129 293 l 181 293 q 158 228 167 253 q 124 110 131 146 q 111 43 117 74 q 113 25 111 33 q 126 17 115 17 q 153 28 138 17 q 181 54 169 40 q 263 174 239 138 q 328 290 300 231 l 376 290 l 319 54 q 325 35 317 42 q 342 32 329 32 q 397 64 367 32 q 422 97 407 74 l 428 82 q 381 28 404 54 q 314 -8 343 -8 q 288 0 300 -8 q 267 50 267 14 q 272 94 267 65 q 294 176 278 122 q 311 228 300 194 q 271 158 286 183 q 186 38 222 79 q 172 22 183 35 q 154 3 161 8 q 117 -8 139 -8 q 71 13 74 -8 q 68 53 68 35 q 86 161 68 96 q 107 232 101 210 q 69 160 85 186 q -14 38 25 82 q -28 22 -17 35 q -46 3 -39 8 q -83 -8 -61 -8 q -129 13 -126 -8 q -132 53 -132 33 q -112 174 -132 104 q -72 293 -103 207 l -19 293 q -42 228 -33 253 q -76 110 -69 146 q -89 43 -82 74 q -87 25 -89 33 q -74 17 -85 17 q -47 28 -62 17 q -19 54 -31 40 q 47 156 13 100 q 129 293 88 224 z "},"":{"ha":590,"x_min":-132,"x_max":436,"o":"m 271 85 q 294 176 278 122 q 311 228 300 194 q 271 158 286 183 q 186 38 222 79 q 172 22 183 35 q 154 3 161 8 q 117 -8 139 -8 q 71 13 74 -8 q 68 53 68 35 q 86 161 68 96 q 107 232 101 210 q 69 160 85 186 q -14 38 25 82 q -28 22 -17 35 q -46 3 -39 8 q -83 -8 -61 -8 q -129 13 -126 -8 q -132 53 -132 33 q -112 174 -132 104 q -72 293 -103 207 l -19 293 q -42 228 -33 253 q -76 110 -69 146 q -89 43 -82 74 q -87 25 -89 33 q -74 17 -85 17 q -47 28 -62 17 q -19 54 -31 40 q 47 156 13 100 q 129 293 88 224 l 181 293 q 158 228 167 253 q 124 110 131 146 q 111 43 117 74 q 113 25 111 33 q 126 17 115 17 q 153 28 138 17 q 181 54 169 40 q 263 174 239 138 q 328 290 300 231 l 376 290 l 319 54 q 323 29 317 42 q 361 17 329 17 q 399 49 379 33 q 426 67 418 64 l 436 38 q 413 24 422 29 q 393 10 404 19 q 414 -9 404 6 q 422 -43 424 -24 q 404 -92 422 -71 q 357 -122 386 -114 q 339 -125 343 -125 q 310 -113 321 -125 q 300 -90 299 -101 q 339 -11 300 -50 q 330 -10 335 -10 q 324 -10 325 -10 q 288 -3 299 -10 q 267 46 267 8 q 271 85 267 64 m 317 -90 q 336 -110 321 -110 q 360 -101 347 -110 q 384 -75 374 -92 q 394 -43 394 -58 q 371 -10 394 -18 q 325 -60 336 -43 q 317 -90 314 -76 z "},"":{"ha":354,"x_min":-142,"x_max":217,"o":"m 63 304 l 25 193 q 57 219 36 211 q 108 226 78 226 q 169 216 140 226 q 207 190 197 206 q 217 149 217 175 q 201 81 217 114 q 156 35 185 49 q 75 8 128 21 q -21 -6 22 -6 q -43 0 -33 -6 q -69 40 -69 14 q -68 54 -69 49 q -36 172 -51 122 q -8 264 -21 221 q -75 274 -42 269 q -142 285 -108 279 q -132 295 -140 288 q -124 304 -124 303 l 63 304 m 139 78 q 156 129 156 101 q 151 155 156 143 q 129 178 147 167 q 92 188 111 190 q 20 142 50 182 q -10 56 -10 101 q 3 24 -10 35 q 29 17 11 17 q 72 28 51 17 q 108 48 92 39 q 139 78 124 57 z "},"":{"ha":454,"x_min":-139,"x_max":326,"o":"m -7 304 l -44 193 q -12 219 -33 211 q 39 226 8 226 q 99 216 71 226 q 138 190 128 206 q 147 149 147 175 q 131 81 147 114 q 87 35 115 49 q 6 8 58 21 q -90 -6 -47 -6 q -112 0 -103 -6 q -139 40 -139 14 q -137 54 -139 49 q -103 176 -124 111 q -65 304 -83 242 l -7 304 m 322 92 l 326 69 q 283 14 306 33 q 225 -6 254 -11 q 191 12 203 -1 q 179 51 179 25 q 208 206 179 115 q 242 296 232 268 l 301 296 q 268 196 279 231 q 233 58 233 86 q 237 43 233 49 q 258 38 240 38 q 294 60 275 38 q 322 92 314 82 m 69 78 q 86 129 86 101 q 82 155 86 143 q 60 178 78 167 q 22 188 42 190 q -49 142 -19 182 q -79 56 -79 101 q -67 24 -79 35 q -40 17 -58 17 q 2 28 -18 17 q 38 48 22 39 q 69 78 54 57 z "},"":{"ha":285,"x_min":-146,"x_max":140,"o":"m -14 304 l -51 193 q -19 219 -40 211 q 32 226 1 226 q 92 216 64 226 q 131 190 121 206 q 140 149 140 175 q 124 81 140 114 q 80 35 108 49 q -1 8 51 21 q -97 -6 -54 -6 q -119 0 -110 -6 q -146 40 -146 14 q -144 54 -146 49 q -110 176 -131 111 q -72 304 -90 242 l -14 304 m 63 78 q 79 129 79 101 q 75 155 79 143 q 53 178 71 167 q 15 188 35 190 q -56 142 -26 182 q -86 56 -86 101 q -74 24 -86 35 q -47 17 -65 17 q -5 28 -25 17 q 31 48 15 39 q 63 78 47 57 z "},"":{"ha":278,"x_min":-144,"x_max":133,"o":"m -114 67 q -103 46 -108 54 q -88 28 -99 38 q -60 18 -78 18 q 2 44 -32 18 q 57 103 36 69 l 72 131 q 30 135 51 132 q -12 140 8 138 q -17 151 -17 149 l 82 154 q 96 215 96 189 q 65 272 96 263 q 22 276 35 281 l 0 265 l -33 242 l -51 258 q -3 287 -29 275 q 46 299 22 299 q 113 272 92 299 q 133 201 133 244 q 117 122 133 163 q 47 33 94 68 q -56 -3 -1 -3 q -97 4 -74 -3 q -144 56 -135 15 l -114 67 z "},"":{"ha":410,"x_min":-136,"x_max":275,"o":"m -53 122 l -85 -3 l -136 -1 q -103 144 -128 61 q -57 282 -85 206 l -3 293 l -46 147 l 13 153 q 78 244 28 199 q 190 299 136 299 q 254 276 233 299 q 275 215 275 254 q 252 122 275 172 q 183 36 229 72 q 83 0 136 0 q 42 6 61 0 q 10 35 22 13 q -1 85 -1 58 q 2 108 -1 93 q 7 129 6 124 q -31 128 -11 129 q -53 122 -50 128 m 56 29 q 85 18 67 18 q 147 44 113 18 q 200 100 181 69 q 230 159 219 131 q 240 215 240 188 q 210 272 240 263 q 167 276 179 281 l 144 265 q 60 190 96 236 q 24 99 24 143 q 56 29 24 60 z "},"":{"ha":382,"x_min":-146,"x_max":250,"o":"m 165 299 l 218 299 q 182 197 193 232 q 139 68 146 94 q 137 56 138 63 q 136 46 136 49 q 150 29 136 29 l 163 32 q 213 63 192 42 q 247 106 236 92 l 250 92 q 200 33 232 61 q 129 0 161 0 q 114 1 119 0 q 85 53 85 10 q 88 78 85 61 q 99 121 92 96 q 108 150 107 146 l 81 150 l -72 0 l -146 -3 q -76 46 -101 28 q 32 143 -1 103 q -56 174 -25 149 q -86 232 -86 200 q -51 292 -86 272 q 14 311 -31 303 q 36 313 21 313 q 111 300 71 313 q 146 286 125 296 l 133 257 q 100 267 113 264 q 33 278 57 278 q -3 270 11 278 q -19 251 -17 263 q -21 233 -21 239 q -21 225 -21 228 q -3 184 -21 194 q 53 174 15 174 q 86 175 71 174 q 117 181 101 176 l 165 299 z "}}}
